SplineFontDB: 3.0
FontName: InconsolataLGC
FullName: Inconsolata LGC
FamilyName: Inconsolata LGC
Weight: Regular
Copyright: Original Roman version created by Raph Levien using his own tools and FontForge. Copyright 2006 Raph Levien. Hellenisation of the Roman font, by Dimosthenis Kaponis, using FontForge. Hellenic glyphs Copyright 2010-2012 Dimosthenis Kaponis. Released under the SIL Open Font License, http://scripts.sil.org/OFL.\n\nCyrillic glyphs added by MihailJP, using FontForge. Cyrillic glyphs Copyright 2012 MihailJP. Released under the SIL Open Font License, http://scripts.sil.org/OFL.\n\nSome glyphs modified by Greg Omelaenko, using FontForge.
UComments: "2005-8-26: Created." 
Version: 1.2
ItalicAngle: 0
UnderlinePosition: -101
UnderlineWidth: 50
Ascent: 840
Descent: 184
LayerCount: 2
Layer: 0 0 "Back"  1
Layer: 1 0 "Fore"  0
XUID: [1021 77 1780377399 11264577]
FSType: 8
OS2Version: 0
OS2_WeightWidthSlopeOnly: 0
OS2_UseTypoMetrics: 0
CreationTime: 1161020814
ModificationTime: 1368358024
PfmFamily: 17
TTFWeight: 500
TTFWidth: 5
LineGap: 205
VLineGap: 0
Panose: 2 11 6 9 3 0 3 0 0 0
OS2TypoAscent: 0
OS2TypoAOffset: 1
OS2TypoDescent: 0
OS2TypoDOffset: 1
OS2TypoLinegap: 0
OS2WinAscent: 0
OS2WinAOffset: 1
OS2WinDescent: 0
OS2WinDOffset: 1
HheadAscent: 0
HheadAOffset: 1
HheadDescent: 0
HheadDOffset: 1
OS2Vendor: 'PfEd'
Lookup: 1 0 0 "Polish kreska forms"  {"Polish kreska forms-1" ("pl" ) } ['locl' ('latn' <'PLK ' > ) ]
Lookup: 1 0 0 "Romanian comma accent"  {"Romanian comma accent-1"  } ['locl' ('latn' <'MOL ' 'ROM ' > ) ]
MarkAttachClasses: 1
DEI: 91125
LangName: 1033 
Encoding: UnicodeBmp
Compacted: 1
UnicodeInterp: none
NameList: Adobe Glyph List
DisplaySize: -72
AntiAlias: 1
FitToEm: 1
WinInfo: 304 16 4
BeginPrivate: 6
BlueValues 31 [-14 0 542 555 739 748 767 796]
OtherBlues 11 [-206 -198]
StemSnapH 16 [20 65 70 74 81]
StdHW 4 [70]
StemSnapV 7 [79 86]
StdVW 4 [86]
EndPrivate
Grid
358 1352 m 0
 358 -696 l 0
548.352 1351.68 m 0
 548.352 -696.32 l 0

StartChar: a
Encoding: 97 97 0
Width: 613
Flags: HMW
TeX: 99 0
LayerCount: 2
Fore
SplineSet
118 478 m 0
 168 530 238 554 311 554 c 0
 395 554 464 523 500 464 c 0
 525 422 526 380 526 336 c 0
 526 0 l 0
 445 0 l 0
 445 59 l 0
 386 11 318 -13 251 -13 c 0
 137 -13 69 60 69 140 c 0
 69 200 108 263 193 295 c 0
 256 319 334 319 409 319 c 0
 415 319 421 319 427 319 c 0
 444 319 l 0
 444 339 l 0
 444 368 444 402 427 432 c 0
 412 458 380 484 315 484 c 0
 265 484 204 470 160 424 c 0
 118 478 l 0
447 254 m 0
 428 254 l 0
 408 254 386 254 364 254 c 0
 323 254 282 253 250 246 c 0
 182 230 155 185 155 145 c 0
 155 97 196 52 268 52 c 0
 339 52 392 96 411 116 c 0
 448 155 447 190 447 218 c 0
 447 254 l 0
EndSplineSet
Validated: 33
EndChar

StartChar: c
Encoding: 99 99 1
Width: 613
Flags: HMW
TeX: 101 0
LayerCount: 2
Fore
SplineSet
552 453 m 4
 492 382 l 4
 483 389 489 400 484 409 c 4
 481 415 437 480 344 480 c 4
 244 480 165 404 165 280 c 4
 165 153 245 63 351 63 c 4
 405 63 458 88 495 130 c 4
 544 73 l 4
 492 17 420 -13 344 -13 c 4
 191 -13 77 108 77 271 c 4
 77 434 190 553 349 553 c 4
 436 553 509 516 552 453 c 4
EndSplineSet
Validated: 1
EndChar

StartChar: m
Encoding: 109 109 2
Width: 613
Flags: HMW
TeX: 112 0
LayerCount: 2
Fore
SplineSet
55 0 m 0
 55 542 l 0
 134 542 l 0
 133 488 l 0
 158 526 200 555 244 555 c 0
 293 555 332 521 340 476 c 0
 362 524 410 555 462 555 c 0
 492 555 526 544 546 512 c 0
 568 481 568 443 568 404 c 0
 568 398 568 391 568 385 c 0
 568 -1 l 0
 487 -1 l 0
 487 384 l 0
 487 393 488 404 488 414 c 0
 488 431 486 448 480 463 c 0
 471 482 454 493 437 493 c 0
 404 493 383 458 374 443 c 0
 355 410 351 387 351 358 c 0
 351 0 l 0
 271 0 l 0
 271 377 l 0
 271 385 272 393 272 402 c 0
 272 417 271 434 266 449 c 0
 257 479 235 489 216 489 c 0
 194 489 170 475 151 439 c 0
 136 410 133 387 133 361 c 0
 133 0 l 0
 55 0 l 0
EndSplineSet
Validated: 1
EndChar

StartChar: s
Encoding: 115 115 3
Width: 613
Flags: HMW
TeX: 118 0
LayerCount: 2
Fore
SplineSet
523 470 m 0
 473 395 l 0
 471 395 467 399 467 406 c 0
 467 410 467 412 464 416 c 0
 442 443 391 490 314 490 c 0
 253 490 200 461 200 417 c 0
 200 399 209 373 253 351 c 0
 304 327 392 314 453 280 c 0
 516 244 532 195 532 157 c 0
 532 75 455 -12 307 -12 c 0
 225 -12 141 15 78 74 c 0
 127 159 l 0
 133 156 132 150 132 148 c 0
 132 143 132 140 136 135 c 0
 153 116 212 59 305 59 c 0
 382 59 444 94 444 145 c 0
 444 165 435 192 390 214 c 0
 350 233 291 247 245 264 c 0
 216 275 113 309 113 404 c 0
 113 485 195 555 321 555 c 0
 401 555 473 525 523 470 c 0
EndSplineSet
Validated: 1
EndChar

StartChar: I
Encoding: 73 73 4
Width: 613
Flags: HMW
TeX: 75 0
LayerCount: 2
Fore
SplineSet
115 739 m 0
 481 739 l 0
 481 670 l 0
 335 670 l 0
 335 68 l 0
 488 68 l 0
 488 -1 l 0
 106 -1 l 0
 106 69 l 0
 252 69 l 0
 252 670 l 0
 115 670 l 0
 115 739 l 0
EndSplineSet
Validated: 1
EndChar

StartChar: o
Encoding: 111 111 5
Width: 613
Flags: HMW
TeX: 114 0
LayerCount: 2
Fore
SplineSet
556 269 m 4
 556 89 440 -14 312 -14 c 4
 175 -14 58 102 58 267 c 4
 58 434 177 554 315 554 c 4
 438 554 556 456 556 269 c 4
309 481 m 4
 226 481 148 407 148 274 c 4
 148 140 227 59 313 59 c 4
 392 59 470 129 470 265 c 4
 470 415 387 481 309 481 c 4
EndSplineSet
Validated: 1
EndChar

StartChar: n
Encoding: 110 110 6
Width: 613
Flags: HMW
TeX: 113 0
LayerCount: 2
Fore
SplineSet
91 0 m 4
 91 542 l 4
 178 542 l 4
 178 446 l 4
 218 506 284 555 358 555 c 4
 420 555 476 520 503 459 c 4
 522 415 522 371 522 329 c 4
 522 0 l 4
 438 0 l 4
 438 327 l 4
 438 365 438 412 409 447 c 4
 390 470 362 481 335 481 c 4
 278 481 227 434 205 406 c 4
 182 376 178 349 178 312 c 4
 178 0 l 4
 91 0 l 4
EndSplineSet
Validated: 1
EndChar

StartChar: l
Encoding: 108 108 7
Width: 613
Flags: HMW
TeX: 111 0
LayerCount: 2
Fore
SplineSet
111 788 m 0
 350 788 l 0
 350 69 l 0
 510 69 l 0
 510 0 l 0
 103 0 l 0
 103 69 l 0
 264 69 l 0
 264 720 l 0
 111 720 l 0
 111 788 l 0
EndSplineSet
Validated: 1
EndChar

StartChar: t
Encoding: 116 116 8
Width: 613
Flags: HMW
TeX: 119 0
LayerCount: 2
Fore
SplineSet
233 687 m 0
 327 702 l 0
 328 700 328 698 328 696 c 0
 328 687 321 681 319 671 c 0
 314 640 306 543 306 543 c 0
 483 543 l 0
 483 472 l 0
 305 472 l 0
 298 401 295 331 295 260 c 0
 295 181 298 161 298 156 c 0
 307 91 349 69 389 69 c 0
 423 69 465 84 511 118 c 0
 538 50 l 0
 492 16 430 -10 365 -10 c 0
 310 -10 267 11 241 47 c 0
 209 92 209 147 209 195 c 0
 209 287 213 379 220 472 c 0
 93 472 l 0
 94 542 l 0
 223 542 l 0
 233 687 l 0
EndSplineSet
Validated: 1
EndChar

StartChar: e
Encoding: 101 101 9
Width: 613
Flags: HMW
TeX: 103 0
LayerCount: 2
Fore
SplineSet
317 555 m 0
 405 555 506 507 531 362 c 0
 535 342 537 321 537 298 c 0
 537 285 537 272 536 259 c 1
 151 259 l 1
 158 96 262 56 335 56 c 0
 389 56 439 78 475 118 c 1
 522 72 l 1
 476 17 406 -12 328 -12 c 0
 182 -12 68 84 68 265 c 0
 68 463 187 555 317 555 c 0
154 325 m 1
 452 325 l 1
 453 331 453 337 453 343 c 0
 453 423 393 489 311 489 c 0
 253 489 170 453 154 325 c 1
EndSplineSet
Validated: 1
EndChar

StartChar: b
Encoding: 98 98 11
Width: 613
Flags: HMW
TeX: 100 0
LayerCount: 2
Fore
SplineSet
81 790 m 0
 181 790 l 0
 183 783 177 778 175 776 c 0
 169 772 168 769 168 763 c 0
 168 459 l 0
 203 518 266 555 335 555 c 0
 441 555 553 467 553 278 c 0
 553 81 438 -13 327 -13 c 0
 261 -13 202 19 166 72 c 0
 136 0 l 0
 81 0 l 0
 81 790 l 0
305 481 m 0
 252 481 202 451 182 402 c 0
 170 372 168 338 168 289 c 0
 168 242 168 210 171 181 c 0
 185 78 267 63 304 63 c 0
 357 63 464 94 464 260 c 0
 464 451 356 481 305 481 c 0
EndSplineSet
Validated: 1
EndChar

StartChar: H
Encoding: 72 72 12
Width: 613
Flags: HMW
TeX: 74 0
LayerCount: 2
Fore
SplineSet
75 739 m 0
 167 739 l 0
 168 737 168 736 168 734 c 0
 168 725 161 724 161 711 c 0
 161 423 l 0
 451 423 l 0
 451 739 l 0
 541 739 l 0
 542 738 542 736 542 734 c 0
 542 725 534 725 534 713 c 0
 534 -1 l 0
 450 -1 l 0
 450 352 l 0
 161 352 l 0
 161 0 l 0
 75 0 l 0
 75 739 l 0
EndSplineSet
Validated: 1
EndChar

StartChar: g
Encoding: 103 103 13
Width: 613
Flags: HMW
TeX: 105 0
LayerCount: 2
Fore
SplineSet
160 373 m 0
 160 307 213 254 279 254 c 0
 346 254 398 307 398 373 c 0
 398 439 346 493 280 493 c 0
 213 493 160 439 160 373 c 0
285 560 m 0
 334 560 379 542 413 508 c 1
 451 539 499 557 548 557 c 0
 553 557 558 556 563 556 c 1
 573 486 l 1
 563 488 553 489 542 489 c 0
 509 489 476 480 447 463 c 1
 465 436 475 404 475 371 c 0
 475 272 388 185 280 185 c 0
 256 185 234 190 211 198 c 1
 206 194 172 166 172 137 c 0
 172 120 185 107 205 101 c 0
 217 98 242 94 283 94 c 0
 308 94 333 96 359 96 c 0
 396 96 433 93 466 79 c 0
 523 56 550 8 550 -39 c 0
 550 -112 484 -204 301 -204 c 0
 111 -204 55 -135 55 -76 c 0
 55 -33 86 7 144 44 c 1
 109 62 100 94 100 117 c 0
 100 152 123 188 162 221 c 1
 112 254 82 309 82 368 c 0
 82 474 176 560 285 560 c 0
202 29 m 1
 171 13 134 -16 134 -55 c 0
 134 -74 143 -105 187 -122 c 0
 228 -138 274 -139 299 -139 c 0
 336 -139 382 -138 421 -116 c 0
 459 -96 472 -68 472 -44 c 0
 472 -19 458 11 408 19 c 0
 392 21 373 22 353 22 c 0
 346 22 340 22 333 22 c 0
 320 22 306 22 293 23 c 0
 251 24 222 27 202 29 c 1
EndSplineSet
Validated: 1
EndChar

StartChar: h
Encoding: 104 104 14
Width: 613
Flags: HMW
TeX: 106 0
LayerCount: 2
Fore
SplineSet
93 0 m 4
 93 788 l 4
 191 788 l 4
 191 787 193 786 193 785 c 4
 193 779 188 775 185 772 c 4
 181 768 180 765 180 761 c 4
 180 446 l 4
 220 506 286 555 360 555 c 4
 422 555 478 520 505 459 c 4
 524 415 524 371 524 329 c 4
 524 0 l 4
 440 0 l 4
 440 327 l 4
 440 365 440 412 411 447 c 4
 392 470 364 481 337 481 c 4
 280 481 229 434 207 406 c 4
 184 376 180 349 180 312 c 4
 180 0 l 4
 93 0 l 4
EndSplineSet
Validated: 1
EndChar

StartChar: u
Encoding: 117 117 15
Width: 613
Flags: HMW
TeX: 120 0
LayerCount: 2
Fore
SplineSet
85 542 m 4
 171 542 l 4
 171 240 l 4
 171 203 171 161 190 123 c 4
 212 80 251 56 294 56 c 4
 346 56 394 91 419 136 c 4
 437 170 440 202 440 244 c 4
 440 542 l 4
 526 542 l 4
 526 49 l 4
 526 33 527 16 532 0 c 4
 442 0 l 4
 440 14 440 28 440 42 c 4
 441 83 l 4
 406 24 342 -13 274 -13 c 4
 203 -13 137 25 105 97 c 4
 83 144 84 193 84 240 c 4
 85 542 l 4
EndSplineSet
Validated: 33
EndChar

StartChar: r
Encoding: 114 114 16
Width: 613
Flags: HMW
TeX: 117 0
LayerCount: 2
Fore
SplineSet
128 542 m 0
 217 542 l 0
 214 437 l 0
 250 515 330 555 409 555 c 0
 470 555 520 531 554 496 c 0
 514 414 l 0
 505 423 501 432 494 441 c 0
 479 460 450 481 404 481 c 0
 366 481 301 468 252 390 c 0
 215 332 214 296 214 263 c 0
 214 -1 l 0
 128 -1 l 0
 128 542 l 0
EndSplineSet
Validated: 1
EndChar

StartChar: i
Encoding: 105 105 17
Width: 613
Flags: HMW
TeX: 108 0
LayerCount: 2
Fore
SplineSet
136 543 m 4
 353 543 l 4
 353 69 l 4
 480 69 l 4
 480 0 l 4
 129 0 l 4
 129 69 l 4
 267 69 l 4
 267 473 l 4
 136 473 l 4
 136 543 l 4
312 778 m 4
 346 778 374 751 374 717 c 4
 374 683 346 656 312 656 c 4
 278 656 251 683 251 717 c 4
 251 751 278 778 312 778 c 4
EndSplineSet
Validated: 1
EndChar

StartChar: f
Encoding: 102 102 18
Width: 613
Flags: HMW
TeX: 104 0
LayerCount: 2
Fore
SplineSet
418 796 m 0
 487 796 545 769 584 722 c 1
 545 643 l 1
 541 643 536 645 536 653 c 0
 535 658 535 662 531 667 c 0
 508 702 466 729 414 729 c 0
 369 729 327 709 304 669 c 0
 285 636 285 599 285 563 c 0
 285 559 285 556 285 552 c 2
 285 510 l 1
 462 510 l 1
 462 442 l 1
 285 442 l 1
 285 0 l 1
 203 0 l 1
 203 442 l 1
 85 442 l 1
 85 510 l 1
 203 510 l 1
 203 563 l 2
 203 611 204 656 232 701 c 0
 270 762 342 796 418 796 c 0
EndSplineSet
Validated: 1
EndChar

StartChar: v
Encoding: 118 118 19
Width: 613
Flags: HMW
TeX: 121 0
LayerCount: 2
Fore
SplineSet
57 543 m 4
 160 543 l 4
 162 533 156 526 156 519 c 4
 156 516 157 515 158 512 c 4
 314 116 l 4
 401 317 l 4
 432 388 461 464 475 543 c 4
 552 543 l 4
 534 460 503 381 471 305 c 4
 339 -4 l 4
 272 -4 l 4
 57 543 l 4
EndSplineSet
Validated: 1
EndChar

StartChar: d
Encoding: 100 100 20
Width: 613
Flags: HMW
TeX: 102 0
LayerCount: 2
Fore
SplineSet
451 463 m 0
 451 790 l 0
 542 790 l 0
 542 782 537 776 535 772 c 0
 531 765 530 762 530 756 c 0
 531 50 l 0
 531 34 533 17 537 0 c 0
 452 0 l 0
 448 13 446 27 446 40 c 0
 446 87 l 0
 412 26 348 -12 279 -12 c 0
 174 -12 63 76 63 276 c 0
 63 483 189 556 292 556 c 0
 367 556 425 519 451 463 c 0
296 486 m 0
 234 486 146 444 146 290 c 0
 146 111 238 63 299 63 c 0
 356 63 410 101 432 166 c 0
 441 193 444 224 444 265 c 0
 444 326 442 356 435 381 c 0
 413 461 344 486 296 486 c 0
EndSplineSet
Validated: 1
EndChar

StartChar: p
Encoding: 112 112 21
Width: 613
Flags: HMW
TeX: 115 0
LayerCount: 2
Fore
SplineSet
81 542 m 0
 168 542 l 0
 168 459 l 0
 205 518 269 554 339 554 c 0
 445 554 559 469 559 278 c 0
 559 79 443 -14 332 -14 c 0
 266 -14 205 19 169 72 c 0
 169 -198 l 0
 82 -198 l 0
 81 542 l 0
308 481 m 0
 253 481 202 451 182 402 c 0
 170 374 168 342 168 296 c 0
 168 217 168 173 183 136 c 0
 205 87 256 61 307 61 c 0
 358 61 470 89 470 259 c 0
 470 457 355 481 308 481 c 0
EndSplineSet
Validated: 1
EndChar

StartChar: q
Encoding: 113 113 22
Width: 613
Flags: HMW
TeX: 116 0
LayerCount: 2
Fore
SplineSet
454 463 m 0
 454 542 l 0
 535 542 l 0
 535 -198 l 0
 450 -198 l 0
 450 87 l 0
 416 27 353 -12 284 -12 c 0
 164 -12 60 100 60 276 c 0
 60 460 177 556 296 556 c 0
 416 556 454 463 454 463 c 0
299 486 m 0
 226 486 146 430 146 289 c 0
 146 135 225 63 302 63 c 0
 358 63 415 101 435 166 c 0
 444 194 446 224 446 264 c 0
 446 330 444 364 433 394 c 0
 409 461 347 486 299 486 c 0
EndSplineSet
Validated: 1
EndChar

StartChar: y
Encoding: 121 121 23
Width: 613
Flags: HMW
TeX: 124 0
LayerCount: 2
Fore
SplineSet
65 542 m 4
 171 542 l 4
 172 531 166 525 166 516 c 4
 166 513 167 510 168 507 c 4
 327 108 l 4
 430 398 l 4
 447 445 462 493 471 543 c 4
 560 543 l 4
 544 490 525 438 506 386 c 4
 337 -61 l 4
 325 -92 314 -120 290 -147 c 4
 254 -188 203 -206 154 -206 c 4
 109 -206 68 -191 37 -161 c 4
 81 -84 l 4
 88 -89 87 -97 90 -103 c 4
 93 -109 114 -136 154 -136 c 4
 179 -136 207 -125 230 -101 c 4
 247 -83 258 -60 267 -38 c 4
 285 2 l 4
 65 542 l 4
EndSplineSet
Validated: 1
EndChar

StartChar: period
Encoding: 46 46 24
Width: 613
Flags: HMW
TeX: 115 0
LayerCount: 2
Fore
SplineSet
364 55 m 0
 364 18 332 -13 293 -13 c 0
 254 -13 223 18 223 55 c 0
 223 92 254 123 293 123 c 0
 332 123 364 92 364 55 c 0
EndSplineSet
Validated: 1
EndChar

StartChar: comma
Encoding: 44 44 25
Width: 613
Flags: HMW
TeX: 101 0
LayerCount: 2
Fore
SplineSet
373 23 m 0
 373 -39 330 -116 247 -200 c 0
 206 -164 l 0
 234 -138 253 -109 265 -90 c 0
 271 -80 283 -61 283 -41 c 0
 283 -17 265 -5 255 2 c 0
 245 9 222 22 222 54 c 0
 222 90 251 122 290 122 c 0
 332 122 373 84 373 23 c 0
EndSplineSet
Validated: 1
EndChar

StartChar: plus
Encoding: 43 43 28
Width: 613
Flags: HMW
TeX: 115 0
LayerCount: 2
Fore
SplineSet
273 621 m 5
 348 621 l 5
 348 418 l 5
 551 418 l 5
 551 345 l 5
 348 345 l 5
 348 123 l 5
 273 123 l 5
 273 345 l 5
 63 345 l 5
 63 418 l 5
 273 418 l 5
 273 621 l 5
EndSplineSet
Validated: 1
EndChar

StartChar: minus
Encoding: 8722 8722 29
Width: 613
Flags: HMW
TeX: 106 0
LayerCount: 2
Fore
SplineSet
63 408 m 29
 551 408 l 29
 551 335 l 29
 63 335 l 29
 63 408 l 29
EndSplineSet
Validated: 1
EndChar

StartChar: underscore
Encoding: 95 95 31
Width: 613
Flags: HMW
TeX: 120 0
LayerCount: 2
Fore
SplineSet
51 -23 m 29
 563 -23 l 29
 563 -95 l 29
 51 -95 l 29
 51 -23 l 29
EndSplineSet
Validated: 1
EndChar

StartChar: less
Encoding: 60 60 32
Width: 613
Flags: HMW
TeX: 111 0
LayerCount: 2
Fore
SplineSet
554 589 m 25
 142 379 l 25
 557 145 l 25
 557 56 l 25
 51 351 l 25
 51 409 l 25
 554 673 l 25
 554 589 l 25
EndSplineSet
Validated: 1
EndChar

StartChar: greater
Encoding: 62 62 33
Width: 613
Flags: HMW
TeX: 105 0
LayerCount: 2
Fore
SplineSet
60 589 m 25
 60 673 l 25
 563 409 l 25
 563 351 l 25
 57 56 l 25
 57 145 l 25
 472 379 l 25
 60 589 l 25
EndSplineSet
Validated: 1
EndChar

StartChar: quotesingle
Encoding: 39 39 34
Width: 627
VWidth: 1048
Flags: HMW
TeX: 116 0
LayerCount: 2
Fore
SplineSet
381 723 m 2
 381 610 l 1
 383 504 l 1
 283 504 l 1
 279 555 283 555 281 606 c 1
 287 626 279 641 279 664 c 2
 279 723 l 2
 279 770 312 791 335 791 c 0
 358 791 381 777 381 723 c 2
EndSplineSet
EndChar

StartChar: grave
Encoding: 96 96 35
Width: 627
VWidth: 1048
Flags: HMW
TeX: 105 0
LayerCount: 2
Fore
SplineSet
300 362 m 2
 235 474 l 1
 174 577 l 1
 172 762 l 1
 201 718 202 710 231 663 c 1
 243 631 251 633 264 610 c 2
 298 550 l 2
 325 503 337 420 338 378 c 0
 339 335 331 308 300 362 c 2
EndSplineSet
EndChar

StartChar: slash
Encoding: 47 47 36
Width: 613
Flags: HMW
TeX: 118 0
LayerCount: 2
Fore
SplineSet
86 -15 m 25
 458 788 l 25
 528 753 l 25
 156 -50 l 25
 86 -15 l 25
EndSplineSet
Validated: 1
EndChar

StartChar: backslash
Encoding: 92 92 37
Width: 613
Flags: HMW
TeX: 100 0
LayerCount: 2
Fore
SplineSet
528 -15 m 25
 459 -50 l 25
 86 753 l 25
 157 788 l 25
 528 -15 l 25
EndSplineSet
Validated: 1
EndChar

StartChar: micro
Encoding: 181 181 38
Width: 613
Flags: HMW
TeX: 120 0
LayerCount: 2
Fore
SplineSet
39 -198 m 0
 40 -61 62 89 62 240 c 0
 62 542 l 0
 140 542 l 0
 140 220 l 0
 140 184 142 151 158 118 c 0
 180 75 217 51 255 51 c 0
 298 51 340 81 360 129 c 0
 373 160 376 190 376 227 c 0
 376 542 l 0
 452 542 l 0
 452 137 l 0
 452 119 452 97 462 80 c 0
 470 64 485 56 499 56 c 0
 540 56 564 114 564 114 c 0
 596 53 l 0
 573 18 536 -12 492 -12 c 0
 442 -12 400 29 394 80 c 0
 366 24 310 -13 249 -13 c 0
 192 -13 139 20 114 72 c 0
 114 -18 114 -109 113 -198 c 0
 39 -198 l 0
EndSplineSet
Validated: 1
EndChar

StartChar: braceleft
Encoding: 123 123 39
Width: 613
Flags: HMW
TeX: 100 0
LayerCount: 2
Fore
SplineSet
73 337 m 0
 96 337 l 0
 118 337 149 337 176 364 c 0
 204 394 207 435 207 464 c 0
 207 493 204 520 204 549 c 0
 204 594 210 661 262 709 c 0
 310 753 375 756 432 756 c 0
 441 756 450 756 459 756 c 0
 495 756 l 0
 495 688 l 0
 454 688 l 0
 437 688 421 689 407 689 c 0
 378 689 356 686 334 673 c 0
 288 644 286 587 286 562 c 0
 286 534 290 508 290 479 c 0
 290 451 286 416 270 384 c 0
 253 348 223 319 186 304 c 0
 231 289 287 244 287 120 c 0
 287 83 283 51 283 20 c 0
 283 -21 289 -72 332 -102 c 0
 359 -120 389 -122 427 -122 c 0
 434 -122 442 -122 450 -122 c 0
 494 -122 l 0
 494 -188 l 0
 451 -188 l 0
 439 -188 426 -188 414 -188 c 0
 357 -188 307 -186 265 -153 c 0
 203 -105 199 -24 199 19 c 0
 199 65 204 101 204 138 c 0
 204 189 196 224 172 247 c 0
 147 271 117 270 97 270 c 0
 73 270 l 0
 73 337 l 0
EndSplineSet
Validated: 33
EndChar

StartChar: braceright
Encoding: 125 125 40
Width: 613
Flags: HMW
TeX: 100 0
LayerCount: 2
Fore
SplineSet
542 337 m 0
 542 270 l 0
 517 270 l 0
 497 270 467 271 442 247 c 0
 418 224 411 189 411 138 c 0
 411 101 416 65 416 19 c 0
 416 -24 411 -105 349 -153 c 0
 307 -186 258 -188 201 -188 c 0
 189 -188 176 -188 164 -188 c 0
 121 -188 l 0
 121 -122 l 0
 165 -122 l 0
 173 -122 180 -122 187 -122 c 0
 225 -122 256 -120 283 -102 c 0
 326 -72 332 -21 332 20 c 0
 332 51 328 83 328 120 c 0
 328 244 383 289 428 304 c 0
 391 319 361 348 344 384 c 0
 328 416 325 451 325 479 c 0
 325 508 329 534 329 562 c 0
 329 587 327 644 281 673 c 0
 259 686 237 689 208 689 c 0
 194 689 178 688 161 688 c 0
 120 688 l 0
 120 756 l 0
 156 756 l 0
 165 756 173 756 182 756 c 0
 239 756 304 753 352 709 c 0
 404 661 411 594 411 549 c 0
 411 520 408 493 408 464 c 0
 408 435 410 394 438 364 c 0
 465 337 496 337 518 337 c 0
 542 337 l 0
EndSplineSet
Validated: 33
EndChar

StartChar: asterisk
Encoding: 42 42 41
Width: 613
Flags: HMW
TeX: 99 0
LayerCount: 2
Fore
SplineSet
263 615 m 0
 359 615 l 0
 357 601 354 599 352 584 c 0
 334 406 l 0
 522 492 l 0
 554 419 l 0
 350 357 l 0
 500 178 l 0
 435 127 l 0
 307 324 l 0
 174 126 l 0
 110 178 l 0
 264 356 l 0
 59 419 l 0
 90 496 l 0
 282 406 l 0
 263 615 l 0
EndSplineSet
Validated: 1
EndChar

StartChar: O
Encoding: 79 79 42
Width: 613
Flags: HMW
TeX: 81 0
LayerCount: 2
Fore
SplineSet
569 368 m 0
 569 303 564 211 525 132 c 0
 476 34 392 -11 312 -11 c 0
 199 -11 45 80 45 371 c 0
 45 662 201 748 311 748 c 0
 391 748 476 703 524 608 c 0
 564 529 569 437 569 368 c 0
308 670 m 0
 230 670 127 602 127 382 c 0
 127 148 229 70 312 70 c 0
 362 70 419 98 453 170 c 0
 483 233 486 309 486 357 c 0
 486 420 483 491 458 553 c 0
 424 639 360 670 308 670 c 0
EndSplineSet
Validated: 1
EndChar

StartChar: zero
Encoding: 48 48 43
Width: 613
Flags: HMW
TeX: 125 0
LayerCount: 2
Fore
SplineSet
308 744 m 0
 422 744 544 609 544 357 c 0
 544 103 416 -13 310 -13 c 0
 193 -13 70 125 70 364 c 0
 70 601 191 744 308 744 c 0
424 575 m 1
 392 640 347 672 307 672 c 0
 234 672 147 567 147 378 c 0
 147 326 154 279 164 238 c 1
 424 575 l 1
451 496 m 1
 191 163 l 1
 223 98 269 62 313 62 c 0
 378 62 467 141 467 348 c 0
 467 405 461 454 451 496 c 1
EndSplineSet
Validated: 1
EndChar

StartChar: one
Encoding: 49 49 44
Width: 613
Flags: HMW
TeX: 114 0
LayerCount: 2
Fore
SplineSet
366 740 m 0
 366 -1 l 0
 283 -1 l 0
 283 637 l 0
 134 593 l 0
 115 639 l 0
 308 740 l 0
 366 740 l 0
EndSplineSet
Validated: 1
EndChar

StartChar: two
Encoding: 50 50 45
Width: 613
Flags: HMW
TeX: 119 0
LayerCount: 2
Fore
SplineSet
102 625 m 0
 146 699 225 744 309 744 c 0
 430 744 524 652 524 537 c 0
 524 431 448 355 394 304 c 0
 341 254 255 181 193 73 c 0
 503 73 l 0
 508 73 510 74 515 78 c 0
 517 80 523 86 531 83 c 0
 531 0 l 0
 97 0 l 0
 97 52 l 0
 159 175 228 251 312 327 c 0
 366 375 442 441 442 531 c 0
 442 610 379 671 300 671 c 0
 235 671 190 631 173 604 c 0
 167 594 170 587 163 577 c 0
 102 625 l 0
EndSplineSet
Validated: 1
EndChar

StartChar: N
Encoding: 78 78 46
Width: 613
Flags: HMW
TeX: 80 0
LayerCount: 2
Fore
SplineSet
70 0 m 0
 70 739 l 0
 151 739 l 0
 461 191 l 0
 461 740 l 0
 549 740 l 0
 550 733 546 728 545 725 c 0
 542 720 541 717 541 709 c 0
 541 -1 l 0
 475 -1 l 0
 150 582 l 0
 150 0 l 0
 70 0 l 0
EndSplineSet
Validated: 1
EndChar

StartChar: four
Encoding: 52 52 47
Width: 613
Flags: HMW
TeX: 104 0
LayerCount: 2
Fore
SplineSet
382 740 m 0
 452 740 l 0
 452 278 l 0
 547 278 l 0
 547 204 l 0
 452 204 l 0
 452 0 l 0
 366 0 l 0
 366 205 l 0
 68 205 l 0
 68 266 l 0
 382 740 l 0
367 608 m 0
 150 278 l 0
 367 278 l 0
 367 608 l 0
EndSplineSet
Validated: 1
EndChar

StartChar: eight
Encoding: 56 56 48
Width: 613
Flags: HMW
TeX: 103 0
LayerCount: 2
Fore
SplineSet
317 749 m 0
 425 749 509 671 509 574 c 0
 509 503 463 433 391 395 c 0
 474 357 534 278 534 191 c 0
 534 78 436 -12 306 -12 c 0
 179 -12 82 76 82 186 c 0
 82 271 141 352 229 393 c 0
 162 427 117 493 117 566 c 0
 117 666 204 749 317 749 c 0
292 359 m 0
 222 330 167 267 167 197 c 0
 167 123 230 62 310 62 c 0
 389 62 450 122 450 193 c 0
 450 265 387 329 292 359 c 0
310 679 m 0
 245 679 197 631 197 573 c 0
 197 475 327 425 327 425 c 0
 385 456 428 511 428 568 c 0
 428 630 376 679 310 679 c 0
EndSplineSet
Validated: 1
EndChar

StartChar: five
Encoding: 53 53 49
Width: 613
Flags: HMW
TeX: 104 0
LayerCount: 2
Fore
SplineSet
136 739 m 0
 511 739 l 0
 511 665 l 0
 206 665 l 0
 195 452 l 0
 233 471 274 480 315 480 c 0
 439 480 539 392 539 234 c 0
 539 74 433 -13 305 -13 c 0
 217 -13 135 28 86 100 c 0
 160 156 l 0
 170 149 164 137 169 128 c 0
 173 120 224 59 304 59 c 0
 383 59 454 120 454 234 c 0
 454 352 380 412 302 412 c 0
 252 412 200 387 164 342 c 0
 111 364 l 0
 136 739 l 0
EndSplineSet
Validated: 1
EndChar

StartChar: S
Encoding: 83 83 50
Width: 613
Flags: HMW
TeX: 85 0
LayerCount: 2
Fore
SplineSet
526 651 m 0
 474 581 l 0
 471 582 468 583 468 590 c 0
 468 594 468 597 465 602 c 0
 436 644 384 675 315 675 c 0
 230 675 181 624 181 567 c 0
 181 537 195 492 257 456 c 0
 325 416 430 396 493 335 c 0
 539 291 550 240 550 201 c 0
 550 108 484 -12 304 -12 c 0
 213 -12 130 20 72 83 c 0
 121 168 l 0
 127 165 126 159 126 157 c 0
 126 152 126 149 130 144 c 0
 163 102 225 62 306 62 c 0
 412 62 468 134 468 197 c 0
 468 230 454 269 406 299 c 0
 350 334 243 359 175 410 c 0
 113 456 96 511 96 554 c 0
 96 655 187 743 321 743 c 0
 402 743 476 710 526 651 c 0
EndSplineSet
Validated: 1
EndChar

StartChar: M
Encoding: 77 77 51
Width: 613
Flags: HMW
TeX: 79 0
LayerCount: 2
Fore
SplineSet
58 739 m 0
 124 739 l 0
 307 378 l 0
 494 740 l 0
 556 740 l 0
 556 -1 l 0
 477 -1 l 0
 477 558 l 0
 317 260 l 0
 286 260 l 0
 136 554 l 0
 136 -1 l 0
 58 -1 l 0
 58 739 l 0
EndSplineSet
Validated: 1
EndChar

StartChar: L
Encoding: 76 76 52
Width: 613
Flags: HMW
TeX: 78 0
LayerCount: 2
Fore
SplineSet
89 739 m 0
 185 739 l 0
 186 731 183 724 181 721 c 0
 178 714 175 710 175 699 c 0
 175 71 l 0
 531 71 l 0
 531 -1 l 0
 89 -1 l 0
 89 739 l 0
EndSplineSet
Validated: 1
EndChar

StartChar: ampersand
Encoding: 38 38 53
Width: 613
Flags: HMW
TeX: 80 0
LayerCount: 2
Fore
SplineSet
282 746 m 0
 371 746 440 680 440 589 c 0
 440 511 389 433 312 391 c 0
 445 206 l 0
 473 239 490 273 499 301 c 0
 500 304 500 307 500 310 c 0
 500 315 499 320 499 325 c 0
 499 331 501 334 504 337 c 0
 581 284 l 0
 554 236 523 189 490 145 c 0
 573 38 l 0
 504 -14 l 0
 438 90 l 0
 391 32 318 -12 238 -12 c 0
 132 -12 53 67 53 173 c 0
 53 264 112 357 203 407 c 0
 159 460 119 526 119 591 c 0
 119 680 192 746 282 746 c 0
201 589 m 0
 201 558 213 516 272 442 c 0
 327 472 362 529 362 583 c 0
 362 639 324 676 280 676 c 0
 238 676 201 641 201 589 c 0
244 351 m 0
 181 310 143 243 143 182 c 0
 143 113 190 63 251 63 c 0
 330 63 395 146 395 146 c 0
 244 351 l 0
EndSplineSet
Validated: 1
EndChar

StartChar: F
Encoding: 70 70 54
Width: 613
Flags: HMW
TeX: 80 0
LayerCount: 2
Fore
SplineSet
102 740 m 0
 528 740 l 0
 528 668 l 0
 186 668 l 0
 186 435 l 0
 463 435 l 0
 463 364 l 0
 186 364 l 0
 186 0 l 0
 102 0 l 0
 102 740 l 0
EndSplineSet
Validated: 1
EndChar

StartChar: w
Encoding: 119 119 55
Width: 613
Flags: HMW
TeX: 122 0
LayerCount: 2
Fore
SplineSet
29 543 m 0
 116 543 l 0
 119 534 116 525 114 519 c 0
 111 510 111 506 113 498 c 0
 191 106 l 0
 285 492 l 0
 337 492 l 0
 452 108 l 0
 494 382 502 459 502 519 c 0
 502 527 502 535 502 542 c 0
 581 542 l 0
 557 360 527 179 490 -1 c 0
 411 -1 l 0
 310 350 l 0
 215 -1 l 0
 138 -1 l 0
 29 543 l 0
EndSplineSet
Validated: 1
EndChar

StartChar: quotedbl
Encoding: 34 34 58
Width: 627
VWidth: 1048
Flags: HMW
TeX: 116 0
LayerCount: 2
Fore
SplineSet
467 723 m 2
 467 610 l 1
 469 504 l 1
 386 504 l 1
 383 555 387 555 385 606 c 1
 390 626 383 641 383 664 c 2
 383 723 l 2
 383 770 411 791 430 791 c 0
 449 791 467 777 467 723 c 2
260 723 m 2
 260 610 l 1
 262 504 l 1
 179 504 l 1
 176 555 180 555 178 606 c 1
 183 626 176 641 176 664 c 2
 176 723 l 2
 176 770 204 791 223 791 c 0
 242 791 260 777 260 723 c 2
EndSplineSet
EndChar

StartChar: T
Encoding: 84 84 59
Width: 613
Flags: HMW
TeX: 86 0
LayerCount: 2
Fore
SplineSet
47 740 m 0
 559 740 l 0
 559 666 l 0
 341 666 l 0
 341 -1 l 0
 257 -1 l 0
 257 666 l 0
 47 666 l 0
 47 740 l 0
EndSplineSet
Validated: 1
EndChar

StartChar: hyphen
Encoding: 45 45 60
Width: 613
Flags: HMW
TeX: 106 0
LayerCount: 2
Fore
SplineSet
94 413 m 0
 521 413 l 0
 521 334 l 0
 94 334 l 0
 94 413 l 0
EndSplineSet
Validated: 1
EndChar

StartChar: exclam
Encoding: 33 33 61
Width: 613
Flags: HMW
TeX: 103 0
LayerCount: 2
Fore
SplineSet
365 57 m 0
 365 18 333 -13 294 -13 c 0
 255 -13 224 18 224 57 c 0
 224 96 255 127 294 127 c 0
 333 127 365 96 365 57 c 0
296 793 m 0
 318 793 344 778 353 742 c 0
 355 735 357 722 357 694 c 0
 357 649 349 603 346 558 c 0
 325 230 l 0
 265 230 l 0
 248 558 l 0
 244 636 236 665 236 703 c 0
 236 725 239 742 244 755 c 0
 255 781 274 793 296 793 c 0
EndSplineSet
Validated: 1
EndChar

StartChar: U
Encoding: 85 85 63
Width: 613
Flags: HMW
TeX: 87 0
LayerCount: 2
Fore
SplineSet
70 739 m 0
 163 739 l 0
 164 737 164 735 164 733 c 0
 164 726 159 721 156 717 c 0
 152 711 152 706 152 701 c 0
 152 254 l 0
 152 217 152 181 169 145 c 0
 196 88 251 57 310 57 c 0
 368 57 424 87 451 144 c 0
 469 182 470 219 470 257 c 0
 470 739 l 0
 549 739 l 0
 549 259 l 0
 549 205 547 154 519 102 c 0
 477 24 394 -13 309 -13 c 0
 222 -13 139 26 98 102 c 0
 71 153 70 203 70 255 c 0
 70 739 l 0
EndSplineSet
Validated: 1
EndChar

StartChar: numbersign
Encoding: 35 35 64
Width: 613
Flags: HMW
TeX: 113 0
LayerCount: 2
Fore
SplineSet
216 740 m 5
 288 743 l 5
 263 540 l 5
 394 542 l 5
 417 734 l 5
 490 737 l 5
 467 542 l 5
 574 544 l 5
 568 486 l 5
 460 485 l 5
 435 286 l 5
 553 288 l 5
 547 232 l 5
 429 231 l 5
 402 16 l 5
 331 12 l 5
 357 229 l 5
 225 227 l 5
 200 16 l 5
 130 13 l 5
 155 226 l 5
 40 224 l 5
 45 279 l 5
 162 281 l 5
 186 483 l 5
 56 481 l 5
 60 538 l 5
 193 539 l 5
 216 740 l 5
256 483 m 5
 232 282 l 5
 362 284 l 5
 387 485 l 5
 256 483 l 5
EndSplineSet
Validated: 1
EndChar

StartChar: j
Encoding: 106 106 65
Width: 613
Flags: HMW
TeX: 109 0
LayerCount: 2
Fore
SplineSet
160 543 m 4
 447 543 l 4
 447 38 l 4
 447 -9 446 -54 423 -99 c 4
 386 -171 310 -207 233 -207 c 4
 166 -207 107 -179 68 -131 c 4
 123 -57 l 4
 130 -63 128 -71 133 -79 c 4
 137 -86 173 -133 239 -133 c 4
 285 -133 328 -109 348 -65 c 4
 361 -36 361 -7 361 22 c 4
 361 472 l 4
 160 472 l 4
 160 543 l 4
406 778 m 4
 440 778 467 751 467 717 c 4
 467 683 440 656 406 656 c 4
 372 656 344 683 344 717 c 4
 344 751 372 778 406 778 c 4
EndSplineSet
Validated: 1
EndChar

StartChar: x
Encoding: 120 120 66
Width: 613
Flags: HMW
TeX: 123 0
LayerCount: 2
Fore
SplineSet
440 543 m 5
 527 543 l 5
 352 279 l 5
 551 0 l 5
 454 0 l 5
 304 211 l 5
 163 0 l 5
 67 0 l 5
 257 276 l 5
 70 543 l 5
 163 543 l 5
 305 342 l 5
 440 543 l 5
EndSplineSet
Validated: 1
EndChar

StartChar: G
Encoding: 71 71 67
Width: 613
Flags: HMW
TeX: 73 0
LayerCount: 2
Fore
SplineSet
339 746 m 0
 430 746 512 700 554 623 c 0
 496 563 l 0
 487 569 484 579 480 587 c 0
 457 637 405 674 339 674 c 0
 277 674 210 640 172 568 c 0
 143 514 135 447 135 378 c 0
 135 300 144 196 206 126 c 0
 246 80 298 61 346 61 c 0
 390 61 438 76 479 106 c 0
 479 283 l 0
 345 283 l 0
 345 354 l 0
 556 354 l 0
 556 66 l 0
 486 15 407 -11 339 -11 c 0
 210 -11 53 81 53 361 c 0
 53 685 241 746 339 746 c 0
EndSplineSet
Validated: 1
EndChar

StartChar: k
Encoding: 107 107 68
Width: 613
Flags: HMW
TeX: 110 0
LayerCount: 2
Fore
SplineSet
89 788 m 0
 186 788 l 0
 187 780 183 775 180 771 c 0
 176 766 175 763 175 758 c 0
 175 293 l 0
 446 545 l 0
 468 540 488 539 510 539 c 0
 541 539 l 0
 312 324 l 0
 579 -1 l 0
 576 -1 573 -1 570 -1 c 0
 513 -1 468 -5 468 -5 c 0
 247 271 l 0
 175 205 l 0
 175 -1 l 0
 89 -1 l 0
 89 788 l 0
EndSplineSet
Validated: 1
EndChar

StartChar: z
Encoding: 122 122 69
Width: 613
Flags: HMW
TeX: 125 0
LayerCount: 2
Fore
SplineSet
94 543 m 0
 516 543 l 0
 516 484 l 0
 185 73 l 0
 508 73 l 0
 523 73 529 80 540 80 c 0
 541 80 543 80 544 80 c 0
 544 -1 l 0
 70 -1 l 0
 70 57 l 0
 406 468 l 0
 94 468 l 0
 94 543 l 0
EndSplineSet
Validated: 1
EndChar

StartChar: dollar
Encoding: 36 36 70
Width: 613
Flags: HMW
TeX: 102 0
LayerCount: 2
Fore
SplineSet
289 772 m 1
 366 772 l 1
 367 771 366 769 366 768 c 0
 366 759 358 759 358 748 c 2
 358 702 l 1
 428 695 491 663 535 611 c 1
 483 547 l 1
 480 548 477 550 477 555 c 0
 477 558 478 561 476 565 c 0
 475 566 475 568 471 572 c 0
 446 602 409 624 358 632 c 1
 358 403 l 1
 385 394 412 386 437 375 c 0
 462 364 556 323 556 215 c 0
 556 130 492 37 358 19 c 1
 358 -55 l 1
 289 -55 l 1
 289 17 l 1
 207 22 134 55 81 112 c 1
 132 182 l 1
 138 179 137 172 137 171 c 0
 137 166 136 163 141 158 c 0
 174 123 227 92 289 85 c 1
 289 346 l 1
 267 353 246 362 224 372 c 0
 124 419 104 486 104 529 c 0
 104 614 180 687 289 701 c 1
 289 772 l 1
358 324 m 1
 358 88 l 1
 434 103 478 156 478 210 c 0
 478 234 469 274 419 301 c 0
 403 310 382 317 358 324 c 1
289 428 m 1
 289 633 l 1
 214 624 183 580 183 539 c 0
 183 513 195 479 247 449 c 0
 259 442 274 434 289 428 c 1
EndSplineSet
Validated: 1
EndChar

StartChar: A
Encoding: 65 65 71
Width: 613
Flags: HMW
TeX: 67 0
LayerCount: 2
Fore
SplineSet
28 -1 m 0
 289 753 l 0
 298 753 l 0
 584 0 l 0
 498 0 l 0
 416 216 l 0
 181 216 l 0
 110 -1 l 0
 28 -1 l 0
397 281 m 0
 293 562 l 0
 198 281 l 0
 397 281 l 0
EndSplineSet
Validated: 1
EndChar

StartChar: C
Encoding: 67 67 72
Width: 613
Flags: HMW
TeX: 69 0
LayerCount: 2
Fore
SplineSet
340 745 m 0
 438 745 526 688 566 599 c 0
 487 560 l 0
 482 564 482 571 482 572 c 0
 482 575 483 578 483 581 c 0
 483 587 480 589 478 593 c 0
 448 645 395 679 337 679 c 0
 232 679 139 569 139 373 c 0
 139 173 235 59 344 59 c 0
 402 59 461 94 495 150 c 0
 556 110 l 0
 510 34 427 -12 339 -12 c 0
 217 -12 58 79 58 365 c 0
 58 661 225 745 340 745 c 0
EndSplineSet
Validated: 1
EndChar

StartChar: B
Encoding: 66 66 73
Width: 613
Flags: HMW
TeX: 68 0
LayerCount: 2
Fore
SplineSet
68 739 m 0
 278 739 l 0
 323 739 370 739 416 719 c 0
 485 689 523 625 523 559 c 0
 523 488 480 423 414 396 c 0
 497 368 552 291 552 205 c 0
 552 129 509 56 429 22 c 0
 378 0 326 0 276 0 c 0
 68 0 l 0
 68 739 l 0
150 669 m 0
 150 433 l 0
 265 433 l 0
 298 433 334 434 368 449 c 0
 415 469 439 509 439 551 c 0
 439 594 413 635 364 655 c 0
 331 668 298 669 266 669 c 0
 150 669 l 0
150 364 m 0
 150 73 l 0
 291 73 l 0
 323 73 354 74 386 88 c 0
 437 111 465 160 465 213 c 0
 465 266 436 319 381 345 c 0
 344 363 307 364 270 364 c 0
 150 364 l 0
EndSplineSet
Validated: 1
EndChar

StartChar: bracketleft
Encoding: 91 91 74
Width: 613
Flags: HMW
TeX: 100 0
LayerCount: 2
Fore
SplineSet
166 795 m 0
 505 795 l 0
 505 724 l 0
 242 724 l 0
 242 -38 l 0
 506 -38 l 0
 506 -105 l 0
 166 -105 l 0
 166 795 l 0
EndSplineSet
Validated: 1
EndChar

StartChar: bracketright
Encoding: 93 93 75
Width: 613
Flags: HMW
TeX: 100 0
LayerCount: 2
Fore
SplineSet
449 795 m 0
 449 -105 l 0
 109 -105 l 0
 109 -38 l 0
 373 -38 l 0
 373 724 l 0
 110 724 l 0
 110 795 l 0
 449 795 l 0
EndSplineSet
Validated: 1
EndChar

StartChar: parenleft
Encoding: 40 40 76
Width: 613
Flags: HMW
TeX: 115 0
LayerCount: 2
Fore
SplineSet
475 791 m 4
 511 718 l 4
 507 716 503 715 501 715 c 4
 496 715 493 717 489 717 c 4
 484 717 481 715 478 713 c 4
 339 631 257 480 257 311 c 4
 257 127 353 -48 515 -142 c 4
 476 -205 l 4
 288 -106 175 91 175 307 c 4
 175 524 291 710 475 791 c 4
EndSplineSet
Validated: 1
EndChar

StartChar: parenright
Encoding: 41 41 77
Width: 613
Flags: HMW
TeX: 115 0
LayerCount: 2
Fore
SplineSet
102 716 m 0
 125 790 l 0
 318 701 442 508 442 297 c 0
 442 84 316 -113 119 -207 c 0
 96 -135 l 0
 256 -50 358 115 358 294 c 0
 358 470 259 633 102 716 c 0
EndSplineSet
Validated: 1
EndChar

StartChar: three
Encoding: 51 51 78
Width: 613
Flags: HMW
TeX: 119 0
LayerCount: 2
Fore
SplineSet
498 554 m 0
 498 482 453 419 387 394 c 0
 464 366 514 291 514 203 c 0
 514 88 428 -12 286 -12 c 0
 212 -12 142 17 92 72 c 0
 155 146 l 0
 166 135 160 124 170 113 c 0
 175 107 217 63 286 63 c 0
 373 63 434 132 434 213 c 0
 434 301 361 354 261 354 c 0
 248 354 235 353 223 351 c 0
 223 418 l 0
 293 418 327 431 340 437 c 0
 391 459 419 508 419 553 c 0
 419 615 366 668 290 668 c 0
 244 668 197 648 163 611 c 0
 117 663 l 0
 163 714 227 742 294 742 c 0
 411 742 498 655 498 554 c 0
EndSplineSet
Validated: 1
EndChar

StartChar: D
Encoding: 68 68 79
Width: 613
Flags: HMW
TeX: 70 0
LayerCount: 2
Fore
SplineSet
74 739 m 0
 247 739 l 0
 312 739 365 735 419 700 c 0
 514 638 556 513 556 371 c 0
 556 209 498 83 392 29 c 0
 340 2 291 -1 232 -1 c 0
 74 -1 l 0
 74 739 l 0
153 669 m 0
 153 65 l 0
 228 65 l 0
 274 65 321 67 367 98 c 0
 426 138 472 219 472 360 c 0
 472 466 450 571 381 628 c 0
 335 666 289 669 242 669 c 0
 153 669 l 0
EndSplineSet
Validated: 1
EndChar

StartChar: E
Encoding: 69 69 80
Width: 613
Flags: HMW
TeX: 71 0
LayerCount: 2
Fore
SplineSet
80 740 m 0
 534 740 l 0
 534 667 l 0
 159 667 l 0
 159 424 l 0
 468 424 l 0
 468 348 l 0
 159 348 l 0
 159 74 l 0
 530 74 l 0
 530 0 l 0
 80 0 l 0
 80 740 l 0
EndSplineSet
Validated: 1
EndChar

StartChar: V
Encoding: 86 86 81
Width: 613
Flags: HMW
TeX: 88 0
LayerCount: 2
Fore
SplineSet
40 740 m 0
 127 740 l 0
 316 172 l 0
 496 739 l 0
 578 739 l 0
 330 -5 l 0
 292 -5 l 0
 40 740 l 0
EndSplineSet
Validated: 1
EndChar

StartChar: percent
Encoding: 37 37 82
Width: 613
Flags: HMW
TeX: 115 0
LayerCount: 2
Fore
SplineSet
474 739 m 0
 554 739 l 0
 140 0 l 0
 65 0 l 0
 474 739 l 0
176 753 m 0
 248 753 309 686 309 596 c 0
 309 508 249 442 177 442 c 0
 104 442 44 508 44 597 c 0
 44 688 105 753 176 753 c 0
174 690 m 0
 151 690 116 672 116 602 c 0
 116 522 154 506 176 506 c 0
 200 506 234 524 234 593 c 0
 234 677 193 690 174 690 c 0
583 142 m 0
 583 53 522 -12 450 -12 c 0
 378 -12 317 54 317 142 c 0
 317 231 378 296 450 296 c 0
 522 296 583 230 583 142 c 0
450 234 m 0
 425 234 388 214 388 142 c 0
 388 72 423 48 451 48 c 0
 476 48 512 68 512 139 c 0
 512 215 474 234 450 234 c 0
EndSplineSet
Validated: 1
EndChar

StartChar: J
Encoding: 74 74 83
Width: 613
Flags: HMW
TeX: 76 0
LayerCount: 2
Fore
SplineSet
214 739 m 0
 552 739 l 0
 552 670 l 0
 438 670 l 0
 438 248 l 0
 438 195 439 138 410 85 c 0
 375 22 312 -13 241 -13 c 0
 176 -13 113 17 69 69 c 0
 124 136 l 0
 131 130 126 122 131 115 c 0
 134 112 181 60 243 60 c 0
 278 60 311 78 330 108 c 0
 356 146 356 193 356 237 c 0
 356 247 l 0
 356 670 l 0
 214 670 l 0
 214 739 l 0
EndSplineSet
Validated: 33
EndChar

StartChar: K
Encoding: 75 75 84
Width: 613
Flags: HMW
TeX: 77 0
LayerCount: 2
Fore
SplineSet
60 740 m 0
 160 740 l 0
 161 732 156 727 153 723 c 0
 149 718 148 715 148 710 c 0
 148 398 l 0
 458 745 l 0
 478 740 499 739 519 739 c 0
 550 739 l 0
 270 420 l 0
 569 -1 l 0
 511 -1 464 -5 464 -5 c 0
 207 370 l 0
 148 306 l 0
 148 0 l 0
 60 0 l 0
 60 740 l 0
EndSplineSet
Validated: 1
EndChar

StartChar: P
Encoding: 80 80 85
Width: 613
Flags: HMW
TeX: 82 0
LayerCount: 2
Fore
SplineSet
166 662 m 1
 165 399 l 1
 314 399 l 2
 343 399 371 401 400 415 c 0
 443 437 466 480 466 527 c 0
 466 575 442 622 396 645 c 0
 365 660 336 662 305 662 c 2
 166 662 l 1
80 739 m 1
 305 739 l 2
 353 739 398 739 445 714 c 0
 515 678 551 606 551 531 c 0
 551 456 515 385 446 350 c 0
 401 327 357 327 311 327 c 2
 166 327 l 1
 166 0 l 1
 80 0 l 1
 80 739 l 1
EndSplineSet
Validated: 1
EndChar

StartChar: question
Encoding: 63 63 86
Width: 613
Flags: HMW
TeX: 116 0
LayerCount: 2
Fore
SplineSet
390 53 m 0
 390 16 358 -15 319 -15 c 0
 280 -15 250 16 250 53 c 0
 250 90 280 121 319 121 c 0
 358 121 390 90 390 53 c 0
86 666 m 0
 138 746 226 790 315 790 c 0
 449 790 526 691 526 580 c 0
 526 469 447 424 408 389 c 0
 359 346 356 310 356 268 c 0
 356 219 l 0
 279 219 l 0
 279 268 l 0
 279 321 282 363 334 421 c 0
 370 460 432 508 432 586 c 0
 432 656 378 712 307 712 c 0
 247 712 183 672 146 609 c 0
 86 666 l 0
EndSplineSet
Validated: 1
EndChar

StartChar: at
Encoding: 64 64 87
Width: 613
Flags: HMW
TeX: 99 0
LayerCount: 2
Fore
SplineSet
526 36 m 0
 476 4 418 -13 360 -13 c 0
 212 -13 47 98 47 373 c 0
 47 642 203 751 332 751 c 0
 418 751 498 704 536 620 c 0
 562 563 562 505 562 449 c 0
 562 208 l 0
 490 208 l 0
 490 253 l 0
 460 218 418 198 372 198 c 0
 287 198 218 266 218 352 c 0
 218 415 257 479 331 509 c 0
 378 527 425 527 470 527 c 0
 487 527 l 0
 487 615 418 687 329 687 c 0
 227 687 116 590 116 376 c 0
 116 145 252 54 367 54 c 0
 413 54 457 67 495 93 c 0
 526 36 l 0
490 468 m 0
 471 468 l 0
 429 468 379 468 339 440 c 0
 307 417 292 386 292 355 c 0
 292 304 334 263 386 263 c 0
 420 263 455 281 473 317 c 0
 489 350 490 389 490 431 c 0
 490 436 490 440 490 445 c 0
 490 468 l 0
EndSplineSet
Validated: 1
EndChar

StartChar: bar
Encoding: 124 124 88
Width: 613
Flags: HMW
TeX: 100 0
LayerCount: 2
Fore
SplineSet
267 774 m 0
 347 774 l 0
 347 -179 l 0
 267 -179 l 0
 267 774 l 0
EndSplineSet
Validated: 1
EndChar

StartChar: asciitilde
Encoding: 126 126 89
Width: 613
Flags: HMW
TeX: 99 0
LayerCount: 2
Fore
SplineSet
119 406 m 4
 59 444 l 4
 94 503 155 551 222 551 c 4
 320 551 351 462 419 462 c 4
 458 462 486 493 520 539 c 4
 574 494 l 4
 543 447 485 384 410 384 c 4
 314 384 289 479 217 479 c 4
 183 479 149 455 119 406 c 4
EndSplineSet
Validated: 1
EndChar

StartChar: asciicircum
Encoding: 94 94 90
Width: 613
Flags: HMW
TeX: 99 0
LayerCount: 2
Fore
SplineSet
121 435 m 0
 302 739 l 0
 328 739 l 0
 488 436 l 0
 425 407 l 0
 310 614 l 0
 180 407 l 0
 121 435 l 0
EndSplineSet
Validated: 1
EndChar

StartChar: cent
Encoding: 162 162 91
Width: 613
Flags: HMW
TeX: 101 0
LayerCount: 2
Fore
SplineSet
348 740 m 1
 428 732 l 1
 429 724 425 719 424 716 c 0
 421 711 419 707 418 699 c 2
 406 602 l 1
 469 589 517 554 546 510 c 1
 494 442 l 1
 488 446 488 452 488 454 c 0
 488 461 490 466 484 473 c 0
 469 491 438 517 395 530 c 1
 341 115 l 1
 341 115 l 2
 398 115 456 139 497 181 c 1
 540 124 l 1
 489 68 417 39 340 39 c 0
 337 39 334 39 331 39 c 1
 313 -93 l 1
 245 -85 l 1
 262 49 l 1
 145 81 68 186 68 323 c 0
 68 482 172 599 331 607 c 1
 348 740 l 1
271 128 m 1
 323 538 l 1
 225 532 152 458 152 334 c 0
 152 231 199 157 271 128 c 1
EndSplineSet
Validated: 5
EndChar

StartChar: euro
Encoding: 8364 8364 92
Width: 613
Flags: HMW
TeX: 80 0
LayerCount: 2
Fore
SplineSet
561 681 m 5
 531 600 l 5
 523 607 527 616 521 624 c 4
 520 625 476 677 396 677 c 4
 325 677 239 635 204 514 c 4
 202 508 200 501 198 492 c 5
 492 492 l 5
 466 423 l 5
 189 423 l 5
 187 403 186 380 186 353 c 4
 186 344 186 336 186 328 c 5
 430 328 l 5
 403 259 l 5
 193 259 l 5
 201 211 217 171 241 138 c 4
 283 81 343 58 398 58 c 4
 445 58 490 75 525 106 c 5
 559 47 l 5
 514 7 455 -13 393 -13 c 4
 297 -13 149 39 118 259 c 5
 49 259 l 5
 65 328 l 5
 112 328 l 5
 112 334 112 341 112 347 c 4
 112 373 113 398 115 423 c 5
 49 423 l 5
 65 492 l 5
 125 492 l 5
 134 534 147 573 167 608 c 4
 228 714 327 745 401 745 c 4
 464 745 520 723 561 681 c 5
EndSplineSet
Validated: 1
EndChar

StartChar: sterling
Encoding: 163 163 93
Width: 613
Flags: HMW
TeX: 118 0
LayerCount: 2
Fore
SplineSet
506 679 m 1
 454 613 l 1
 444 620 445 630 438 638 c 0
 433 644 400 672 350 672 c 0
 287 672 223 624 223 525 c 0
 223 500 227 475 233 449 c 1
 350 449 l 1
 350 381 l 1
 249 381 l 1
 258 344 265 306 265 265 c 0
 265 206 249 152 221 106 c 1
 231 108 242 109 253 109 c 0
 332 109 381 60 449 60 c 0
 482 60 513 71 537 93 c 1
 568 32 l 1
 541 10 497 -18 445 -18 c 0
 369 -18 319 35 233 35 c 0
 209 35 163 31 87 -9 c 1
 56 58 l 1
 111 84 126 90 145 119 c 0
 171 160 186 210 186 263 c 0
 186 304 177 343 168 381 c 1
 90 381 l 1
 90 449 l 1
 152 449 l 1
 147 474 143 498 143 524 c 0
 143 657 242 739 352 739 c 0
 409 739 463 718 506 679 c 1
EndSplineSet
Validated: 1
EndChar

StartChar: Y
Encoding: 89 89 94
Width: 613
Flags: HMW
TeX: 91 0
LayerCount: 2
Fore
SplineSet
44 740 m 0
 138 740 l 0
 319 381 l 0
 483 739 l 0
 571 739 l 0
 361 292 l 0
 361 0 l 0
 271 0 l 0
 271 292 l 0
 44 740 l 0
EndSplineSet
Validated: 1
EndChar

StartChar: yen
Encoding: 165 165 95
Width: 613
Flags: HMW
TeX: 124 0
LayerCount: 2
Fore
SplineSet
53 740 m 1
 145 740 l 1
 317 431 l 1
 475 739 l 1
 563 739 l 1
 356 350 l 1
 356 326 l 1
 516 326 l 1
 516 258 l 1
 356 258 l 1
 356 183 l 1
 516 183 l 1
 516 117 l 1
 356 117 l 1
 356 0 l 1
 275 0 l 1
 275 117 l 1
 110 117 l 1
 110 183 l 1
 275 183 l 1
 275 258 l 1
 110 258 l 1
 110 326 l 1
 275 326 l 1
 275 350 l 1
 53 740 l 1
EndSplineSet
Validated: 1
EndChar

StartChar: Z
Encoding: 90 90 96
Width: 613
Flags: HMW
TeX: 92 0
LayerCount: 2
Fore
SplineSet
84 739 m 0
 541 739 l 0
 540 681 l 0
 174 73 l 0
 523 73 l 0
 537 73 544 80 555 80 c 0
 556 80 558 80 559 80 c 0
 559 -1 l 0
 70 -1 l 0
 70 57 l 0
 442 665 l 0
 84 665 l 0
 84 739 l 0
EndSplineSet
Validated: 1
EndChar

StartChar: Q
Encoding: 81 81 97
Width: 613
Flags: HMW
TeX: 83 0
LayerCount: 2
Fore
SplineSet
307 672 m 0
 227 672 126 600 126 383 c 0
 126 149 226 66 312 66 c 0
 374 66 489 110 489 356 c 0
 489 418 486 491 460 554 c 0
 424 641 359 672 307 672 c 0
569 367 m 0
 569 301 564 210 525 131 c 0
 484 49 419 4 351 -8 c 1
 352 -49 363 -97 438 -97 c 0
 465 -97 497 -93 535 -91 c 1
 532 -172 l 1
 524 -172 517 -172 509 -172 c 0
 494 -172 479 -172 465 -172 c 0
 417 -172 382 -170 349 -154 c 0
 297 -128 279 -79 279 -13 c 0
 279 -11 279 -10 279 -8 c 1
 171 8 45 108 45 371 c 0
 45 662 200 748 311 748 c 0
 392 748 477 702 525 606 c 0
 564 527 569 437 569 367 c 0
EndSplineSet
Validated: 1
EndChar

StartChar: thorn
Encoding: 254 254 98
Width: 613
Flags: HMW
TeX: 119 0
LayerCount: 2
Fore
SplineSet
82 788 m 0
 176 788 l 0
 176 786 l 0
 176 772 168 768 168 750 c 0
 168 459 l 0
 205 518 269 554 339 554 c 0
 445 554 559 469 559 278 c 0
 559 79 443 -14 332 -14 c 0
 266 -14 205 19 169 72 c 0
 169 -198 l 0
 82 -198 l 0
 82 788 l 0
308 481 m 0
 253 481 202 451 182 402 c 0
 170 374 168 342 168 296 c 0
 168 217 168 173 183 136 c 0
 205 87 256 61 307 61 c 0
 358 61 470 89 470 259 c 0
 470 457 355 481 308 481 c 0
EndSplineSet
Validated: 1
EndChar

StartChar: plusminus
Encoding: 177 177 100
Width: 613
Flags: HMW
TeX: 115 0
LayerCount: 2
Fore
SplineSet
65 95 m 4
 553 95 l 4
 553 20 l 4
 65 20 l 4
 65 95 l 4
EndSplineSet
Refer: 28 43 N 1 0 0 1 0 61 2
Validated: 1
EndChar

StartChar: R
Encoding: 82 82 101
Width: 613
Flags: HMW
TeX: 84 0
LayerCount: 2
Fore
SplineSet
77 739 m 0
 295 739 l 0
 343 739 389 738 436 714 c 0
 504 679 541 611 541 537 c 0
 541 439 480 354 390 330 c 0
 561 0 l 0
 468 0 l 0
 304 327 l 0
 161 327 l 0
 161 0 l 0
 77 0 l 0
 77 739 l 0
161 662 m 0
 161 399 l 0
 304 399 l 0
 333 399 361 400 390 414 c 0
 433 436 456 480 456 527 c 0
 456 575 432 623 386 646 c 0
 356 661 326 662 295 662 c 0
 161 662 l 0
EndSplineSet
Validated: 1
EndChar

StartChar: X
Encoding: 88 88 102
Width: 613
Flags: HMW
TeX: 90 0
LayerCount: 2
Fore
SplineSet
460 740 m 1
 543 740 l 1
 356 379 l 1
 565 0 l 1
 472 0 l 1
 308 293 l 1
 150 0 l 1
 58 0 l 1
 261 377 l 1
 62 740 l 1
 152 740 l 1
 307 459 l 1
 460 740 l 1
EndSplineSet
Validated: 1
EndChar

StartChar: six
Encoding: 54 54 103
Width: 613
Flags: HMW
TeX: 118 0
LayerCount: 2
Fore
SplineSet
351 748 m 0
 410 748 470 723 513 680 c 0
 456 616 l 0
 445 624 445 636 438 643 c 0
 433 648 400 674 351 674 c 0
 298 674 176 641 172 388 c 0
 205 443 264 477 329 477 c 0
 433 477 531 390 531 236 c 0
 531 83 434 -12 321 -12 c 0
 255 -12 188 20 145 86 c 0
 98 158 90 250 90 337 c 0
 90 408 96 493 122 564 c 0
 167 693 263 748 351 748 c 0
321 404 m 0
 267 404 210 365 176 305 c 0
 175 296 175 287 175 278 c 0
 175 154 240 61 324 61 c 0
 387 61 451 115 451 230 c 0
 451 358 380 404 321 404 c 0
EndSplineSet
Validated: 1
EndChar

StartChar: nine
Encoding: 57 57 104
Width: 613
Flags: HMW
TeX: 113 0
LayerCount: 2
Fore
SplineSet
268 -12 m 0
 207 -12 148 12 104 55 c 0
 162 119 l 0
 174 111 171 98 181 90 c 0
 181 90 217 63 270 63 c 0
 323 63 385 90 417 165 c 0
 424 183 443 233 446 348 c 0
 411 298 355 268 294 268 c 0
 186 268 91 360 91 502 c 0
 91 645 187 746 303 746 c 0
 380 746 465 700 504 586 c 0
 521 536 529 472 529 379 c 0
 529 258 510 194 498 160 c 0
 453 42 358 -12 268 -12 c 0
302 341 m 0
 355 341 409 376 442 431 c 0
 443 443 444 456 444 467 c 0
 444 595 378 673 301 673 c 0
 233 673 172 613 172 505 c 0
 172 395 236 341 302 341 c 0
EndSplineSet
Validated: 1
EndChar

StartChar: seven
Encoding: 55 55 105
Width: 613
Flags: HMW
TeX: 118 0
LayerCount: 2
Fore
SplineSet
103 739 m 0
 522 739 l 0
 522 693 l 0
 472 579 425 463 382 346 c 0
 340 232 300 116 264 0 c 0
 171 0 l 0
 215 133 262 264 312 395 c 0
 346 484 383 572 420 660 c 0
 103 660 l 0
 103 739 l 0
EndSplineSet
Validated: 1
EndChar

StartChar: W
Encoding: 87 87 106
Width: 613
Flags: HMW
TeX: 89 0
LayerCount: 2
Fore
SplineSet
31 739 m 0
 108 739 l 0
 187 240 l 0
 306 685 l 0
 332 685 l 0
 452 238 l 0
 519 739 l 0
 589 739 l 0
 472 -5 l 0
 439 -5 l 0
 312 483 l 0
 183 -5 l 0
 150 -5 l 0
 31 739 l 0
EndSplineSet
Validated: 1
EndChar

StartChar: acute
Encoding: 180 180 107
Width: 613
Flags: HMW
TeX: 80 0
LayerCount: 2
Fore
SplineSet
356 829 m 4
 431 779 l 4
 311 620 l 4
 252 655 l 4
 356 829 l 4
EndSplineSet
Validated: 1
EndChar

StartChar: oslash
Encoding: 248 248 123
Width: 613
Flags: HMW
TeX: 114 0
LayerCount: 2
Fore
SplineSet
309 481 m 0
 226 481 148 407 148 274 c 0
 148 215 164 166 188 130 c 1
 371 467 l 1
 351 477 331 481 309 481 c 0
556 269 m 0
 556 89 440 -14 312 -14 c 0
 273 -14 236 -5 203 12 c 1
 155 -76 l 1
 93 -44 l 1
 146 53 l 1
 93 103 58 178 58 267 c 0
 58 434 177 554 315 554 c 0
 347 554 379 547 408 534 c 1
 452 615 l 1
 515 582 l 1
 468 495 l 1
 521 447 556 372 556 269 c 0
426 420 m 1
 240 80 l 1
 262 66 287 59 313 59 c 0
 392 59 470 129 470 265 c 0
 470 333 452 385 426 420 c 1
EndSplineSet
Validated: 1
EndChar

StartChar: uni02CB
Encoding: 715 715 130
Width: 613
Flags: HMW
TeX: 80 0
LayerCount: 2
Fore
SplineSet
299 829 m 4
 403 655 l 4
 344 620 l 4
 224 779 l 4
 299 829 l 4
EndSplineSet
Validated: 1
EndChar

StartChar: dotlessi
Encoding: 305 305 136
Width: 613
Flags: HMW
TeX: 80 0
LayerCount: 2
Fore
SplineSet
136 543 m 0
 353 543 l 0
 353 69 l 0
 480 69 l 0
 480 0 l 0
 129 0 l 0
 129 69 l 0
 267 69 l 0
 267 473 l 0
 136 473 l 0
 136 543 l 0
EndSplineSet
Validated: 1
EndChar

StartChar: circumflex
Encoding: 710 710 137
Width: 613
Flags: HMW
TeX: 80 0
LayerCount: 2
Fore
SplineSet
169 646 m 0
 301 813 l 0
 327 813 l 0
 458 645 l 0
 402 604 l 0
 310 726 l 0
 214 605 l 0
 169 646 l 0
EndSplineSet
Validated: 1
EndChar

StartChar: tilde
Encoding: 732 732 138
Width: 613
Flags: HMW
TeX: 80 0
LayerCount: 2
Fore
SplineSet
171 662 m 0
 118 699 l 0
 162 768 206 802 252 802 c 0
 300 802 332 767 347 751 c 0
 366 731 384 714 406 714 c 0
 435 714 449 741 475 776 c 0
 519 729 l 0
 478 678 446 645 402 645 c 0
 333 645 301 735 249 735 c 0
 218 735 199 708 171 662 c 0
EndSplineSet
Validated: 1
EndChar

StartChar: dieresis
Encoding: 168 168 139
Width: 613
Flags: HMW
TeX: 80 0
LayerCount: 2
Fore
SplineSet
263 729 m 0
 263 696 236 669 203 669 c 0
 170 669 143 696 143 729 c 0
 143 762 170 788 203 788 c 0
 236 788 263 762 263 729 c 0
474 729 m 0
 474 696 448 669 415 669 c 0
 382 669 355 696 355 729 c 0
 355 762 382 790 415 790 c 0
 448 790 474 762 474 729 c 0
EndSplineSet
Validated: 1
EndChar

StartChar: germandbls
Encoding: 223 223 144
Width: 613
Flags: HMW
TeX: 105 0
LayerCount: 2
Fore
SplineSet
76 0 m 4
 76 502 l 4
 76 556 77 610 101 665 c 4
 137 748 213 794 294 794 c 4
 412 794 509 698 509 585 c 4
 509 517 473 456 415 426 c 4
 504 398 561 313 561 214 c 4
 561 85 465 -12 343 -12 c 4
 299 -12 257 1 220 25 c 4
 262 91 l 4
 285 73 313 63 342 63 c 4
 418 63 482 128 482 214 c 4
 482 276 449 331 404 359 c 4
 370 381 339 383 300 383 c 4
 264 383 l 4
 264 451 l 4
 298 451 l 4
 316 451 332 451 352 460 c 4
 397 480 428 531 428 587 c 4
 428 665 370 725 299 725 c 4
 260 725 219 706 191 666 c 4
 157 617 157 556 157 504 c 4
 157 0 l 4
 76 0 l 4
EndSplineSet
Validated: 1
EndChar

StartChar: paragraph
Encoding: 182 182 145
Width: 613
Flags: HMW
TeX: 115 0
LayerCount: 2
Fore
SplineSet
527 790 m 0
 527 -81 l 0
 459 -81 l 0
 459 722 l 0
 369 722 l 0
 369 -81 l 0
 298 -81 l 0
 298 382 l 0
 178 390 86 482 86 588 c 0
 86 661 129 731 208 765 c 0
 265 790 324 790 379 790 c 0
 527 790 l 0
EndSplineSet
Validated: 1
EndChar

StartChar: section
Encoding: 167 167 146
Width: 613
Flags: HMW
TeX: 118 0
LayerCount: 2
Fore
SplineSet
500 692 m 1
 433 633 l 1
 424 640 427 649 424 657 c 0
 414 684 379 727 316 727 c 0
 253 727 208 685 208 636 c 0
 208 612 219 575 271 548 c 0
 305 530 349 520 397 497 c 0
 480 457 506 405 506 362 c 0
 506 312 470 270 418 248 c 1
 470 213 495 160 495 110 c 0
 495 18 413 -65 293 -65 c 0
 214 -65 137 -28 87 37 c 1
 150 110 l 1
 159 106 156 96 159 89 c 0
 163 80 204 14 293 14 c 0
 366 14 410 59 410 108 c 0
 410 136 395 169 355 193 c 0
 306 222 239 225 180 260 c 0
 127 291 104 334 104 375 c 0
 104 429 144 474 201 494 c 1
 144 529 122 581 122 628 c 0
 122 718 204 797 315 797 c 0
 393 797 463 755 500 692 c 1
244 473 m 1
 212 463 190 433 190 399 c 0
 190 373 204 336 254 311 c 0
 290 293 331 288 374 271 c 1
 400 284 417 311 417 342 c 0
 417 369 403 408 348 435 c 0
 318 450 281 458 244 473 c 1
EndSplineSet
Validated: 1
EndChar

StartChar: copyright
Encoding: 169 169 147
Width: 613
Flags: HMW
TeX: 101 0
LayerCount: 2
Fore
SplineSet
321 503 m 0
 396 503 454 456 469 393 c 0
 408 370 l 0
 401 378 405 386 403 394 c 0
 401 403 383 444 324 444 c 0
 268 444 213 409 213 335 c 0
 213 263 263 207 325 207 c 0
 362 207 396 227 414 260 c 0
 466 225 l 0
 433 175 377 144 319 144 c 0
 222 144 146 228 146 327 c 0
 146 428 225 503 321 503 c 0
314 22 m 0
 157 22 26 156 26 325 c 0
 26 495 157 629 314 629 c 0
 471 629 601 495 601 326 c 0
 601 156 471 22 314 22 c 0
81 325 m 0
 81 184 187 74 315 74 c 0
 442 74 550 184 550 326 c 0
 550 468 444 579 316 579 c 0
 188 579 81 468 81 325 c 0
EndSplineSet
Validated: 1
EndChar

StartChar: registered
Encoding: 174 174 148
Width: 613
Flags: HMW
TeX: 117 0
LayerCount: 2
Fore
SplineSet
313 23 m 0
 156 23 27 156 27 325 c 0
 27 495 156 629 314 629 c 0
 471 629 601 496 601 326 c 0
 601 156 470 23 313 23 c 0
81 326 m 0
 81 185 187 74 315 74 c 0
 442 74 550 185 550 327 c 0
 550 468 443 579 315 579 c 0
 187 579 81 468 81 326 c 0
195 158 m 0
 195 504 l 0
 306 504 l 0
 333 504 360 504 388 493 c 0
 428 476 450 439 450 403 c 0
 450 361 421 323 380 312 c 0
 457 164 l 0
 400 156 l 0
 327 304 l 0
 249 304 l 0
 249 158 l 0
 195 158 l 0
249 456 m 0
 249 351 l 0
 310 351 l 0
 329 351 354 352 372 364 c 0
 388 373 395 388 395 403 c 0
 395 418 387 435 369 445 c 0
 351 455 326 456 307 456 c 0
 249 456 l 0
EndSplineSet
Validated: 1
EndChar

StartChar: uni00B9
Encoding: 185 185 149
Width: 613
Flags: HMW
TeX: 120 0
LayerCount: 2
Fore
SplineSet
365 751 m 0
 365 300 l 0
 289 300 l 0
 289 656 l 0
 174 627 l 0
 155 664 l 0
 313 751 l 0
 365 751 l 0
EndSplineSet
Validated: 1
EndChar

StartChar: guilsinglleft
Encoding: 8249 8249 150
Width: 613
Flags: HMW
TeX: 80 0
LayerCount: 2
Fore
SplineSet
182 300 m 0
 362 475 l 0
 409 426 l 0
 265 286 l 0
 417 120 l 0
 370 73 l 0
 182 272 l 0
 182 300 l 0
EndSplineSet
Validated: 1
EndChar

StartChar: guilsinglright
Encoding: 8250 8250 152
Width: 613
Flags: HMW
TeX: 80 0
LayerCount: 2
Fore
SplineSet
417 300 m 0
 417 272 l 0
 229 73 l 0
 182 120 l 0
 334 286 l 0
 190 426 l 0
 237 475 l 0
 417 300 l 0
EndSplineSet
Validated: 1
EndChar

StartChar: guillemotright
Encoding: 187 187 153
Width: 613
Flags: HMW
TeX: 105 0
LayerCount: 2
Fore
SplineSet
325 300 m 0
 325 272 l 0
 137 73 l 0
 90 120 l 0
 242 286 l 0
 98 426 l 0
 144 475 l 0
 325 300 l 0
540 300 m 0
 540 272 l 0
 352 73 l 0
 305 120 l 0
 457 286 l 0
 313 426 l 0
 359 475 l 0
 540 300 l 0
EndSplineSet
Validated: 1
EndChar

StartChar: logicalnot
Encoding: 172 172 154
Width: 613
Flags: HMW
TeX: 111 0
LayerCount: 2
Fore
SplineSet
119 412 m 0
 502 412 l 0
 502 186 l 0
 426 186 l 0
 426 337 l 0
 119 337 l 0
 119 412 l 0
EndSplineSet
Validated: 1
EndChar

StartChar: degree
Encoding: 176 176 156
Width: 613
Flags: HMW
TeX: 102 0
LayerCount: 2
Fore
SplineSet
474 598 m 0
 474 510 403 439 314 439 c 0
 225 439 153 511 153 599 c 0
 153 687 225 758 314 758 c 0
 403 758 474 686 474 598 c 0
315 695 m 0
 267 695 226 654 226 600 c 0
 226 547 267 505 315 505 c 0
 363 505 404 546 404 600 c 0
 404 653 363 695 315 695 c 0
EndSplineSet
Validated: 1
EndChar

StartChar: uni00B2
Encoding: 178 178 157
Width: 613
Flags: HMW
TeX: 120 0
LayerCount: 2
Fore
SplineSet
142 657 m 0
 178 719 245 756 317 756 c 0
 411 756 475 695 475 623 c 0
 475 567 437 529 420 513 c 0
 373 470 307 439 241 365 c 0
 457 365 l 0
 462 365 464 365 469 369 c 0
 471 371 477 378 485 375 c 0
 485 300 l 0
 154 300 l 0
 154 352 l 0
 220 443 306 501 342 530 c 0
 376 558 404 587 404 623 c 0
 404 661 371 695 314 695 c 0
 268 695 231 671 209 645 c 0
 203 637 204 632 198 621 c 0
 142 657 l 0
EndSplineSet
Validated: 1
EndChar

StartChar: eth
Encoding: 240 240 158
Width: 613
Flags: HMW
TeX: 103 0
LayerCount: 2
Fore
SplineSet
313 481 m 0
 233 481 148 416 148 276 c 0
 148 138 228 59 313 59 c 0
 380 59 470 110 470 275 c 0
 470 440 375 481 313 481 c 0
422 677 m 1
 495 595 556 473 556 300 c 0
 556 237 549 160 510 97 c 0
 466 25 393 -14 314 -14 c 0
 177 -14 58 101 58 264 c 0
 58 427 173 554 305 554 c 0
 360 554 411 532 447 493 c 1
 423 554 389 608 346 655 c 1
 195 612 l 1
 173 669 l 1
 296 702 l 1
 260 732 219 758 175 778 c 1
 271 798 l 1
 302 781 338 757 375 724 c 1
 503 759 l 1
 523 706 l 1
 422 677 l 1
EndSplineSet
Validated: 1
EndChar

StartChar: Eth
Encoding: 208 208 159
Width: 613
Flags: HMW
TeX: 71 0
LayerCount: 2
Fore
SplineSet
103 739 m 1
 269 739 l 2
 334 739 385 733 436 695 c 0
 525 629 563 500 563 374 c 0
 563 216 503 75 389 22 c 0
 347 3 307 -1 255 -1 c 2
 103 -1 l 1
 103 357 l 1
 46 357 l 1
 46 426 l 1
 103 426 l 1
 103 739 l 1
180 357 m 1
 180 68 l 1
 251 68 l 2
 293 68 333 69 375 98 c 0
 446 146 483 247 483 364 c 0
 483 447 466 538 421 599 c 0
 371 668 310 670 264 670 c 2
 180 670 l 1
 180 426 l 1
 304 426 l 1
 304 357 l 1
 180 357 l 1
EndSplineSet
Validated: 1
EndChar

StartChar: Thorn
Encoding: 222 222 160
Width: 613
Flags: HMW
TeX: 86 0
LayerCount: 2
Fore
SplineSet
80 739 m 0
 173 739 l 0
 174 737 174 736 174 734 c 0
 174 727 170 723 167 719 c 0
 164 714 164 711 164 707 c 0
 164 600 l 0
 305 600 l 0
 353 600 399 599 445 575 c 0
 515 539 551 467 551 392 c 0
 551 317 515 246 447 211 c 0
 402 188 357 187 311 187 c 0
 164 187 l 0
 164 0 l 0
 80 0 l 0
 80 739 l 0
164 522 m 0
 164 260 l 0
 314 260 l 0
 343 260 371 261 400 275 c 0
 443 297 466 341 466 388 c 0
 466 436 442 483 396 506 c 0
 366 521 336 522 305 522 c 0
 164 522 l 0
EndSplineSet
Validated: 1
EndChar

StartChar: ring
Encoding: 730 730 161
Width: 613
Flags: HMW
TeX: 80 0
LayerCount: 2
Fore
SplineSet
423 718 m 0
 423 661 375 613 314 613 c 0
 254 613 206 661 206 718 c 0
 206 775 254 822 314 822 c 0
 375 822 423 775 423 718 c 0
266 719 m 0
 266 689 288 664 315 664 c 0
 342 664 365 688 365 719 c 0
 365 749 342 773 315 773 c 0
 288 773 266 750 266 719 c 0
EndSplineSet
Validated: 1
EndChar

StartChar: circumflex.cap
Encoding: 65536 -1 190
Width: 613
Flags: HMW
TeX: 80 0
LayerCount: 2
Fore
SplineSet
145 675 m 0
 301 793 l 0
 327 793 l 0
 473 677 l 0
 434 632 l 0
 311 716 l 0
 179 635 l 0
 145 675 l 0
EndSplineSet
Validated: 1
EndChar

StartChar: ae
Encoding: 230 230 192
Width: 613
Flags: HMW
TeX: 99 0
LayerCount: 2
Fore
SplineSet
47 488 m 0
 81 530 132 554 184 554 c 0
 241 554 290 525 316 480 c 0
 343 526 391 554 441 554 c 0
 484 554 531 533 560 484 c 0
 592 433 592 371 592 318 c 0
 592 273 l 0
 345 263 l 0
 345 208 l 0
 345 179 346 156 357 130 c 0
 377 84 422 56 468 56 c 0
 503 56 535 71 555 99 c 0
 597 50 l 0
 563 10 514 -13 462 -13 c 0
 402 -13 345 18 312 69 c 0
 286 19 235 -13 178 -13 c 0
 93 -13 23 57 23 146 c 0
 23 207 56 273 131 307 c 0
 175 326 217 329 246 330 c 0
 272 331 l 0
 272 361 l 0
 272 383 271 404 264 423 c 0
 250 463 216 487 178 487 c 0
 145 487 111 468 89 436 c 0
 47 488 l 0
272 260 m 0
 247 259 l 0
 216 258 186 257 155 242 c 0
 117 223 98 186 98 152 c 0
 98 101 138 59 186 59 c 0
 219 59 252 78 265 115 c 0
 271 132 272 150 272 173 c 0
 272 185 272 200 272 215 c 0
 272 260 l 0
345 331 m 0
 523 338 l 0
 523 361 l 0
 523 386 523 410 512 435 c 0
 498 468 470 487 440 487 c 0
 410 487 385 469 368 443 c 0
 346 411 345 380 345 351 c 0
 345 331 l 0
EndSplineSet
Validated: 1
EndChar

StartChar: oe
Encoding: 339 339 193
Width: 613
Flags: HMW
TeX: 114 0
LayerCount: 2
Fore
SplineSet
202 553 m 0
 246 553 286 534 312 499 c 0
 342 534 386 553 432 553 c 0
 487 553 548 525 575 451 c 0
 589 411 592 364 592 318 c 0
 592 304 592 289 592 275 c 0
 592 262 l 0
 322 262 l 0
 323 187 326 152 339 123 c 0
 359 75 403 55 447 55 c 0
 482 55 524 66 555 101 c 0
 597 50 l 0
 557 9 502 -14 445 -14 c 0
 396 -14 348 3 310 35 c 0
 278 5 236 -13 193 -13 c 0
 146 -13 86 10 50 83 c 0
 21 142 17 219 17 281 c 0
 17 335 21 400 51 455 c 0
 86 522 146 553 202 553 c 0
323 330 m 0
 521 330 l 0
 521 340 l 0
 521 343 521 347 521 350 c 0
 521 382 520 415 503 443 c 0
 486 474 454 488 423 488 c 0
 392 488 353 473 335 424 c 0
 333 417 323 389 323 337 c 0
 323 335 323 332 323 330 c 0
89 292 m 0
 89 252 91 193 106 146 c 0
 125 81 168 59 203 59 c 0
 233 59 263 75 263 105 c 0
 263 120 248 178 248 281 c 0
 248 369 258 413 258 430 c 0
 258 461 233 481 201 481 c 0
 167 481 131 458 111 413 c 0
 92 372 89 326 89 292 c 0
EndSplineSet
Validated: 1
EndChar

StartChar: acute.cap
Encoding: 65538 -1 194
Width: 613
Flags: HMW
TeX: 80 0
LayerCount: 2
Fore
SplineSet
396 798 m 0
 443 715 l 0
 243 642 l 0
 215 691 l 0
 396 798 l 0
EndSplineSet
Validated: 1
EndChar

StartChar: grave.cap
Encoding: 65539 -1 195
Width: 613
Flags: HMW
TeX: 80 0
LayerCount: 2
Fore
SplineSet
256 798 m 0
 437 691 l 0
 410 642 l 0
 209 715 l 0
 256 798 l 0
EndSplineSet
Validated: 1
EndChar

StartChar: ordfeminine
Encoding: 170 170 196
Width: 613
Flags: HMW
TeX: 114 0
LayerCount: 2
Fore
SplineSet
156 672 m 0
 199 721 259 738 315 738 c 0
 380 738 434 712 459 660 c 0
 471 633 472 606 472 575 c 0
 472 316 l 0
 397 316 l 0
 397 356 l 0
 362 323 316 305 270 305 c 0
 188 305 131 363 131 429 c 0
 131 468 153 512 202 539 c 0
 246 563 297 564 347 564 c 0
 358 564 369 564 379 564 c 0
 396 564 l 0
 396 579 l 0
 396 599 396 620 383 640 c 0
 370 660 345 675 308 675 c 0
 266 675 224 660 197 623 c 0
 156 672 l 0
399 503 m 0
 380 503 l 0
 366 503 351 503 335 503 c 0
 315 503 296 503 279 500 c 0
 227 491 208 458 208 432 c 0
 208 399 237 370 283 370 c 0
 319 370 353 388 373 407 c 0
 399 431 399 454 399 482 c 0
 399 503 l 0
100 245 m 0
 515 245 l 0
 515 180 l 0
 100 180 l 0
 100 245 l 0
EndSplineSet
Validated: 1
EndChar

StartChar: ordmasculine
Encoding: 186 186 197
Width: 613
Flags: HMW
TeX: 114 0
LayerCount: 2
Fore
SplineSet
309 738 m 0
 394 738 481 669 481 527 c 0
 481 373 389 304 302 304 c 0
 208 304 124 384 124 513 c 0
 124 649 210 738 309 738 c 0
196 518 m 0
 196 419 251 373 304 373 c 0
 355 373 411 416 411 518 c 0
 411 620 358 672 303 672 c 0
 249 672 196 620 196 518 c 0
100 245 m 0
 515 245 l 0
 515 180 l 0
 100 180 l 0
 100 245 l 0
EndSplineSet
Validated: 1
EndChar

StartChar: uni02C9
Encoding: 713 713 198
Width: 613
Flags: HMW
TeX: 80 0
LayerCount: 2
Fore
SplineSet
157 737 m 0
 458 737 l 0
 458 671 l 0
 157 671 l 0
 157 737 l 0
EndSplineSet
Validated: 1
EndChar

StartChar: cedilla
Encoding: 184 184 201
Width: 613
Flags: HMW
TeX: 80 0
LayerCount: 2
Fore
SplineSet
321 0 m 0
 372 0 l 0
 366 -56 l 0
 385 -57 l 0
 400 -58 416 -60 431 -67 c 0
 454 -78 466 -98 466 -122 c 0
 466 -164 424 -210 337 -210 c 0
 292 -210 241 -197 197 -166 c 0
 226 -117 l 0
 263 -147 308 -159 344 -159 c 0
 390 -159 398 -140 398 -130 c 0
 398 -123 394 -115 385 -110 c 0
 373 -102 355 -101 342 -101 c 0
 307 -101 l 0
 321 0 l 0
EndSplineSet
Validated: 1
EndChar

StartChar: uni00B3
Encoding: 179 179 204
Width: 613
Flags: HMW
TeX: 120 0
LayerCount: 2
Fore
SplineSet
316 757 m 4
 404 757 471 697 471 629 c 4
 471 586 443 550 404 537 c 4
 454 528 492 485 492 435 c 4
 492 357 407 298 312 298 c 4
 247 298 186 326 143 375 c 4
 199 436 l 4
 209 425 204 414 215 403 c 4
 221 397 257 365 313 365 c 4
 371 365 418 399 418 441 c 4
 418 463 405 507 314 507 c 4
 302 507 290 506 279 505 c 4
 279 564 l 4
 287 563 294 563 302 563 c 4
 380 563 401 597 401 624 c 4
 401 660 365 694 312 694 c 4
 272 694 230 675 202 639 c 4
 159 683 l 4
 199 730 256 757 316 757 c 4
EndSplineSet
Validated: 1
EndChar

StartChar: divide
Encoding: 247 247 205
Width: 613
Flags: HMW
TeX: 102 0
LayerCount: 2
Fore
SplineSet
94 413 m 0
 521 413 l 0
 521 334 l 0
 94 334 l 0
 94 413 l 0
367 554 m 0
 367 525 342 501 313 501 c 0
 284 501 260 525 260 554 c 0
 260 583 284 607 313 607 c 0
 342 607 367 583 367 554 c 0
367 188 m 0
 367 159 342 135 313 135 c 0
 284 135 260 159 260 188 c 0
 260 217 284 242 313 242 c 0
 342 242 367 217 367 188 c 0
EndSplineSet
Validated: 1
EndChar

StartChar: Oslash
Encoding: 216 216 206
Width: 613
Flags: HMW
TeX: 81 0
LayerCount: 2
Fore
SplineSet
308 670 m 0
 230 670 127 602 127 382 c 0
 127 289 143 221 167 172 c 1
 409 627 l 1
 377 657 341 670 308 670 c 0
569 368 m 0
 569 303 564 211 525 132 c 0
 476 34 392 -11 312 -11 c 0
 268 -11 219 3 174 36 c 1
 115 -75 l 1
 53 -43 l 1
 122 87 l 1
 77 147 45 238 45 371 c 0
 45 662 201 748 311 748 c 0
 358 748 407 733 449 701 c 1
 503 803 l 1
 566 769 l 1
 501 647 l 1
 509 635 517 622 524 608 c 0
 564 529 569 437 569 368 c 0
455 560 m 1
 213 110 l 1
 244 82 280 70 312 70 c 0
 362 70 419 98 453 170 c 0
 483 233 486 309 486 357 c 0
 486 420 483 491 458 553 c 2
 455 560 l 1
EndSplineSet
Validated: 1
EndChar

StartChar: multiply
Encoding: 215 215 207
Width: 613
Flags: HMW
TeX: 112 0
LayerCount: 2
Fore
SplineSet
464 597 m 1
 520 545 l 1
 366 386 l 1
 517 226 l 1
 462 172 l 1
 312 330 l 1
 164 177 l 1
 111 229 l 1
 260 385 l 1
 111 543 l 1
 167 597 l 1
 314 441 l 1
 464 597 l 1
EndSplineSet
Validated: 1
EndChar

StartChar: AE
Encoding: 198 198 208
Width: 613
Flags: HMW
TeX: 67 0
LayerCount: 2
Fore
SplineSet
248 740 m 0
 585 740 l 0
 585 667 l 0
 379 667 l 0
 381 424 l 0
 554 424 l 0
 554 348 l 0
 382 348 l 0
 384 74 l 0
 582 74 l 0
 582 0 l 0
 309 0 l 0
 309 201 l 0
 155 201 l 0
 91 0 l 0
 15 0 l 0
 248 740 l 0
309 667 m 0
 296 667 l 0
 172 269 l 0
 309 269 l 0
 309 667 l 0
EndSplineSet
Validated: 1
EndChar

StartChar: OE
Encoding: 338 338 209
Width: 613
Flags: HMW
TeX: 81 0
LayerCount: 2
Fore
SplineSet
310 707 m 0
 310 740 l 0
 585 740 l 0
 585 667 l 0
 384 667 l 0
 384 424 l 0
 554 424 l 0
 554 348 l 0
 384 348 l 0
 384 74 l 0
 582 74 l 0
 582 0 l 0
 309 0 l 0
 309 37 l 0
 285 8 250 -8 212 -8 c 0
 154 -8 82 31 48 142 c 0
 44 156 22 232 22 371 c 0
 22 470 29 556 61 631 c 0
 100 722 165 750 213 750 c 0
 250 750 284 735 310 707 c 0
97 385 m 0
 97 351 97 227 130 146 c 0
 157 80 195 65 222 65 c 0
 264 65 298 102 309 154 c 0
 309 575 l 0
 297 615 266 681 213 681 c 0
 178 681 143 652 121 587 c 0
 113 565 97 510 97 385 c 0
EndSplineSet
Validated: 1
EndChar

StartChar: currency
Encoding: 164 164 210
Width: 613
Flags: HMW
TeX: 80 0
LayerCount: 2
Fore
SplineSet
308 528 m 0
 242 528 188 476 188 410 c 0
 188 344 242 291 308 291 c 0
 374 291 427 344 427 410 c 0
 427 476 374 528 308 528 c 0
91 584 m 1
 133 626 l 1
 200 559 l 1
 231 581 268 594 308 594 c 0
 347 594 384 582 415 560 c 1
 480 626 l 1
 522 584 l 1
 457 518 l 1
 480 487 493 450 493 410 c 0
 493 370 480 332 458 302 c 1
 522 237 l 1
 480 195 l 1
 415 260 l 1
 385 237 348 225 308 225 c 0
 267 225 231 238 200 261 c 1
 133 195 l 1
 91 237 l 1
 158 303 l 1
 136 333 124 370 124 410 c 0
 124 450 136 486 158 516 c 1
 91 584 l 1
EndSplineSet
Validated: 1
EndChar

StartChar: brokenbar
Encoding: 166 166 211
Width: 613
Flags: HMW
TeX: 80 0
LayerCount: 2
Fore
SplineSet
267 774 m 0
 347 774 l 0
 347 350 l 0
 267 350 l 0
 267 774 l 0
347 -179 m 0
 267 -179 l 0
 267 232 l 0
 347 232 l 0
 347 -179 l 0
EndSplineSet
Validated: 1
EndChar

StartChar: ogonek
Encoding: 731 731 214
Width: 613
Flags: HMW
TeX: 80 0
LayerCount: 2
Fore
SplineSet
432 0 m 0
 511 0 l 0
 471 -36 442 -69 432 -80 c 0
 424 -89 412 -103 412 -121 c 0
 412 -139 424 -154 446 -154 c 0
 453 -154 463 -153 475 -148 c 0
 494 -141 505 -133 513 -127 c 0
 513 -181 l 0
 490 -201 460 -209 431 -209 c 0
 370 -209 338 -176 338 -136 c 0
 338 -98 371 -51 432 0 c 0
EndSplineSet
Validated: 1
EndChar

StartChar: dotaccent
Encoding: 729 729 222
Width: 613
Flags: HMW
TeX: 80 0
LayerCount: 2
Fore
SplineSet
312 778 m 0
 346 778 374 751 374 717 c 0
 374 683 346 656 312 656 c 0
 278 656 251 683 251 717 c 0
 251 751 278 778 312 778 c 0
EndSplineSet
Validated: 1
EndChar

StartChar: breve
Encoding: 728 728 241
Width: 613
Flags: HMW
LayerCount: 2
Fore
SplineSet
173 767 m 0
 200 724 248 683 307 683 c 0
 356 683 407 714 447 766 c 0
 481 717 l 0
 441 663 379 622 307 622 c 0
 242 622 177 656 130 713 c 0
 173 767 l 0
EndSplineSet
Validated: 1
EndChar

StartChar: eng
Encoding: 331 331 242
Width: 613
Flags: HMW
LayerCount: 2
Fore
SplineSet
91 0 m 0
 91 542 l 0
 178 542 l 0
 178 446 l 0
 218 506 284 555 358 555 c 0
 420 555 476 520 503 459 c 0
 522 415 522 371 522 329 c 0
 522 67 l 0
 522 18 523 -33 501 -83 c 0
 468 -164 397 -209 322 -209 c 0
 280 -209 239 -195 206 -169 c 0
 247 -89 l 0
 255 -91 254 -99 257 -104 c 0
 260 -108 287 -129 324 -129 c 0
 357 -129 390 -114 412 -79 c 0
 438 -39 438 11 438 53 c 0
 438 327 l 0
 438 365 438 412 409 447 c 0
 390 470 362 481 335 481 c 0
 278 481 227 434 205 406 c 0
 182 376 178 349 178 312 c 0
 178 0 l 0
 91 0 l 0
EndSplineSet
Validated: 33
EndChar

StartChar: dcaron
Encoding: 271 271 245
Width: 613
Flags: MW
LayerCount: 2
Fore
SplineSet
377 463 m 0
 377 790 l 0
 458 790 l 0
 458 50 l 0
 458 34 459 17 463 0 c 0
 378 0 l 0
 374 13 373 27 373 40 c 0
 373 87 l 0
 340 30 281 -12 215 -12 c 0
 101 -12 10 108 10 275 c 0
 10 454 116 556 226 556 c 0
 291 556 349 520 377 463 c 0
230 487 m 0
 153 487 93 402 93 285 c 0
 93 175 145 63 233 63 c 0
 280 63 321 97 343 133 c 0
 366 171 370 212 370 261 c 0
 370 333 369 372 352 407 c 0
 328 457 274 487 230 487 c 0
EndSplineSet
Refer: 56 8217 N 0.8 0 0 0.8 314 191 2
Validated: 1
EndChar

StartChar: eogonek
Encoding: 281 281 246
Width: 613
Flags: HMW
LayerCount: 2
Fore
SplineSet
317 555 m 0
 406 555 508 508 532 362 c 0
 535 340 537 320 537 297 c 0
 537 285 537 272 536 259 c 1
 151 259 l 1
 157 97 262 57 335 57 c 0
 389 57 440 78 475 118 c 1
 522 72 l 1
 480 19 l 2
 439 -32 406 -69 406 -104 c 0
 406 -131 425 -151 452 -151 c 0
 458 -151 479 -150 513 -128 c 1
 512 -186 l 1
 490 -198 462 -208 434 -208 c 0
 375 -208 336 -168 336 -119 c 0
 336 -84 357 -42 401 -1 c 1
 375 -8 346 -12 319 -12 c 0
 177 -12 68 90 68 268 c 0
 68 463 188 555 317 555 c 0
154 325 m 1
 452 325 l 1
 453 331 453 337 453 343 c 0
 453 423 393 490 311 490 c 0
 253 490 171 453 154 325 c 1
EndSplineSet
Validated: 1
EndChar

StartChar: dotlessj
Encoding: 567 567 259
Width: 613
Flags: HMW
LayerCount: 2
Fore
SplineSet
160 543 m 0
 447 543 l 0
 447 38 l 0
 447 -9 446 -54 423 -99 c 0
 386 -171 310 -207 233 -207 c 0
 166 -207 107 -179 68 -131 c 0
 123 -57 l 0
 130 -63 128 -71 133 -79 c 0
 137 -86 173 -133 239 -133 c 0
 285 -133 328 -109 348 -65 c 0
 361 -36 361 -7 361 22 c 0
 361 472 l 0
 160 472 l 0
 160 543 l 0
EndSplineSet
Validated: 1
EndChar

StartChar: kgreenlandic
Encoding: 312 312 260
Width: 613
Flags: HMW
LayerCount: 2
Fore
SplineSet
89 542 m 4
 186 542 l 4
 186 541 187 540 187 539 c 4
 187 532 182 528 179 524 c 4
 175 519 175 515 175 511 c 4
 175 293 l 4
 446 545 l 4
 468 540 488 539 510 539 c 4
 541 539 l 4
 312 324 l 4
 579 -1 l 4
 576 -1 573 -1 570 -1 c 4
 513 -1 468 -5 468 -5 c 4
 247 271 l 4
 175 205 l 4
 175 -1 l 4
 89 -1 l 4
 89 542 l 4
EndSplineSet
Validated: 1
EndChar

StartChar: uparrow
Encoding: 8593 8593 266
Width: 613
Flags: HMW
LayerCount: 2
Fore
SplineSet
80 479 m 1
 302 760 l 1
 328 760 l 1
 534 477 l 1
 474 437 l 1
 348 608 l 1
 348 -40 l 1
 269 -40 l 1
 269 609 l 1
 131 437 l 1
 80 479 l 1
EndSplineSet
Validated: 1
EndChar

StartChar: visiblespace
Encoding: 9251 9251 268
Width: 613
Flags: HMW
LayerCount: 2
Fore
SplineSet
68 83 m 0
 123 83 l 0
 123 -25 l 0
 489 -25 l 0
 489 83 l 0
 547 83 l 0
 547 -78 l 0
 68 -78 l 0
 68 83 l 0
EndSplineSet
Validated: 1
EndChar

StartChar: r.serif
Encoding: 65540 -1 269
Width: 613
Flags: HMW
LayerCount: 2
Fore
SplineSet
87 542 m 4
 250 542 l 4
 247 437 l 4
 281 505 348 554 426 554 c 4
 477 554 528 534 566 496 c 4
 526 414 l 4
 517 422 514 431 507 440 c 4
 493 459 464 481 421 481 c 4
 381 481 333 460 290 399 c 4
 248 339 247 302 247 273 c 4
 247 63 l 4
 360 63 l 4
 360 -1 l 4
 85 -1 l 4
 85 63 l 4
 162 63 l 4
 162 473 l 4
 87 473 l 4
 87 542 l 4
EndSplineSet
Validated: 1
EndChar

StartChar: hungarumlaut.cap
Encoding: 65541 -1 270
Width: 613
Flags: HMW
LayerCount: 2
Fore
SplineSet
498 962 m 0
 553 885 l 0
 380 765 l 0
 342 814 l 0
 498 962 l 0
287 962 m 0
 342 885 l 0
 169 765 l 0
 131 814 l 0
 287 962 l 0
EndSplineSet
Validated: 1
EndChar

StartChar: uni2074
Encoding: 8308 8308 271
Width: 613
Flags: HMW
LayerCount: 2
Fore
SplineSet
369 761 m 0
 415 761 l 0
 415 470 l 0
 489 470 l 0
 489 414 l 0
 415 414 l 0
 415 299 l 0
 347 299 l 0
 347 415 l 0
 131 415 l 0
 131 457 l 0
 369 761 l 0
348 645 m 0
 209 470 l 0
 348 470 l 0
 348 645 l 0
EndSplineSet
Validated: 1
EndChar

StartChar: fraction
Encoding: 8260 8260 274
Width: 613
Flags: HMW
LayerCount: 2
Fore
SplineSet
100 -19 m 29
 472 788 l 29
 528 757 l 29
 156 -50 l 29
 100 -19 l 29
EndSplineSet
Validated: 1
EndChar

StartChar: lslash
Encoding: 322 322 275
Width: 613
Flags: HMW
LayerCount: 2
Fore
SplineSet
111 788 m 1
 350 788 l 1
 350 439 l 1
 427 466 l 2
 439 470 448 475 459 483 c 1
 459 396 l 1
 350 360 l 1
 350 69 l 1
 510 69 l 1
 510 0 l 1
 103 0 l 1
 103 69 l 1
 264 69 l 1
 264 331 l 1
 171 299 l 1
 171 377 l 1
 264 409 l 1
 264 720 l 1
 111 720 l 1
 111 788 l 1
EndSplineSet
Validated: 1
EndChar

StartChar: Lslash
Encoding: 321 321 276
Width: 613
Flags: HMW
LayerCount: 2
Fore
SplineSet
97 739 m 1
 194 739 l 1
 194 738 194 737 194 736 c 0
 194 721 183 718 183 699 c 2
 183 390 l 1
 380 454 l 2
 390 457 400 460 411 465 c 1
 411 389 l 1
 183 316 l 1
 183 71 l 1
 540 71 l 1
 540 -1 l 1
 97 -1 l 1
 97 289 l 1
 34 268 l 1
 34 341 l 1
 97 362 l 1
 97 739 l 1
EndSplineSet
Validated: 1
EndChar

StartChar: Eng
Encoding: 330 330 277
Width: 613
Flags: HMW
LayerCount: 2
Fore
SplineSet
71 0 m 0
 71 739 l 0
 158 739 l 0
 158 643 l 0
 200 709 272 753 350 753 c 0
 423 753 488 714 520 644 c 0
 542 597 543 550 543 503 c 0
 543 208 l 0
 543 167 541 126 522 85 c 0
 493 23 433 -12 364 -12 c 0
 327 -12 291 -3 259 16 c 0
 301 90 l 0
 308 86 309 80 313 77 c 0
 316 75 338 61 366 61 c 0
 400 61 430 80 445 114 c 0
 458 142 459 174 459 202 c 0
 459 501 l 0
 459 536 458 575 440 611 c 0
 420 654 380 678 335 678 c 0
 272 678 211 628 184 591 c 0
 161 558 158 528 158 489 c 0
 158 0 l 0
 71 0 l 0
EndSplineSet
Validated: 1
EndChar

StartChar: dcroat
Encoding: 273 273 278
Width: 613
Flags: HMW
LayerCount: 2
Fore
SplineSet
287 486 m 0
 225 486 138 444 138 290 c 0
 138 111 230 63 291 63 c 0
 348 63 402 101 424 166 c 0
 433 193 435 224 435 265 c 0
 435 326 433 356 426 381 c 0
 404 461 335 486 287 486 c 0
522 645 m 1
 523 50 l 2
 523 34 524 17 528 0 c 1
 443 0 l 1
 439 13 438 27 438 40 c 2
 438 87 l 1
 404 26 340 -12 271 -12 c 0
 166 -12 55 76 55 276 c 0
 55 483 180 556 283 556 c 0
 358 556 416 519 442 463 c 1
 442 645 l 1
 352 645 l 1
 352 709 l 1
 442 709 l 1
 442 790 l 1
 534 790 l 1
 534 782 529 776 527 772 c 0
 523 765 522 762 522 756 c 2
 522 709 l 1
 574 709 l 1
 574 645 l 1
 522 645 l 1
EndSplineSet
Validated: 1
EndChar

StartChar: bullet
Encoding: 8226 8226 287
Width: 613
Flags: HMW
LayerCount: 2
Fore
SplineSet
415 352 m 0
 415 298 370 253 314 253 c 0
 258 253 213 298 213 352 c 0
 213 406 258 451 314 451 c 0
 370 451 415 406 415 352 c 0
EndSplineSet
Validated: 1
EndChar

StartChar: florin
Encoding: 402 402 288
Width: 613
Flags: HMW
LayerCount: 2
Fore
SplineSet
580 736 m 1
 541 657 l 1
 537 657 532 660 531 667 c 0
 530 672 531 675 528 681 c 0
 517 704 488 731 449 731 c 0
 419 731 384 715 365 672 c 0
 348 635 347 589 344 552 c 2
 336 455 l 1
 482 455 l 1
 482 387 l 1
 331 387 l 1
 302 29 l 2
 298 -24 292 -76 264 -123 c 0
 230 -181 177 -208 128 -208 c 0
 91 -208 57 -193 32 -166 c 1
 80 -90 l 1
 87 -94 89 -100 92 -105 c 0
 99 -116 113 -128 135 -128 c 0
 154 -128 179 -117 196 -85 c 0
 216 -48 219 -4 222 32 c 2
 249 387 l 1
 105 387 l 1
 105 455 l 1
 254 455 l 1
 262 563 l 2
 265 608 270 654 292 699 c 0
 325 764 385 799 447 799 c 0
 498 799 547 776 580 736 c 1
EndSplineSet
Validated: 1
EndChar

StartChar: dagger
Encoding: 8224 8224 289
Width: 613
Flags: HMW
LayerCount: 2
Fore
SplineSet
267 774 m 1
 347 774 l 1
 347 542 l 1
 544 542 l 1
 544 471 l 1
 347 471 l 1
 347 -179 l 1
 267 -179 l 1
 267 471 l 1
 69 471 l 1
 69 542 l 1
 267 542 l 1
 267 774 l 1
EndSplineSet
Validated: 1
EndChar

StartChar: daggerdbl
Encoding: 8225 8225 290
Width: 613
Flags: HMW
LayerCount: 2
Fore
SplineSet
267 774 m 1
 347 774 l 1
 347 542 l 1
 544 542 l 1
 544 471 l 1
 347 471 l 1
 347 143 l 1
 544 143 l 1
 544 73 l 1
 347 73 l 1
 347 -179 l 1
 267 -179 l 1
 267 73 l 1
 69 73 l 1
 69 143 l 1
 267 143 l 1
 267 471 l 1
 69 471 l 1
 69 542 l 1
 267 542 l 1
 267 774 l 1
EndSplineSet
Validated: 1
EndChar

StartChar: trademark
Encoding: 8482 8482 291
Width: 613
VWidth: 1183
Flags: HMW
LayerCount: 2
Fore
SplineSet
293 753 m 5
 293 706 l 5
 187 706 l 5
 187 379 l 5
 133 379 l 5
 133 706 l 5
 31 706 l 5
 31 753 l 5
 293 753 l 5
369 753 m 5
 455 581 l 5
 478 624 477 624 499 667 c 4
 521 710 521 710 544 753 c 5
 583 753 l 5
 583 379 l 5
 534 379 l 5
 534 634 l 5
 516 602 515 603 497 570 c 4
 479 537 479 537 462 506 c 5
 443 508 l 5
 378 634 l 5
 378 379 l 5
 328 379 l 5
 328 753 l 5
 369 753 l 5
EndSplineSet
Validated: 1
EndChar

StartChar: zero.noslash
Encoding: 65542 -1 292
Width: 613
Flags: HMW
LayerCount: 2
Fore
SplineSet
529 366 m 4
 529 141 434 -13 305 -13 c 4
 188 -13 85 117 85 350 c 4
 85 589 177 744 307 744 c 4
 431 744 529 599 529 366 c 4
306 672 m 4
 280 672 236 660 206 594 c 4
 182 541 164 465 164 360 c 4
 164 284 179 205 199 157 c 4
 232 78 279 62 310 62 c 4
 337 62 378 74 409 133 c 4
 442 195 453 291 453 351 c 4
 453 430 436 527 413 582 c 4
 381 657 336 672 306 672 c 4
EndSplineSet
Validated: 1
EndChar

StartChar: alpha
Encoding: 945 945 294
Width: 613
Flags: HMW
LayerCount: 2
Fore
SplineSet
273 484 m 0
 193 484 123 438 123 275 c 0
 123 125 199 72 272 72 c 0
 277 72 285 72 291 72 c 0
 341 72 413 83 413 279 c 0
 413 410 371 484 273 484 c 0
572 9 m 9
 477 9 l 17
 477 9 450 59 450 82 c 0
 450 83 l 1
 427 22 331 -5 273 -5 c 0
 212 -5 43 28 42 272 c 1
 42 276 42 280 42 284 c 0
 42 547 230 559 273 560 c 1
 404 560 441 468 441 468 c 25
 456 546 l 25
 529 528 l 17
 499 394 l 1
 489 357 484 314 484 271 c 0
 484 228 489 185 501 147 c 0
 525 71 572 9 572 9 c 9
EndSplineSet
Validated: 1
EndChar

StartChar: beta
Encoding: 946 946 295
Width: 613
Flags: HMW
LayerCount: 2
Fore
SplineSet
539 207 m 12
 539 94 433 3 330 1 c 4
 329 1 328 1 327 1 c 4
 219 1 156 90 156 90 c 5
 156 -160 l 5
 77 -160 l 5
 77 473 l 6
 77 522 77 574 100 624 c 4
 135 701 208 742 285 742 c 4
 398 742 488 653 488 549 c 4
 488 487 454 430 399 402 c 5
 483 376 539 298 539 207 c 12
330 74 m 5
 402 74 458 128 458 207 c 4
 458 264 426 311 383 337 c 4
 351 356 327 359 290 359 c 6
 211 359 l 5
 211 429 l 5
 288 429 l 6
 387 429 404 508 404 551 c 4
 404 624 356 668 289 668 c 4
 252 668 215 659 188 622 c 4
 158 580 157 530 157 483 c 0
 157 480 157 477 157 474 c 6
 155 145 l 5
 179 139 253 74 323 74 c 4
 325 74 328 74 330 74 c 5
EndSplineSet
Validated: 1
EndChar

StartChar: gamma
Encoding: 947 947 296
Width: 613
Flags: HMW
LayerCount: 2
Fore
SplineSet
280 2 m 0
 59 542 l 0
 166 542 l 0
 167 532 161 525 161 516 c 0
 161 513 162 510 163 507 c 0
 322 108 l 0
 425 398 l 0
 441 445 457 494 466 543 c 0
 555 543 l 0
 539 490 520 437 501 386 c 0
 359 0 l 0
 354 -12 353 -31 353 -55 c 0
 353 -90 355 -133 355 -173 c 9
 276 -173 l 25
 277 -105 280 2 280 2 c 0
EndSplineSet
Validated: 1
EndChar

StartChar: delta
Encoding: 948 948 297
Width: 613
Flags: HMW
LayerCount: 2
Fore
SplineSet
309 454 m 0
 229 454 156 386 156 263 c 0
 156 139 230 65 313 65 c 0
 389 65 463 129 463 255 c 0
 463 392 384 454 309 454 c 0
464 701 m 1
 399 701 l 1
 184 699 l 1
 424 496 l 1
 512 434 545 325 545 258 c 0
 545 93 435 -3 312 -3 c 0
 182 -3 70 105 70 257 c 0
 70 408 155 520 280 520 c 0
 282 520 283 520 285 520 c 0
 285 522 155 632 71 699 c 5
 70 767 l 5
 511 767 l 1
 511 670 l 1
 464 701 l 1
EndSplineSet
Validated: 1
EndChar

StartChar: epsilon
Encoding: 949 949 298
Width: 613
Flags: HMW
LayerCount: 2
Fore
SplineSet
485 146 m 0
 522 91 l 0
 466 33 407 0 322 0 c 0
 197 0 86 65 86 157 c 0
 86 216 114 274 180 285 c 0
 128 300 89 340 89 392 c 0
 89 473 177 551 294 551 c 0
 372 551 455 524 508 468 c 0
 467 414 l 0
 421 460 356 472 293 472 c 0
 224 472 175 438 175 392 c 0
 175 357 196 321 321 321 c 0
 333 321 346 321 359 322 c 0
 359 239 l 0
 340 241 341 242 321 242 c 0
 175 242 171 183 171 155 c 0
 171 111 251 78 321 77 c 0
 411 77 448 116 485 146 c 0
EndSplineSet
Validated: 1
EndChar

StartChar: zeta
Encoding: 950 950 299
Width: 613
Flags: HMW
LayerCount: 2
Fore
SplineSet
398 -103 m 5
 417 -57 441 7 441 7 c 4
 441 7 89 28 89 251 c 4
 89 252 89 252 89 253 c 4
 91 534 338 654 404 689 c 5
 401 688 378 688 346 688 c 4
 281 688 181 689 126 689 c 5
 102 688 99 675 96 675 c 4
 97 769 l 4
 519 769 l 4
 519 687 l 4
 519 687 186 585 183 255 c 4
 183 254 183 254 183 253 c 4
 183 60 509 95 515 87 c 4
 523 76 526 62 526 49 c 4
 526 -6 474 -77 468 -134 c 4
 468 -135 419 -137 390 -137 c 4
 378 -137 370 -137 370 -136 c 4
 371 -132 380 -132 388 -123 c 5
 397 -111 395 -110 398 -103 c 5
EndSplineSet
Validated: 1
EndChar

StartChar: eta
Encoding: 951 951 300
Width: 613
Flags: HMW
LayerCount: 2
Fore
SplineSet
99 500 m 1
 84 542 l 25
 186 542 l 25
 186 446 l 0
 226 506 293 555 367 555 c 0
 428 555 484 521 511 460 c 0
 530 416 530 371 530 329 c 1
 530 -160 l 25
 446 -160 l 25
 446 327 l 2
 446 329 446 332 446 334 c 0
 446 370 445 413 417 446 c 0
 398 470 371 481 343 481 c 0
 286 481 233 434 213 406 c 0
 190 376 186 349 186 312 c 2
 186 0 l 25
 99 0 l 25
 99 500 l 1
EndSplineSet
Validated: 1
EndChar

StartChar: theta
Encoding: 952 952 301
Width: 613
Flags: HMW
LayerCount: 2
Fore
SplineSet
297 768 m 4
 445 768 523 600 523 391 c 0
 523 223 502 2 300 1 c 0
 298 1 l 0
 115 1 89 205 89 387 c 0
 89 610 156 768 297 768 c 4
439 428 m 1
 439 595 372 692 298 692 c 4
 231 692 174 604 173 427 c 1
 225 427 377 428 439 428 c 1
439 352 m 1
 172 352 l 17
 174 218 194 83 300 83 c 0
 417 83 439 212 439 343 c 0
 439 346 439 349 439 352 c 1
EndSplineSet
EndChar

StartChar: iota
Encoding: 953 953 302
Width: 613
Flags: HMW
LayerCount: 2
Fore
SplineSet
118 545 m 0
 357 545 l 0
 357 545 357 300 357 143 c 16
 357 85 379 82 422 82 c 1
 422 0 l 1
 408 0 393 -1 380 -1 c 0
 319 -1 271 11 271 144 c 1
 270 153 270 169 270 184 c 0
 270 216 271 252 271 252 c 1
 271 475 l 1
 138 475 l 0
 125 475 119 464 119 464 c 0
 118 545 l 0
EndSplineSet
Validated: 1
EndChar

StartChar: kappa
Encoding: 954 954 303
Width: 613
Flags: HMW
LayerCount: 2
Fore
SplineSet
62 542 m 0
 160 542 l 0
 160 541 160 541 160 540 c 0
 160 533 156 528 153 524 c 0
 149 519 148 515 148 511 c 0
 148 293 l 0
 420 546 l 4
 436 542 454 542 471 542 c 0
 478 542 484 542 490 542 c 0
 521 542 l 0
 291 324 l 0
 552 -1 l 0
 549 -1 547 -1 544 -1 c 0
 450 -1 l 0
 228 271 l 0
 148 205 l 0
 148 -1 l 0
 62 -1 l 0
 62 542 l 0
EndSplineSet
Validated: 1
EndChar

StartChar: lambda
Encoding: 955 955 304
Width: 613
Flags: HMW
LayerCount: 2
Fore
SplineSet
308 507 m 1
 290 603 246 704 174 714 c 0
 169 715 165 715 160 715 c 0
 136 715 117 707 115 707 c 0
 113 788 l 1
 132 788 153 789 168 789 c 0
 169 789 l 0
 343 789 370 589 406 468 c 1
 456 309 552 18 578 -0 c 1
 578 -0 488 0 485 0 c 1
 457 56 353 379 342 400 c 1
 116 0 l 1
 34 0 l 1
 308 507 l 1
EndSplineSet
Validated: 1
EndChar

StartChar: mu
Encoding: 956 956 305
Width: 613
Flags: HMW
LayerCount: 2
Fore
SplineSet
509 98 m 5
 509 72 518 70 527 70 c 4
 530 70 533 70 534 70 c 4
 536 70 l 5
 537 56 537 0 537 0 c 5
 467 0 l 5
 452 0 427 16 427 61 c 5
 427 142 l 5
 427 129 372 0 261 0 c 4
 229 0 183 16 161 66 c 5
 161 33 l 4
 161 -172 l 5
 77 -172 l 5
 77 228 l 5
 77 541 l 5
 158 541 l 5
 158 258 l 5
 158 256 l 6
 158 121 204 86 260 86 c 4
 330 86 427 185 427 288 c 6
 427 541 l 5
 509 541 l 5
 509 98 l 5
EndSplineSet
Validated: 1
EndChar

StartChar: nu
Encoding: 957 957 306
Width: 613
Flags: HMW
LayerCount: 2
Fore
SplineSet
57 542 m 0
 160 542 l 0
 162 533 156 536 156 529 c 0
 156 525 155 518 314 116 c 1
 432 272 491 410 491 508 c 0
 491 520 490 531 488 542 c 1
 575 542 l 1
 575 522 571 428 552 372 c 0
 486 183 339 -4 339 -4 c 0
 272 -4 l 0
 57 542 l 0
EndSplineSet
Validated: 33
EndChar

StartChar: xi
Encoding: 958 958 307
Width: 613
Flags: HMW
LayerCount: 2
Fore
SplineSet
419 -32 m 0
 391 38 106 -23 106 202 c 0
 106 315 189 397 267 400 c 1
 198 439 174 481 174 520 c 0
 174 585 241 642 287 664 c 1
 283 663 262 663 234 663 c 0
 205 663 188 663 147 663 c 1
 122 662 121 648 118 648 c 0
 118 742 l 0
 519 742 l 0
 519 660 l 0
 519 660 440 660 435 660 c 1
 356 651 267 582 267 523 c 0
 267 487 300 455 385 442 c 1
 484 442 l 25
 484 351 l 25
 389 350 l 1
 278 350 191 324 191 204 c 1
 194 67 404 120 489 31 c 0
 500 20 510 4 510 -9 c 0
 510 -50 472 -92 461 -143 c 9
 369 -144 l 17
 386 -104 420 -62 420 -38 c 0
 420 -36 420 -34 419 -32 c 0
EndSplineSet
Validated: 1
EndChar

StartChar: omicron
Encoding: 959 959 308
Width: 613
Flags: HMW
LayerCount: 2
Fore
SplineSet
556 268 m 4
 556 89 440 -14 312 -14 c 4
 176 -14 58 102 58 267 c 4
 58 435 176 554 314 554 c 4
 437 554 556 455 556 268 c 4
309 481 m 4
 226 481 148 407 148 274 c 4
 148 140 227 59 313 59 c 4
 392 59 470 129 470 265 c 4
 470 413 387 481 309 481 c 4
EndSplineSet
Validated: 1
EndChar

StartChar: pi
Encoding: 960 960 309
Width: 613
Flags: HMW
HStem: 610 60
LayerCount: 2
Fore
SplineSet
40 543 m 1
 573 543 l 1
 573 462 l 1
 507 462 l 1
 507 79 l 1
 537 79 l 1
 542 84 l 1
 542 84 541 33 541 0 c 1
 467 0 l 2
 430 0 423 24 423 41 c 2
 423 462 l 1
 194 462 l 1
 194 0 l 1
 105 0 l 1
 105 462 l 1
 40 462 l 1
 40 543 l 1
EndSplineSet
Validated: 1
EndChar

StartChar: rho
Encoding: 961 961 310
Width: 613
Flags: HMW
LayerCount: 2
Fore
SplineSet
76 286 m 2
 76 464 152 554 307 554 c 0
 448 554 550 481 550 290 c 0
 550 91 424 -8 313 -8 c 0
 201 -8 164 62 156 70 c 9
 156 -198 l 25
 76 -198 l 25
 76 286 l 2
306 484 m 0
 228 484 152 460 152 288 c 0
 152 122 238 68 312 68 c 0
 363 68 471 119 471 289 c 0
 471 465 384 484 306 484 c 0
EndSplineSet
Validated: 1
EndChar

StartChar: sigma
Encoding: 963 963 311
Width: 613
Flags: HMW
LayerCount: 2
Fore
SplineSet
538 268 m 0
 538 89 420 -14 292 -14 c 0
 156 -14 40 102 40 267 c 0
 40 436 124 543 296 543 c 2
 588 543 l 1
 583 532 l 0
 583 474 l 1
 469 474 l 1
 513 426 538 360 538 268 c 0
288 469 m 1
 205 469 130 407 130 274 c 0
 130 140 207 59 293 59 c 0
 372 59 452 129 452 265 c 0
 452 388 396 460 288 469 c 1
EndSplineSet
Validated: 1
EndChar

StartChar: tau
Encoding: 964 964 312
Width: 613
Flags: HMW
LayerCount: 2
Fore
SplineSet
100 542 m 5
 555 542 l 4
 555 466 l 4
 341 466 l 4
 339 143 l 4
 339 89 404 78 451 78 c 4
 478 78 499 82 499 82 c 4
 500 7 l 4
 500 7 473 2 438 2 c 4
 365 2 255 22 255 144 c 5
 254 153 254 168 254 184 c 4
 254 216 255 252 255 252 c 5
 255 467 l 5
 213 467 171 468 137 468 c 4
 100 468 71 467 59 460 c 5
 100 542 l 5
EndSplineSet
Validated: 1
EndChar

StartChar: upsilon
Encoding: 965 965 313
Width: 613
Flags: HMW
LayerCount: 2
Fore
SplineSet
85 542 m 0
 85 542 137 542 171 542 c 25
 171 240 l 2
 171 234 l 0
 171 176 173 65 299 65 c 0
 376 65 440 142 440 242 c 2
 440 542 l 1
 526 542 l 25
 526 244 l 0
 526 174 500 113 470 75 c 4
 413 2 357 -14 294 -14 c 0
 223 -14 138 24 105 97 c 0
 85 139 84 185 84 228 c 0
 84 232 84 236 84 240 c 0
 85 477 l 0
 85 477 53 481 33 483 c 25
 47 542 l 25
 85 542 l 0
EndSplineSet
Validated: 1
EndChar

StartChar: Xi
Encoding: 926 926 322
Width: 613
Flags: HMW
LayerCount: 2
Fore
SplineSet
346 76 m 20
 499 76 l 4
 499 -1 l 4
 115 -1 l 4
 115 77 l 4
 263 77 l 4
 263 77 313 76 346 76 c 20
346 663 m 12
 263 663 l 4
 115 663 l 4
 115 739 l 4
 499 739 l 4
 499 663 l 4
 346 663 l 12
151 425 m 5
 465 425 l 5
 465 348 l 5
 151 348 l 5
 151 425 l 5
EndSplineSet
Validated: 1
EndChar

StartChar: tonos
Encoding: 900 900 328
Width: 613
Flags: HMW
LayerCount: 2
Fore
SplineSet
362 827 m 4
 313 647 l 4
 262 647 l 4
 269 835 l 4
 362 827 l 4
EndSplineSet
Validated: 1
EndChar

StartChar: sigma1
Encoding: 962 962 346
Width: 613
Flags: HMW
LayerCount: 2
Fore
SplineSet
89 293 m 1
 90 397 162 510 257 537 c 0
 312 552 393 554 440 554 c 0
 462 554 476 554 478 554 c 0
 479 554 479 551 479 547 c 0
 479 532 479 496 478 469 c 9
 432 468 385 467 361 467 c 0
 247 467 180 414 180 288 c 0
 180 226 235 155 280 136 c 0
 368 99 497 110 497 9 c 0
 496 -48 446 -108 439 -136 c 9
 348 -137 l 17
 365 -89 412 -45 412 -16 c 0
 412 49 298 17 196 84 c 0
 153 113 89 205 89 293 c 1
EndSplineSet
Validated: 1
EndChar

StartChar: chi
Encoding: 967 967 347
Width: 613
Flags: HMW
LayerCount: 2
Fore
SplineSet
442 543 m 1
 524 543 l 1
 357 184 l 1
 499 -102 l 0
 510 -124 533 -128 544 -128 c 0
 552 -128 l 0
 552 -198 l 1
 552 -198 548 -198 542 -198 c 0
 517 -198 456 -194 427 -147 c 1
 312 91 l 1
 179 -198 l 1
 88 -198 l 1
 267 182 l 1
 142 399 l 0
 104 459 92 465 76 465 c 0
 72 465 67 465 61 465 c 9
 61 545 l 1
 69 545 80 545 89 545 c 0
 118 545 150 540 179 497 c 1
 189 482 236 426 313 269 c 1
 442 543 l 1
EndSplineSet
Validated: 1
EndChar

StartChar: psi
Encoding: 968 968 348
Width: 613
Flags: HMW
LayerCount: 2
Fore
SplineSet
92 542 m 2
 171 542 l 1
 171 439 171 337 171 234 c 0
 171 182 175 86 267 68 c 1
 267 632 l 1
 348 662 l 1
 348 75 l 1
 402 99 444 163 444 242 c 2
 443 542 l 1
 521 542 l 1
 521 244 l 2
 521 174 496 114 466 76 c 0
 425 24 391 0 348 -9 c 1
 348 -197 l 1
 267 -197 l 1
 267 -12 l 1
 204 -3 142 35 113 97 c 0
 93 139 92 185 92 228 c 0
 92 232 92 236 92 240 c 0
 92 321 92 381 92 426 c 0
 92 542 l 2
EndSplineSet
Validated: 1
EndChar

StartChar: phi
Encoding: 966 966 349
Width: 613
Flags: HMW
LayerCount: 2
Fore
SplineSet
267 609 m 1
 353 621 l 1
 353 553 l 1
 459 534 556 434 556 268 c 0
 556 109 463 10 353 -10 c 1
 353 -197 l 1
 267 -197 l 1
 267 -11 l 1
 148 9 58 119 58 267 c 0
 58 417 148 530 267 553 c 1
 267 609 l 1
267 61 m 1
 267 480 l 1
 199 461 143 387 143 274 c 0
 143 162 198 83 267 61 c 1
353 477 m 1
 353 62 l 1
 415 82 474 153 474 265 c 0
 474 384 414 454 353 477 c 1
EndSplineSet
Validated: 1
EndChar

StartChar: omega
Encoding: 969 969 350
Width: 613
Flags: HMW
LayerCount: 2
Fore
SplineSet
193 76 m 0
 252 76 263 162 264 251 c 2
 264 372 l 1
 343 372 l 1
 344 251 l 2
 344 161 360 76 420 76 c 0
 473 76 498 167 498 272 c 0
 498 339 481 424 461 544 c 1
 543 544 l 1
 549 509 580 405 580 283 c 0
 580 209 576 158 537 69 c 0
 517 23 463 -2 421 -2 c 0
 420 -2 420 -2 419 -2 c 0
 391 -2 341 16 306 52 c 1
 272 16 222 -2 194 -2 c 0
 193 -2 192 -2 191 -2 c 0
 149 -2 99 24 76 69 c 0
 39 141 36 189 36 244 c 0
 36 257 36 270 36 283 c 0
 36 405 64 509 70 544 c 1
 153 544 l 1
 131 422 112 337 112 270 c 0
 112 161 134 76 193 76 c 0
EndSplineSet
Validated: 1
EndChar

StartChar: Lambda
Encoding: 923 923 352
Width: 613
Flags: HMW
LayerCount: 2
Fore
SplineSet
293 562 m 1
 232 374 172 186 110 -1 c 1
 28 -1 l 0
 289 753 l 0
 298 753 l 4
 584 0 l 0
 498 0 l 1
 428 185 360 373 293 562 c 1
EndSplineSet
Validated: 1
EndChar

StartChar: Delta
Encoding: 916 916 353
Width: 613
Flags: HMW
LayerCount: 2
Fore
SplineSet
28 0 m 21
 289 753 l 5
 298 753 l 5
 584 0 l 5
 28 0 l 21
136 81 m 5
 467 81 l 5
 293 562 l 5
 136 81 l 5
EndSplineSet
Validated: 1
EndChar

StartChar: Gamma
Encoding: 915 915 355
Width: 613
Flags: HMW
LayerCount: 2
Fore
SplineSet
159 424 m 12
 159 348 l 4
 159 74 l 12
 160 0 l 29
 80 0 l 29
 80 740 l 29
 534 740 l 29
 534 667 l 29
 159 667 l 4
 159 424 l 12
EndSplineSet
Validated: 1
EndChar

StartChar: Theta
Encoding: 920 920 356
Width: 613
Flags: HMW
LayerCount: 2
Fore
SplineSet
308 672 m 0
 146 672 130 525 130 381 c 0
 130 190 197 76 314 76 c 3
 422 76 487 170 487 382 c 0
 487 522 463 672 308 672 c 0
310 0 m 0
 90 0 45 221 45 381 c 4
 45 585 111 750 309 750 c 0
 485 750 569 608 569 382 c 0
 569 220 539 0 310 0 c 0
444 422 m 1
176 421 m 1
444 340 m 1
 176 340 l 9
 176 421 l 25
 176 421 378 422 444 422 c 9
 444 340 l 1
EndSplineSet
Validated: 1
EndChar

StartChar: Pi
Encoding: 928 928 357
Width: 613
Flags: HMW
LayerCount: 2
Fore
SplineSet
159 424 m 1
 159 348 l 1
 159 74 l 1
 160 0 l 1
 80 0 l 1
 80 740 l 1
 455 740 l 1
 534 740 l 1
 534 667 l 1
 534 0 l 1
 455 0 l 1
 455 667 l 1
 159 667 l 1
 159 424 l 1
EndSplineSet
Validated: 1
EndChar

StartChar: Phi
Encoding: 934 934 358
Width: 613
Flags: HMW
LayerCount: 2
Fore
SplineSet
309 737 m 0
 452 737 604 599 604 400 c 0
 604 201 453 108 347 83 c 1
 347 0 l 1
 270 0 l 1
 270 82 l 1
 155 107 10 212 10 397 c 0
 10 600 153 737 309 737 c 0
266 161 m 1
 266 665 l 1
 194 641 90 543 90 399 c 0
 90 255 193 187 266 161 c 1
351 664 m 1
 351 161 l 1
 418 187 526 258 526 401 c 0
 526 554 417 636 351 664 c 1
EndSplineSet
Validated: 1
EndChar

StartChar: Chi
Encoding: 935 935 359
Width: 613
Flags: HMW
LayerCount: 2
Fore
SplineSet
437 739 m 1
 520 739 l 1
 347 380 l 1
 544 1 l 1
 451 1 l 1
 303 288 l 1
 163 1 l 1
 74 1 l 1
 260 376 l 1
 75 739 l 1
 163 739 l 1
 303 466 l 1
 437 739 l 1
EndSplineSet
Validated: 1
EndChar

StartChar: Sigma
Encoding: 931 931 362
Width: 613
Flags: HMW
LayerCount: 2
Fore
SplineSet
257 362 m 5
 89 681 l 0
 88 739 l 0
 545 739 l 0
 545 665 l 0
 186 665 l 0
 345 361 l 1
 174 52 l 0
 523 52 l 0
 537 52 544 59 555 59 c 0
 556 59 558 59 559 59 c 0
 559 -22 l 0
 70 -22 l 0
 70 28 l 0
 257 362 l 5
346 362 m 1
EndSplineSet
Validated: 1
EndChar

StartChar: Psi
Encoding: 936 936 363
Width: 613
Flags: HMW
LayerCount: 2
Fore
SplineSet
269 705 m 1
 351 705 l 1
 351 290 l 1
 442 309 458 412 458 467 c 2
 458 740 l 1
 542 740 l 1
 542 469 l 2
 542 414 538 368 506 317 c 0
 468 256 408 230 351 220 c 1
 351 0 l 1
 269 0 l 1
 269 218 l 1
 206 227 152 251 109 317 c 0
 78 364 74 413 74 465 c 2
 75 740 l 1
 75 740 124 740 158 740 c 1
 158 467 l 2
 158 415 178 306 269 288 c 1
 269 705 l 1
EndSplineSet
Validated: 1
EndChar

StartChar: Omega
Encoding: 937 937 364
Width: 613
Flags: HMW
LayerCount: 2
Fore
SplineSet
172 77 m 5
 102 172 64 236 63 337 c 1
 63 691 184 740 307 740 c 1
 424 740 551 693 551 339 c 0
 551 248 503 138 446 77 c 9
 548 77 l 25
 548 0 l 25
 361 0 l 25
 361 76 l 17
 392 105 469 247 469 339 c 0
 469 563 429 670 307 670 c 0
 184 670 147 564 147 340 c 0
 147 248 222 105 254 77 c 9
 254 0 l 25
 67 0 l 25
 67 77 l 25
 172 77 l 5
EndSplineSet
Validated: 1
EndChar

StartChar: anoteleia
Encoding: 903 903 366
Width: 613
Flags: HMW
LayerCount: 2
Fore
SplineSet
364 485 m 4
 364 448 332 418 293 418 c 4
 254 418 223 448 223 486 c 4
 223 523 254 554 293 554 c 4
 332 554 364 522 364 485 c 4
EndSplineSet
Validated: 1
EndChar

StartChar: afii10018
Encoding: 1041 1041 368
Width: 600
Flags: MW
LayerCount: 2
Fore
SplineSet
66 0 m 1
 66 722.998 l 1
 509 723 l 1
 509 651 l 1
 146 651 l 1
 146 423 l 1
 259 423 l 2
 339 423 388.438 423 447 383 c 0
 505.687 342.914 539.123 283.98 539.123 199.903 c 0
 539.123 125.489 496.411 54.79 418.712 21.7725 c 0
 368.818 0.570312 319.11 0 270 0 c 2
 144 0 l 1
 66 0 l 1
146 71 m 1
 284 71 l 2
 315.204 71 345.804 71.5469 376.985 85.5967 c 0
 426.877 108.078 454.347 156.379 454.347 208.01 c 0
 454.347 260.227 425.928 311.754 372.336 337.19 c 0
 336.297 354.296 300.473 355 264 355 c 2
 146 355 l 1
 146 71 l 1
EndSplineSet
Validated: 1
EndChar

StartChar: afii10021
Encoding: 1044 1044 371
Width: 600
Flags: MW
LayerCount: 2
Fore
SplineSet
55.916 68 m 1
 105.684 68 l 1
 107.537 70.8337 109.262 74.48 111 79 c 0
 118.054 97.3396 127.52 124.944 132 146 c 0
 165.954 305.565 178.22 535.488 182.456 651 c 0
 183.702 684.977 174.5 723 174.5 723 c 1
 521 723 l 1
 521 68 l 1
 580.084 68 l 1
 580.084 -168 l 1
 498.084 -168 l 1
 498.084 -1 l 1
 139.916 -1 l 1
 139.916 -167 l 1
 55.916 -167 l 1
 55.916 68 l 1
194.079 68 m 1
 444 68 l 1
 444 651 l 1
 262.396 651 l 1
 253.999 525.263 240.404 255.615 206.5 112 c 0
 203.125 97.7047 199.095 82.6257 194.079 68 c 1
EndSplineSet
Validated: 33
EndChar

StartChar: afii10024
Encoding: 1046 1046 373
Width: 600
Flags: HMW
LayerCount: 2
Fore
SplineSet
16.999 0 m 1
 221.227 368.646 l 1
 45.0088 723 l 1
 75.0088 723 l 2
 95.3047 723 116.479 723.949 137.007 728.997 c 1
 261 458.8 l 1
 261 722 l 1
 347.002 722 l 1
 347.824 720.356 348.254 718.529 348.254 716.663 c 0
 348.254 707.549 341 706.38 341 694 c 2
 341 464.7 l 1
 457.008 728.997 l 1
 477.531 723.949 498.705 723 519 723 c 2
 549 723 l 1
 381.422 374.041 l 1
 582 0 l 1
 525 0 479 -4 479 -4 c 1
 341 299.266 l 1
 341 0 l 1
 261 0 l 1
 261 286.241 l 1
 119.999 -4 l 1
 119.999 -4 73.999 0 16.999 0 c 1
EndSplineSet
EndChar

StartChar: afii10025
Encoding: 1047 1047 374
Width: 600
Flags: MW
LayerCount: 2
Fore
SplineSet
37.3447 122.711 m 0
 114.139 176.887 l 0
 124.897 162.902 115.021 154.021 125.033 139.676 c 0
 130.253 132.196 183.812 61.2617 276.314 61.2617 c 0
 392.562 61.2617 460.012 129.155 460.012 208.449 c 0
 460.012 294.507 377.338 345.579 242.884 345.579 c 0
 226.011 345.579 209.15 344.711 192.429 343 c 0
 192.429 408 l 0
 286.635 408.15 331.805 420.748 349.262 426.323 c 0
 417.996 448.274 439.025 495.946 439.025 539.93 c 0
 439.025 600.917 384.45 652.425 282.553 652.425 c 0
 221.154 652.425 156 610.161 123.013 572.161 c 0
 71.043 620.161 l 0
 123.013 692.161 206.238 724.29 287.492 724.29 c 0
 429.962 724.29 519.067 639.912 519.067 541.354 c 0
 519.067 471.159 481.239 409.132 400.41 385 c 0
 493.863 357.628 539.013 284.533 539.013 198.625 c 0
 539.013 86.4453 450.365 -12.1904 277.8 -12.1904 c 0
 187.586 -12.1904 80.8623 54.4893 37.3447 122.711 c 0
EndSplineSet
Validated: 1
EndChar

StartChar: afii10026
Encoding: 1048 1048 375
Width: 600
Flags: MW
LayerCount: 2
Fore
SplineSet
68 0 m 0
 68 722 l 0
 158 722 l 0
 158.822 720.356 159.252 718.529 159.252 716.663 c 0
 159.252 707.549 152 706.38 152 694 c 0
 152 198.5 l 1
 448 722 l 0
 527.999 722 l 1
 527.999 -1 l 0
 449 -1 l 0
 450 569 l 1
 132.5 0 l 0
 68 0 l 0
EndSplineSet
Validated: 1
EndChar

StartChar: afii10029
Encoding: 1051 1051 378
Width: 600
Flags: MW
LayerCount: 2
Fore
SplineSet
18.5508 36 m 1
 46.501 111 l 1
 50.9443 105.644 50.5615 97.916 52.5068 92.1807 c 0
 54.4229 86.5352 73.7881 60.2275 92.9414 60.2275 c 0
 101.119 60.2275 106 66 111 79 c 0
 118.054 97.3396 127.52 124.944 132 146 c 0
 165.954 305.565 178.22 535.488 182.456 651 c 0
 183.702 684.977 174.5 723 174.5 723 c 1
 521 723 l 1
 521 0 l 1
 444 0 l 1
 444 651 l 1
 262.396 651 l 1
 253.999 525.263 240.404 255.615 206.5 112 c 0
 199.411 81.9694 189.426 48.4805 173.5 23 c 0
 158.5 -1 116.178 -8.17969 93.1035 -8.17969 c 0
 64.8154 -8.17969 38.4072 6.74902 18.5508 36 c 1
EndSplineSet
Validated: 33
EndChar

StartChar: afii10037
Encoding: 1059 1059 386
Width: 600
Flags: MW
LayerCount: 2
Fore
SplineSet
40 723 m 0
 152.167 723 l 0
 152.818 712.579 147 706.755 147 698.226 c 0
 147 694.853 147.861 692.287 149.167 689 c 0
 328.5 324.702 l 0
 420 582 l 0
 436.209 627.578 451.255 674.532 460 723 c 0
 547 723 l 0
 531.434 671.243 513.035 620.412 494 570 c 0
 329 133 l 0
 317.685 103.033 306.505 75.1133 283.381 49.0947 c 0
 248.107 9.40723 206 -8.17969 170.5 -8.17969 c 0
 126.98 -8.17969 86.3525 6.74902 55.8037 36 c 0
 98.8037 111 l 0
 105.641 105.644 105.051 97.916 108.044 92.1807 c 0
 110.991 86.5352 131.017 60.2275 170.251 60.2275 c 0
 187.001 60.2275 202.436 71.0498 224.474 94.5176 c 0
 241.247 112.379 251.822 134.944 261 156 c 0
 287.5 221.702 l 0
 40 723 l 0
EndSplineSet
Validated: 1
EndChar

StartChar: afii10038
Encoding: 1060 1060 387
Width: 600
Flags: HMW
LayerCount: 2
Fore
SplineSet
260 796.5 m 1
 342.999 796.5 l 5
 342.999 716.227 l 1
 469.431 693.137 590 566.101 590 391 c 0
 590 197 443 105 339 81 c 1
 339 0 l 1
 264 0 l 1
 264 80 l 1
 152 104 10 207 10 388 c 0
 10 567.583 125.167 694.518 260 716.578 c 1
 260 796.5 l 1
260 649 m 1
 190 626 88 531 88 390 c 0
 88 249 189 182 260 157 c 1
 260 649 l 1
342.999 648 m 1
 342.999 157 l 1
 407.999 182 514 252 514 392 c 0
 514 541 406.999 621 342.999 648 c 1
EndSplineSet
Validated: 1
EndChar

StartChar: afii10040
Encoding: 1062 1062 389
Width: 600
Flags: MW
LayerCount: 2
Fore
SplineSet
53 0 m 0
 53 722 l 0
 143 722 l 0
 143.822 720.356 144.252 718.529 144.252 716.663 c 0
 144.252 707.549 137 706.38 137 694 c 0
 137 69 l 0
 420 69 l 0
 420 722 l 0
 508 722 l 0
 508.872 720.545 509.336 718.865 509.336 717.137 c 0
 509.336 708.364 501 708.006 501 696 c 0
 501 69.0078 l 0
 582 69 l 1
 582 -168 l 0
 501 -168 l 0
 501 0 l 1
 53 0 l 0
EndSplineSet
Validated: 1
EndChar

StartChar: afii10041
Encoding: 1063 1063 390
Width: 600
Flags: MW
LayerCount: 2
Fore
SplineSet
68 501.079 m 2
 68 722 l 1
 159 722 l 1
 159.791 720.163 160.2 718.172 160.2 716.15 c 0
 160.2 709.235 155.631 704.498 152.571 700.195 c 0
 148.296 694.182 148 690.266 148 685 c 2
 148 500.079 l 2
 148 464.221 148.701 429.233 165.336 393.656 c 0
 191.299 338.132 245.805 308 303.067 308 c 0
 359.414 308 413.783 337.423 440.467 392.628 c 0
 458.202 429.319 458.998 465.678 459 502.936 c 2
 459 722 l 1
 536 722 l 1
 536 0 l 1
 536 0 l 1
 459 0 l 1
 459 293.002 l 1
 415.969 256.861 359.277 239.006 301.461 239.006 c 0
 216.265 239.006 136.155 277.056 96.1416 351.296 c 0
 69.4092 400.893 68 450.039 68 501.079 c 2
EndSplineSet
Validated: 5
EndChar

StartChar: afii10042
Encoding: 1064 1064 391
Width: 600
Flags: MW
LayerCount: 2
Fore
SplineSet
43.168 0 m 1
 43.168 722 l 1
 133.168 722 l 1
 133.99 720.356 134.42 718.529 134.42 716.663 c 0
 134.42 707.549 127.168 706.38 127.168 694 c 2
 127.168 69 l 1
 265 69 l 1
 265 722 l 1
 353 722 l 1
 353.872 720.545 354.336 718.865 354.336 717.137 c 0
 354.336 708.364 346 708.006 346 696 c 2
 346 69 l 1
 479.168 69 l 1
 479.168 722 l 1
 567.168 722 l 1
 568.04 720.545 568.504 718.864 568.504 717.137 c 0
 568.504 708.363 560.168 708.006 560.168 696 c 2
 560.168 0 l 1
 43.168 0 l 1
EndSplineSet
Validated: 1
EndChar

StartChar: afii10043
Encoding: 1065 1065 392
Width: 600
Flags: MW
LayerCount: 2
Fore
SplineSet
18 0 m 1
 18 722 l 1
 108 722 l 1
 108.822 720.356 109.252 718.529 109.252 716.663 c 0
 109.252 707.549 102 706.38 102 694 c 2
 102 69 l 1
 239.998 69 l 1
 239.998 722 l 1
 327.998 722 l 1
 328.87 720.545 329.334 718.865 329.334 717.137 c 0
 329.334 708.364 320.998 708.006 320.998 696 c 2
 320.998 69 l 1
 454 69 l 1
 454 722 l 1
 542 722 l 1
 542.872 720.545 543.336 718.865 543.336 717.137 c 0
 543.336 708.364 535 708.006 535 696 c 2
 535 69 l 1
 582 69 l 1
 582 -168 l 1
 501 -168 l 1
 501 0 l 1
 18 0 l 1
EndSplineSet
Validated: 1
EndChar

StartChar: afii10044
Encoding: 1066 1066 393
Width: 600
Flags: MW
LayerCount: 2
Fore
SplineSet
46 649.005 m 1
 46 722 l 1
 236.009 722 l 1
 236 423 l 1
 259 423 l 2
 339 423 402.878 423 461.438 383 c 0
 520.125 342.914 553.562 283.98 553.562 199.903 c 0
 553.562 125.489 510.85 54.79 433.15 21.7725 c 0
 383.257 0.570312 333.549 0 284.438 0 c 2
 156 0 l 1
 156 649.005 l 1
 46 649.005 l 1
236 71 m 1
 298.438 71 l 2
 329.643 71 360.242 71.5469 391.424 85.5967 c 0
 441.315 108.078 468.785 156.379 468.785 208.01 c 0
 468.785 260.227 440.366 311.754 386.774 337.19 c 0
 350.735 354.296 314.911 355 278.438 355 c 2
 236 355 l 1
 236 71 l 1
EndSplineSet
Validated: 1
EndChar

StartChar: afii10045
Encoding: 1067 1067 394
Width: 600
Flags: MW
LayerCount: 2
Fore
SplineSet
56 0 m 0
 56 722 l 0
 142.003 722 l 0
 142.824 720.356 143.255 718.529 143.255 716.663 c 0
 143.255 707.549 136 706.38 136 694 c 0
 136 423 l 0
 150.521 423 l 0
 220.922 423 264.429 423 315.962 383 c 0
 367.604 342.914 397.03 283.98 397.03 199.903 c 0
 397.03 125.489 359.443 54.79 291.068 21.7725 c 0
 247.162 0.570312 203.419 0 160.201 0 c 0
 56 0 l 0
136 71 m 0
 172.521 71 l 0
 199.981 71 221.429 71.5469 247.222 85.5967 c 0
 288.491 108.078 311.215 156.379 311.215 208.01 c 0
 311.215 260.227 287.707 311.754 243.375 337.19 c 0
 213.564 354.296 187.018 355 154.922 355 c 0
 136 355 l 0
 136 71 l 0
459.562 0 m 0
 459.562 722 l 0
 545.564 722 l 0
 546.386 720.356 546.816 718.529 546.816 716.663 c 0
 546.816 707.549 539.562 706.38 539.562 694 c 0
 539.562 0 l 1
 459.562 0 l 0
EndSplineSet
Validated: 1
EndChar

StartChar: afii10046
Encoding: 1068 1068 395
Width: 600
Flags: MW
LayerCount: 2
Fore
SplineSet
66 0 m 0
 66 722 l 0
 152.003 722 l 0
 152.824 720.356 153.255 718.529 153.255 716.663 c 0
 153.255 707.549 146.003 706.38 146.003 694 c 0
 146 423 l 0
 259 423 l 0
 339 423 388.439 423 447 383 c 0
 505.686 342.914 539.123 283.98 539.123 199.903 c 0
 539.123 125.489 496.411 54.79 418.712 21.7725 c 0
 368.818 0.570312 319.11 0 270 0 c 0
 66 0 l 0
146 71 m 0
 284 71 l 0
 315.204 71 345.804 71.5469 376.985 85.5967 c 0
 426.877 108.078 454.347 156.379 454.347 208.01 c 0
 454.347 260.227 425.928 311.754 372.336 337.19 c 0
 336.297 354.296 300.473 355 264 355 c 0
 146 355 l 0
 146 71 l 0
EndSplineSet
Validated: 1
EndChar

StartChar: afii10047
Encoding: 1069 1069 396
Width: 600
Flags: MW
LayerCount: 2
Fore
SplineSet
56.9668 130.998 m 1
 133.967 168.998 l 1
 139.389 165.197 139.251 158.979 139.251 157.623 c 0
 139.251 154.741 138.76 151.856 138.76 148.982 c 0
 138.76 143.595 140.451 140.602 142.751 136.63 c 0
 171.892 86.2988 224.569 52.8301 281.085 52.8301 c 0
 380.997 52.8301 470.141 155.735 473.859 340 c 1
 189.983 340 l 1
 189.983 414 l 1
 470.62 414 l 1
 453.028 570.455 368.727 658.004 274.312 658.004 c 0
 217.649 658.004 160.265 625.113 126.967 569.998 c 1
 66.9668 608.998 l 1
 112.272 683.02 192.75 728 278.857 728 c 0
 397.789 728 553 638.147 553 359.191 c 0
 553 70.1602 390.64 -12.002 278.349 -12.002 c 0
 182.425 -12.002 95.791 43.9561 56.9668 130.998 c 1
EndSplineSet
Validated: 1
EndChar

StartChar: afii10048
Encoding: 1070 1070 397
Width: 600
Flags: MW
LayerCount: 2
Fore
SplineSet
29.502 0 m 1
 29.502 722 l 1
 115.504 722 l 1
 116.326 720.356 116.756 718.529 116.756 716.663 c 0
 116.756 707.549 109.502 706.38 109.502 694 c 2
 109.502 414 l 1
 191.364 414 l 1
 204.492 656.271 309.835 730 385.838 730 c 0
 445.089 730 506.978 686.67 542.674 593.902 c 0
 572.362 516.748 576.008 427.05 576.008 359.504 c 0
 576.008 296.095 572.555 206.273 543.637 128.645 c 0
 507.803 32.457 445.144 -11.0146 386.385 -11.0146 c 0
 305.276 -11.0146 195.966 73.7297 190.239 340 c 1
 109.502 340 l 1
 109.502 0 l 1
 29.502 0 l 1
270 372.659 m 0
 270 143.053 333.992 67.9873 386.147 67.9873 c 0
 417.346 67.9873 453.27 95.4453 474.725 165.717 c 0
 493.728 227.951 495.479 301.614 495.479 348.897 c 0
 495.479 410.01 493.104 479.154 477.434 539.849 c 0
 455.825 623.543 416.174 654.01 383.275 654.01 c 0
 334.556 654.01 270 587.911 270 372.659 c 0
EndSplineSet
Validated: 1
EndChar

StartChar: afii10049
Encoding: 1071 1071 398
Width: 600
Flags: MW
LayerCount: 2
Fore
SplineSet
52 0 m 0
 219 322 l 0
 131.501 345.903 71.8574 428.394 71.8574 523.979 c 0
 71.8574 596.481 107.552 663.965 174.012 697.719 c 0
 219.752 720.95 265.333 722 312 722 c 0
 525 722 l 0
 525 0 l 0
 443 0 l 0
 443 319 l 0
 303 319 l 0
 143 0 l 0
 52 0 l 0
154.997 514.986 m 0
 154.997 468.944 177.341 425.926 219.169 404.763 c 0
 247.007 390.678 274.534 390 303 390 c 0
 443 390 l 0
 443 646 l 0
 312 646 l 0
 281.835 646 252.81 645.263 223.381 630.5 c 0
 178.371 607.921 154.997 561.985 154.997 514.986 c 0
EndSplineSet
Validated: 1
EndChar

StartChar: afii10066
Encoding: 1073 1073 400
Width: 600
Flags: MW
LayerCount: 2
Fore
SplineSet
144.997 271 m 0
 144.997 150 206 57.9941 305.602 57.9941 c 0
 382.884 57.9941 459.167 125.6 459.167 258.844 c 0
 459.167 404.202 378.128 470.103 301.758 470.103 c 0
 220.795 470.103 144.997 400.769 144.997 271 c 0
58 329 m 0
 58 398 64 482 89 551 c 0
 133 677 227 730 313 730 c 0
 352.237 730 404.812 752.715 407.76 758.36 c 0
 410.752 764.096 410.163 771.823 417 777.18 c 1
 460 702.18 l 1
 429.451 672.929 356.524 658 313 658 c 0
 269.463 658 184.568 636.971 155.74 485.162 c 1
 198.306 520.696 251.2 541.005 307.44 541.005 c 0
 427.751 541.005 543.113 445.084 543.113 262.304 c 0
 543.113 86.8043 430.326 -14 304.969 -14 c 0
 221 -14 154 20 112 84 c 0
 66 154 58 244 58 329 c 0
EndSplineSet
Validated: 1
EndChar

StartChar: afii10067
Encoding: 1074 1074 401
Width: 600
Flags: MW
LayerCount: 2
Fore
SplineSet
89.5 0 m 0
 89.5 530 l 0
 278.5 530 l 0
 322.899 530 360.081 529.633 405.256 515.213 c 0
 473.101 493.556 496.877 448.144 496.877 400.518 c 0
 496.877 349.705 464.309 303.489 406 284.086 c 1
 498 264.071 525 208.462 525 146.743 c 0
 525 92.1182 495.788 40.2197 418.089 15.9824 c 0
 368.195 0.418945 326.61 0 277.5 0 c 0
 89.5 0 l 0
169.5 70.9004 m 0
 291.5 70.9004 l 0
 322.704 70.9004 345.181 71.2266 376.362 79.6143 c 0
 426.254 93.0352 440.224 121.87 440.224 152.694 c 0
 440.224 183.867 425.305 234.101 371.713 245.029 c 0
 335.674 252.378 307.973 252.68 271.5 252.68 c 0
 169.5 252.68 l 0
 169.5 70.9004 l 0
169.5 321.273 m 0
 266.5 321.273 l 0
 298.645 321.273 325.104 321.337 358.34 328.191 c 0
 403.801 337.568 415.046 371.362 415.046 395.032 c 0
 415.046 418.894 403.176 442.386 355.3 453.493 c 0
 323.21 460.938 298.334 461.003 267.5 461.003 c 0
 169.5 461.003 l 0
 169.5 321.273 l 0
EndSplineSet
Validated: 1
EndChar

StartChar: afii10068
Encoding: 1075 1075 402
Width: 600
Flags: MW
LayerCount: 2
Fore
SplineSet
100.5 0 m 0
 100.5 531 l 0
 496.5 530 l 0
 496.5 457 l 0
 182.5 458 l 0
 182.5 0 l 0
 100.5 0 l 0
EndSplineSet
Validated: 1
EndChar

StartChar: afii10069
Encoding: 1076 1076 403
Width: 600
Flags: MW
LayerCount: 2
Fore
SplineSet
55.916 68 m 1
 105.516 68 l 1
 109.299 69.3066 112.337 72.2822 114.916 79 c 0
 121.958 97.3447 131.436 124.944 135.916 146 c 0
 155.679 238.876 168.038 355.594 175.866 459.7 c 0
 179.015 501.582 170.274 528.7 170.274 528.7 c 1
 520.084 528.7 l 1
 520.084 68 l 1
 580.084 68 l 1
 580.084 -168 l 1
 498.084 -168 l 1
 498.084 -1 l 1
 139.916 -1 l 1
 139.916 -167 l 1
 55.916 -167 l 1
 55.916 68 l 1
197.995 68 m 1
 438.084 68 l 1
 438.084 459.7 l 1
 254.645 459.7 l 1
 245.491 338.395 231.319 200.542 210.416 112 c 0
 207.041 97.7051 203.011 82.626 197.995 68 c 1
EndSplineSet
Validated: 33
EndChar

StartChar: afii10072
Encoding: 1078 1078 405
Width: 600
Flags: HMW
LayerCount: 2
Fore
SplineSet
21 0 m 1
 203.373 290.838 l 1
 46 530 l 1
 76 530 l 2
 96.2959 530 117.47 530.949 138 536 c 1
 257 336.116 l 1
 257 530 l 1
 343.002 530 l 1
 343.823 528.356 344.254 526.529 344.254 524.663 c 0
 344.254 515.549 337 514.38 337 502 c 2
 337 336 l 1
 452 536 l 1
 472.53 530.949 493.704 530 514 530 c 2
 544 530 l 1
 392.39 289.126 l 1
 577.5 0 l 1
 520.5 0 474.5 -4 474.5 -4 c 1
 344.128 222.008 l 1
 341.752 218.704 339.376 215.4 337 212.096 c 1
 337 0 l 1
 257 0 l 1
 257 219.574 l 1
 250.142 228.687 l 1
 124 -4 l 1
 124 -4 78 0 21 0 c 1
EndSplineSet
EndChar

StartChar: afii10073
Encoding: 1079 1079 406
Width: 600
Flags: MW
LayerCount: 2
Fore
SplineSet
90.6367 89.2803 m 0
 126.943 143.06 l 0
 163.25 114.249 198.574 74.874 286.887 74.874 c 0
 355.575 75.835 433.094 108.487 433.094 151.702 c 0
 433.094 178.592 429.168 236.212 286.887 236.212 c 0
 267.262 236.212 268.243 235.253 249.6 233.331 c 0
 249.6 314 l 0
 262.355 313.04 275.112 313.04 286.887 313.04 c 0
 408.562 313.04 429.168 343.771 429.168 378.344 c 0
 429.168 423.479 382.068 456.132 314.362 456.132 c 0
 251.562 456.132 188.762 444.607 143.625 399.471 c 0
 104.375 452.289 l 0
 156.381 507.029 236.844 532.959 313.381 532.959 c 0
 427.206 532.959 513.556 457.092 513.556 378.344 c 0
 513.556 327.445 475.287 292.873 424.262 278.467 c 0
 489.024 267.903 516.5 211.244 516.5 153.623 c 0
 516.5 63.3506 407.581 -0.0322266 285.906 -0.0322266 c 0
 202.5 -0.0322266 145.587 32.6191 90.6367 89.2803 c 0
EndSplineSet
Validated: 1
EndChar

StartChar: afii10074
Encoding: 1080 1080 407
Width: 600
Flags: MW
LayerCount: 2
Fore
SplineSet
82.999 0 m 0
 82.999 529 l 0
 166.999 529 l 1
 166.999 146.394 l 1
 433.999 529 l 0
 513.998 529 l 1
 513.998 0 l 0
 434.999 0 l 0
 435.999 416.162 l 1
 147.499 0 l 0
 82.999 0 l 0
EndSplineSet
Validated: 1
EndChar

StartChar: afii10077
Encoding: 1083 1083 410
Width: 600
Flags: MW
LayerCount: 2
Fore
SplineSet
18.5508 36 m 1
 46.501 111 l 1
 50.9443 105.644 50.5615 97.916 52.5068 92.1807 c 0
 54.4229 86.5352 73.7881 60.2275 92.9414 60.2275 c 0
 101.119 60.2275 106 66 111 79 c 0
 118.054 97.3396 127.52 124.944 132 146 c 0
 151.763 238.876 164.122 355.594 171.95 459.7 c 0
 175.099 501.582 166.359 528.7 166.359 528.7 c 0
 516.168 528.7 l 1
 516.168 -1 l 0
 434.168 -1 l 0
 434.168 459.7 l 0
 250.729 459.7 l 0
 241.575 338.395 227.403 200.542 206.5 112 c 0
 199.411 81.9694 189.426 48.4805 173.5 23 c 0
 158.5 -1 116.178 -8.17969 93.1035 -8.17969 c 0
 64.8154 -8.17969 38.4072 6.74902 18.5508 36 c 1
EndSplineSet
Validated: 33
EndChar

StartChar: afii10078
Encoding: 1084 1084 411
Width: 600
Flags: MW
LayerCount: 2
Fore
SplineSet
57 -1 m 0
 57 529.6 l 0
 121 529.6 l 0
 300 280.8 l 0
 482 530.6 l 0
 543 530.6 l 0
 543 -1 l 0
 466 -1 l 0
 466 394 l 0
 310 169.93 l 0
 279 169.93 l 0
 133 390.92 l 0
 133 -1 l 0
 57 -1 l 0
EndSplineSet
Validated: 1
EndChar

StartChar: afii10079
Encoding: 1085 1085 412
Width: 600
Flags: MW
LayerCount: 2
Fore
SplineSet
82.168 0 m 0
 82.168 528.7 l 0
 166.168 528.7 l 1
 166.168 308 l 0
 435.168 308 l 0
 435.168 528.7 l 0
 516.168 528.7 l 1
 516.168 -1 l 0
 434.168 -1 l 0
 434.168 239 l 0
 166.168 239 l 0
 166.168 0 l 0
 82.168 0 l 0
EndSplineSet
Validated: 1
EndChar

StartChar: afii10081
Encoding: 1087 1087 414
Width: 600
Flags: MW
LayerCount: 2
Fore
SplineSet
82.168 0 m 0
 82.168 528.7 l 0
 516.168 528.7 l 0
 516.168 -1 l 0
 434.168 -1 l 0
 434.168 459.7 l 0
 166.168 459.7 l 0
 166.168 0 l 0
 82.168 0 l 0
EndSplineSet
Validated: 1
EndChar

StartChar: afii10084
Encoding: 1090 1090 417
Width: 600
Flags: MW
LayerCount: 2
Fore
SplineSet
68 457 m 0
 68 530 l 0
 515 530 l 0
 515 457 l 0
 333 457 l 0
 333 -1 l 0
 251 -1 l 0
 251 457 l 0
 68 457 l 0
EndSplineSet
Validated: 1
EndChar

StartChar: afii10086
Encoding: 1092 1092 419
Width: 600
Flags: HMW
LayerCount: 2
Fore
SplineSet
261 672.4 m 1
 345 684.4 l 1
 345 537 l 1
 449 518 543 424 543 262 c 0
 543 107 452 10 345 -10 c 1
 345 -192 l 1
 261 -192 l 1
 261 -11 l 1
 145 9 57 116 57 261 c 0
 57 407 145 515 261 537 c 1
 261 672.4 l 1
261 60 m 1
 261 469 l 1
 195 450 140 378 140 268 c 0
 140 159 194 81 261 60 c 1
345 466 m 1
 345 61 l 1
 406 81 463 150 463 259 c 0
 463 375 405 444 345 466 c 1
EndSplineSet
Validated: 1
EndChar

StartChar: afii10088
Encoding: 1094 1094 421
Width: 600
Flags: MW
LayerCount: 2
Fore
SplineSet
80.5 0 m 0
 80.5 530 l 0
 164.5 530 l 1
 164.5 69 l 0
 430.5 69 l 0
 430.5 530 l 0
 511.5 530 l 1
 511.5 69 l 0
 577 69 l 1
 577 -168 l 0
 496 -168 l 0
 496 0 l 1
 80.5 0 l 0
EndSplineSet
Validated: 1
EndChar

StartChar: afii10089
Encoding: 1095 1095 422
Width: 600
Flags: MW
LayerCount: 2
Fore
SplineSet
82 409.711 m 0
 83 529 l 0
 167 529 l 0
 167 409.711 l 0
 167 373.711 167 332.711 186 295.711 c 0
 207 253.711 245 230.711 287 230.711 c 0
 338 230.711 385 264.711 409 308.711 c 0
 427 341.711 430 372.711 430 413.711 c 0
 430 529 l 0
 514 529 l 0
 514 529 514 206.31 514 0 c 25
 430 0 l 25
 430.39 100.117 431 256.711 431 256.711 c 0
 397 198.711 334 162.711 268 162.711 c 0
 199 162.711 134 200.711 103 270.711 c 0
 82 316.711 82 363.711 82 409.711 c 0
EndSplineSet
Validated: 1
EndChar

StartChar: afii10090
Encoding: 1096 1096 423
Width: 600
Flags: MW
LayerCount: 2
Fore
SplineSet
43.168 0 m 1
 43.168 530 l 1
 127.168 530 l 1
 127.168 69 l 1
 265 69 l 1
 265 530 l 1
 346 530 l 1
 346 69 l 1
 479.168 69 l 1
 479.168 530 l 1
 560.168 530 l 1
 560.168 0 l 1
 43.168 0 l 1
EndSplineSet
Validated: 1
EndChar

StartChar: afii10091
Encoding: 1097 1097 424
Width: 600
Flags: MW
LayerCount: 2
Fore
SplineSet
18 0 m 1
 18 530 l 1
 102 530 l 1
 102 69 l 1
 239.998 69 l 1
 239.998 530 l 1
 320.998 530 l 1
 320.998 69 l 1
 454 69 l 1
 454 530 l 1
 535 530 l 1
 535 69 l 1
 582 69 l 1
 582 -168 l 5
 501 -168 l 5
 501 0 l 1
 18 0 l 1
EndSplineSet
Validated: 1
EndChar

StartChar: afii10092
Encoding: 1098 1098 425
Width: 600
Flags: MW
LayerCount: 2
Fore
SplineSet
46 457.005 m 1
 46 530 l 1
 236.009 530 l 1
 236 321.273 l 1
 250 321.273 l 0
 361.5 321.273 416.832 313.207 451.025 288 c 0
 499.857 252 530 208.462 530 146.743 c 0
 530 92.1182 476.105 35.0146 417.598 15.9824 c 0
 390.172 7.06152 304.5 0 261 0 c 0
 156 0 l 1
 156 457.005 l 1
 46 457.005 l 1
236 70.9004 m 0
 275 70.9004 l 0
 306.203 70.9004 344.312 71.2266 373 79.6143 c 0
 418.9 93.0352 441.787 121.87 441.787 152.694 c 0
 441.787 183.867 418.027 234.101 368.723 245.029 c 0
 335.566 252.378 291.473 252.68 255 252.68 c 0
 236 252.68 l 0
 236 70.9004 l 0
EndSplineSet
Validated: 1
EndChar

StartChar: afii10093
Encoding: 1099 1099 426
Width: 600
Flags: MW
LayerCount: 2
Fore
SplineSet
57 0 m 0
 57 530 l 0
 143.003 530 l 0
 143.824 528.356 144.255 526.529 144.255 524.663 c 0
 144.255 515.549 137.003 514.38 137.003 502 c 0
 137 321.273 l 0
 151 321.273 l 0
 262.5 321.273 294.786 313.207 328.979 288 c 0
 377.812 252 397.919 208.462 397.919 146.743 c 0
 397.919 92.1182 354.059 35.0146 295.552 15.9824 c 0
 268.126 7.06152 205.5 -0 162 -0 c 0
 57 0 l 0
137 70.9004 m 0
 176 70.9004 l 0
 207.204 70.9004 222.267 71.2266 250.953 79.6143 c 0
 296.854 93.0352 309.706 121.87 309.706 152.694 c 0
 309.706 183.867 295.98 234.101 246.676 245.029 c 0
 213.52 252.378 192.473 252.68 156 252.68 c 0
 137 252.68 l 0
 137 70.9004 l 0
459.562 0 m 0
 459.562 530 l 0
 545.564 530 l 0
 546.386 528.356 546.816 526.529 546.816 524.663 c 0
 546.816 515.549 539.562 514.38 539.562 502 c 0
 539.562 0 l 1
 459.562 0 l 0
EndSplineSet
Validated: 1
EndChar

StartChar: afii10094
Encoding: 1100 1100 427
Width: 600
Flags: MW
LayerCount: 2
Fore
SplineSet
105 0 m 0
 105 530 l 0
 191.003 530 l 0
 191.824 528.356 192.255 526.529 192.255 524.663 c 0
 192.255 515.549 185.003 514.38 185.003 502 c 0
 185 321.273 l 0
 244.5 321.273 l 0
 356 321.273 395.29 313.207 431 288 c 0
 482 252 503 208.462 503 146.743 c 0
 503 92.1182 457.194 35.0144 396.089 15.9824 c 0
 367.446 7.06118 299 0 255.5 0 c 0
 105 0 l 0
185 70.9004 m 0
 269.5 70.9004 l 0
 300.704 70.9004 323.181 71.2266 354.362 79.6143 c 0
 404.254 93.0352 418.224 121.87 418.224 152.694 c 0
 418.224 183.867 403.305 234.101 349.713 245.029 c 0
 313.674 252.378 285.973 252.68 249.5 252.68 c 0
 185 252.68 l 0
 185 70.9004 l 0
EndSplineSet
Validated: 1
EndChar

StartChar: afii10095
Encoding: 1101 1101 428
Width: 600
Flags: MW
LayerCount: 2
Fore
SplineSet
75 85.0273 m 1
 134 154.027 l 1
 143.175 147.104 136.874 136.219 141.297 127.274 c 0
 144.366 121.067 187.835 57.9531 278.219 57.9531 c 0
 375.253 57.9531 452.645 132.885 453.03 253 c 1
 192 253 l 1
 192 317 l 1
 445.653 317 l 1
 423.824 406.015 355.767 464.049 271.244 464.049 c 0
 218.189 464.049 166.791 440.584 131 400.027 c 1
 83 456.027 l 1
 133.484 510.446 204.312 540.028 278.219 540.028 c 0
 427.952 540.028 539 422.136 539 262.519 c 0
 539 103.647 428.524 -13.001 272.949 -13.001 c 0
 187.82 -13.001 116.685 23.9248 75 85.0273 c 1
EndSplineSet
Validated: 1
EndChar

StartChar: afii10096
Encoding: 1102 1102 429
Width: 600
Flags: MW
LayerCount: 2
Fore
SplineSet
60.9902 0 m 1
 60.9902 530 l 1
 146.992 530 l 1
 147.814 528.356 148.244 526.529 148.244 524.663 c 0
 148.244 515.549 140.99 514.38 140.99 502 c 2
 140.99 317 l 1
 224.153 317 l 1
 239.453 450.359 308.276 541.005 386.987 541.005 c 0
 466.689 541.005 543.113 445.084 543.113 262.304 c 0
 543.113 86.8047 468.396 -14 385.35 -14 c 0
 298.356 -14 223.388 95.9821 221.047 253 c 1
 140.99 253 l 1
 140.99 0 l 1
 60.9902 0 l 1
383.224 470.103 m 0
 344.368 470.103 307.985 397.575 307.985 267.806 c 0
 307.985 137.225 344.586 57.9932 385.073 57.9932 c 0
 422.157 57.9932 458.767 125.6 458.767 258.844 c 0
 458.767 404.202 419.874 470.103 383.224 470.103 c 0
EndSplineSet
Validated: 1
EndChar

StartChar: afii10097
Encoding: 1103 1103 430
Width: 600
Flags: MW
LayerCount: 2
Fore
SplineSet
84 0 m 1
 232.84 214.691 l 1
 207.632 219.73 191.082 228.353 172.86 242 c 0
 124.793 278 105 321.538 105 383.257 c 0
 105 437.882 148.172 494.985 205.764 514.018 c 0
 232.76 522.938 279.116 530 313.191 530 c 2
 503 530 l 1
 503 0 l 1
 423 0 l 1
 423 208.727 l 1
 321.809 208.727 l 1
 319.232 208.729 l 1
 175 0 l 1
 84 0 l 1
189.776 377.306 m 0
 189.776 346.133 198.963 295.899 249.473 284.971 c 0
 283.439 277.622 289.32 277.32 317.891 277.32 c 2
 423 277.32 l 1
 423 459.1 l 1
 302.225 459.1 l 2
 277.781 459.1 274.479 458.773 245.091 450.386 c 0
 198.068 436.965 189.776 408.13 189.776 377.306 c 0
EndSplineSet
Validated: 1
EndChar

StartChar: afii10051
Encoding: 1026 1026 433
Width: 600
Flags: W
LayerCount: 2
Fore
SplineSet
14.5 650 m 1
 14.5 723 l 1
 380 723 l 1
 380 650 l 1
 206.5 650 l 1
 206.5 402.591 l 1
 241.657 459.09 315.584 491.421 374.568 491.421 c 0
 433.553 491.421 517.044 470.556 543.399 412.283 c 0
 562.229 370.649 562.5 315.106 562.5 276.124 c 2
 562.5 53 l 2
 562.5 1 560.501 -54 532.501 -106 c 0
 498.501 -168 423.501 -202 354.501 -202 c 0
 291.501 -202 229.501 -173 186.501 -122 c 0
 240.501 -56 l 0
 247.501 -62 242.501 -70 247.501 -77 c 0
 250.501 -80 295.501 -130 356.501 -130 c 0
 390.501 -130 435.501 -113 454.501 -84 c 0
 479.64 -46.7588 480.507 0.0175781 480.507 42.6104 c 2
 480.5 274.238 l 2
 480.499 309.499 480.285 352.34 454.499 384.626 c 0
 437.387 406.052 382.817 416.235 345.672 416.235 c 0
 308.526 416.235 246.741 390.782 228.577 365.421 c 0
 215.132 346.648 209.032 310.699 206.5 291.031 c 1
 206.5 -1 l 1
 124.5 -1 l 1
 124.5 650 l 1
 14.5 650 l 1
EndSplineSet
Validated: 1
EndChar

StartChar: afii10053
Encoding: 1028 1028 435
Width: 600
Flags: W
LayerCount: 2
Fore
SplineSet
56.9668 356.807 m 0
 56.9668 645.838 219.327 728 331.618 728 c 0
 427.542 728 514.176 672.042 553 585 c 1
 476 547 l 1
 470.578 550.801 470.716 557.019 470.716 558.375 c 0
 470.716 561.257 471.207 564.142 471.207 567.016 c 0
 471.207 572.403 469.516 575.396 467.216 579.368 c 0
 438.075 629.699 385.397 663.168 328.882 663.168 c 0
 236.062 663.168 152.535 574.353 138.164 413.998 c 1
 419.983 413.998 l 1
 419.983 339.998 l 1
 136.469 339.998 l 1
 143.802 159.787 233.848 57.9942 335.655 57.9941 c 0
 392.317 57.9941 449.702 90.8848 483 146 c 1
 543 107 l 1
 497.694 32.9785 417.217 -12.002 331.109 -12.002 c 0
 212.178 -12.002 56.9668 77.8506 56.9668 356.807 c 0
EndSplineSet
Validated: 1
EndChar

StartChar: afii10058
Encoding: 1033 1033 440
Width: 600
Flags: W
LayerCount: 2
Fore
SplineSet
18.5508 36 m 1
 46.501 111 l 1
 50.9443 105.644 50.5615 97.916 52.5068 92.1807 c 0
 54.4229 86.5352 64 60.2275 78 60.2275 c 0
 86.1777 60.2275 89.7607 124.526 91.2822 146 c 0
 97 226.702 103 530 105.06 651 c 0
 105.638 684.994 97.1045 723 97.1045 723 c 1
 374.795 723 l 1
 375.616 721.356 376.047 719.529 376.047 717.663 c 0
 376.047 708.549 368.792 707.38 368.792 695 c 2
 368.792 424 l 1
 380.795 424 l 2
 437.795 424 473.021 424 514.745 384 c 0
 556.56 343.914 580.384 284.98 580.384 200.903 c 0
 580.384 126.489 549.951 55.79 494.59 22.7725 c 0
 459.041 1.57031 423.624 1 388.633 1 c 2
 288.792 1 l 1
 288.792 651 l 1
 185 651 l 1
 181 515 174.356 198.768 165.782 112 c 0
 156 13 122 -8.17969 93.1035 -8.17969 c 0
 64.8154 -8.17969 38.4072 6.74902 18.5508 36 c 1
368.792 72 m 1
 393.961 72 l 2
 412.724 72 431.122 72.5469 449.872 86.5967 c 0
 479.87 109.078 496.387 157.379 496.387 209.01 c 0
 496.387 261.227 479.3 312.754 447.075 338.19 c 0
 425.406 355.296 403.866 356 381.935 356 c 2
 368.792 356 l 1
 368.792 72 l 1
EndSplineSet
Validated: 33
EndChar

StartChar: afii10059
Encoding: 1034 1034 441
Width: 600
Flags: W
LayerCount: 2
Fore
SplineSet
31 0 m 1
 31 722 l 1
 121 722 l 1
 121.822 720.356 122.252 718.529 122.252 716.663 c 0
 122.252 707.549 115 706.38 115 694 c 2
 115 413 l 1
 276.168 413 l 1
 276.168 723 l 1
 362.171 723 l 1
 362.992 721.356 363.423 719.529 363.423 717.663 c 0
 363.423 708.549 356.168 707.38 356.168 695 c 2
 356.168 424 l 1
 368.792 424 l 2
 428.792 424 465.871 424 509.792 384 c 0
 553.807 343.914 578.885 284.98 578.885 200.903 c 0
 578.885 126.489 546.851 55.79 488.576 22.7725 c 0
 451.156 1.57031 413.875 1 377.042 1 c 2
 276.168 1 l 1
 276.168 344 l 1
 115 344 l 1
 115 0 l 1
 31 0 l 1
356.168 72 m 1
 383.463 72 l 2
 403.824 72 423.79 72.5469 444.137 86.5967 c 0
 476.69 109.078 494.614 157.379 494.614 209.01 c 0
 494.614 261.227 476.071 312.754 441.103 338.19 c 0
 417.587 355.296 394.212 356 370.413 356 c 2
 356.168 356 l 1
 356.168 72 l 1
EndSplineSet
Validated: 1
EndChar

StartChar: afii10060
Encoding: 1035 1035 442
Width: 600
Flags: W
LayerCount: 2
Fore
SplineSet
30 650 m 1
 30 723 l 1
 395.5 723 l 1
 395.5 650 l 1
 222 650 l 1
 222 402.591 l 1
 257.157 459.09 331.084 491.421 390.068 491.421 c 0
 449.053 491.421 519.544 470.556 545.899 412.283 c 0
 564.729 370.649 565 315.106 565 276.124 c 2
 565 -1 l 1
 483.006 -1 l 1
 483 274.238 l 2
 482.999 309.499 482.785 352.34 456.999 384.626 c 0
 439.887 406.052 398.317 416.235 361.172 416.235 c 0
 324.026 416.235 262.241 390.782 244.077 365.421 c 0
 230.632 346.648 224.532 310.699 222 291.031 c 1
 222 -1 l 1
 140 -1 l 1
 140 650 l 1
 30 650 l 1
EndSplineSet
Validated: 1
EndChar

StartChar: afii10145
Encoding: 1039 1039 445
Width: 600
Flags: W
LayerCount: 2
Fore
SplineSet
63.168 0 m 1
 63.168 722 l 1
 153.168 722 l 1
 153.99 720.356 154.42 718.529 154.42 716.663 c 0
 154.42 707.549 147.168 706.38 147.168 694 c 2
 147.168 69 l 1
 459.168 69 l 1
 459.168 722 l 1
 547.168 722 l 1
 548.04 720.545 548.504 718.864 548.504 717.137 c 0
 548.504 708.363 540.168 708.006 540.168 696 c 2
 540.168 0 l 1
 346 0 l 1
 346 -168 l 1
 265 -168 l 1
 265 0 l 1
 63.168 0 l 1
EndSplineSet
Validated: 1
EndChar

StartChar: afii10099
Encoding: 1106 1106 446
Width: 600
Flags: W
LayerCount: 2
Fore
SplineSet
45 630 m 1
 45 692 l 1
 117.5 692 l 1
 117.5 770 l 1
 213.5 770 l 1
 213.879 768.886 214.072 767.712 214.072 766.526 c 0
 214.072 760.484 209.366 756.916 206.706 754.11 c 0
 202.77 749.956 202.5 746.931 202.5 743 c 2
 202.5 692 l 1
 333 692 l 1
 333 630 l 1
 202.5 630 l 1
 202.5 436 l 1
 241.371 495.002 306.62 542.003 378.457 542.003 c 0
 438.781 542.003 493.044 508.129 519.399 448.568 c 0
 538.229 406.014 538.5 362.334 538.5 321 c 2
 538 37 l 2
 538 -8.68457 536.772 -52.1055 514.163 -96.3809 c 0
 478.277 -166.657 404.238 -202.181 328.699 -202.181 c 0
 263.017 -202.181 204.902 -175.027 167 -128 c 1
 221 -56 l 1
 228.204 -61.9473 226.358 -69.4814 231.11 -77.248 c 0
 235.378 -84.2227 270.009 -130.016 334.016 -130.016 c 0
 378.791 -130.016 420.506 -106.298 440.459 -63.2402 c 0
 453.497 -35.1016 456 -7.27539 456 21 c 2
 456.5 319 l 2
 456.5 356.393 456.262 401.823 427.61 436.061 c 0
 408.597 458.781 382.408 469.58 355.841 469.58 c 0
 299.862 469.58 248.99 422.787 228.808 395.893 c 0
 206.787 366.55 202.5 340.651 202.5 305 c 2
 202.5 0 l 1
 117.5 0 l 1
 117.5 630 l 1
 45 630 l 1
EndSplineSet
Validated: 1
EndChar

StartChar: afii10101
Encoding: 1108 1108 448
Width: 600
Flags: W
LayerCount: 2
Fore
SplineSet
75 264.509 m 0
 75 423.38 185.476 540.028 341.051 540.028 c 0
 426.18 540.028 497.315 503.103 539 442 c 1
 480 373 l 1
 470.825 379.924 477.126 390.809 472.703 399.753 c 0
 469.634 405.96 426.164 469.074 335.78 469.074 c 0
 250.907 469.074 181.062 411.747 164.631 317 c 1
 422 317 l 1
 422 253 l 1
 161.678 253 l 1
 169.719 140.145 245.291 62.9785 342.756 62.9785 c 0
 395.811 62.9785 447.209 86.4434 483 127 c 1
 531 71 l 1
 480.516 16.5811 409.687 -13.001 335.78 -13.001 c 0
 186.047 -13.001 75 104.892 75 264.509 c 0
EndSplineSet
Validated: 1
EndChar

StartChar: afii10106
Encoding: 1113 1113 453
Width: 600
Flags: W
LayerCount: 2
Fore
SplineSet
18.5508 36 m 1
 46.501 111 l 1
 50.9443 105.644 50.5615 97.916 52.5068 92.1807 c 0
 54.4229 86.5352 64 60.2275 78 60.2275 c 0
 86.1777 60.2275 89.7607 124.526 91.2822 146 c 0
 94.8243 195.994 97.9746 331.415 101.455 456.5 c 0
 102.034 490.494 93.5 528.5 93.5 528.5 c 1
 375.003 528.699 l 1
 375.824 527.056 376.255 525.197 376.255 523.331 c 0
 376.255 514.217 369 513.38 369 501 c 2
 369 320.273 l 1
 380.869 320.273 l 2
 470.349 320.273 495.047 312.207 523.704 287 c 0
 564.631 251 581.483 207.462 581.483 145.743 c 0
 581.483 91.1182 544.725 34.0146 495.688 14.9824 c 0
 472.702 6.06152 424.605 -1 389.697 -1 c 2
 369 -1 l 1
 287 -1 l 1
 287.864 456.5 l 1
 179.79 456.5 l 1
 176.054 319.374 171.321 168.054 165.782 112 c 0
 156 13 122 -8.17969 93.1035 -8.17969 c 0
 64.8154 -8.17969 38.4072 6.74902 18.5508 36 c 1
369 69.9004 m 1
 384 69.9004 l 2
 407.352 69.9004 432.104 70.2266 455.438 78.6143 c 0
 492.774 92.0352 503.229 120.87 503.229 151.694 c 0
 503.229 182.867 492.063 233.101 451.959 244.029 c 0
 424.99 251.378 411.093 251.68 383.799 251.68 c 2
 369 251.68 l 1
 369 69.9004 l 1
EndSplineSet
Validated: 33
EndChar

StartChar: afii10107
Encoding: 1114 1114 454
Width: 600
Flags: W
LayerCount: 2
Fore
SplineSet
30.168 0 m 1
 30.168 528.7 l 1
 114.168 528.7 l 1
 114.168 308 l 1
 281.168 308 l 1
 281.168 528.7 l 1
 362.168 528.7 l 1
 362.168 528.67 l 1
 368.171 528.668 l 1
 368.992 527.024 369.423 525.197 369.423 523.331 c 0
 369.423 514.217 362.168 513.38 362.168 501 c 2
 362.168 320.273 l 1
 374.037 320.273 l 2
 463.517 320.273 495.047 312.207 523.704 287 c 0
 564.631 251 581.483 207.462 581.483 145.743 c 0
 581.483 91.1182 544.725 34.0146 495.688 14.9824 c 0
 472.702 6.06152 417.773 -1 382.865 -1 c 2
 362.168 -1 l 1
 280.168 -1 l 1
 280.168 239 l 1
 114.168 239 l 1
 114.168 0 l 1
 30.168 0 l 1
362.168 69.9004 m 1
 391.933 69.9004 l 2
 415.284 69.9004 432.104 70.2266 455.438 78.6143 c 0
 492.774 92.0352 503.229 120.87 503.229 151.694 c 0
 503.229 182.867 492.063 233.101 451.959 244.029 c 0
 424.99 251.378 404.261 251.68 376.967 251.68 c 2
 362.168 251.68 l 1
 362.168 69.9004 l 1
EndSplineSet
Validated: 1
EndChar

StartChar: afii10108
Encoding: 1115 1115 455
Width: 600
Flags: W
LayerCount: 2
Fore
SplineSet
45 630 m 1
 45 692 l 1
 117.5 692 l 1
 117.5 770 l 1
 213.5 770 l 1
 213.879 768.886 214.072 767.712 214.072 766.526 c 0
 214.072 760.484 209.366 756.916 206.706 754.11 c 0
 202.77 749.956 202.5 746.931 202.5 743 c 2
 202.5 692 l 1
 333 692 l 1
 333 630 l 1
 202.5 630 l 1
 202.5 436 l 1
 241.371 495.002 306.62 542.003 378.457 542.003 c 0
 438.781 542.003 493.044 508.129 519.399 448.568 c 0
 538.229 406.014 538.5 362.334 538.5 321 c 2
 538.5 0 l 1
 456.5 0 l 1
 456.5 319 l 2
 456.5 356.393 456.262 401.823 427.61 436.061 c 0
 408.597 458.781 382.408 469.58 355.841 469.58 c 0
 299.862 469.58 248.99 422.787 228.808 395.893 c 0
 206.787 366.55 202.5 340.651 202.5 305 c 2
 202.5 0 l 1
 117.5 0 l 1
 117.5 630 l 1
 45 630 l 1
EndSplineSet
Validated: 1
EndChar

StartChar: afii10193
Encoding: 1119 1119 458
Width: 600
Flags: W
LayerCount: 2
Fore
SplineSet
73.168 0 m 1
 73.168 530 l 1
 157.168 530 l 1
 157.168 69 l 1
 449.168 69 l 1
 449.168 530 l 1
 530.168 530 l 1
 530.168 0 l 1
 346 -3.33761e-15 l 1
 346 -168 l 1
 265 -168 l 1
 265 -1.55431e-15 l 1
 73.168 0 l 1
EndSplineSet
Validated: 1
EndChar

StartChar: afii10050
Encoding: 1168 1168 459
Width: 600
Flags: W
LayerCount: 2
Fore
SplineSet
78 0 m 1
 78 723 l 1
 439 723 l 1
 439 917 l 1
 521 917 l 1
 521 651 l 1
 155 651 l 1
 155 414 l 2
 155 340 l 1
 155 72 l 2
 155.083 43.917 155.61 28.0801 156 0 c 1
 78 0 l 1
EndSplineSet
Validated: 1
EndChar

StartChar: afii10098
Encoding: 1169 1169 460
Width: 600
Flags: W
LayerCount: 2
Fore
SplineSet
100.5 0 m 1
 100.5 531 l 1
 414.5 530.143 l 1
 414.5 674.7 l 1
 496.5 674.7 l 1
 496.5 457 l 1
 182.5 458 l 1
 182.5 0 l 1
 100.5 0 l 1
EndSplineSet
Validated: 1
EndChar

StartChar: afii61352
Encoding: 8470 8470 461
Width: 600
Flags: W
LayerCount: 2
Fore
SplineSet
472.749 545.011 m 0
 516.797 545.011 561.632 477.808 561.632 338.756 c 0
 561.632 188.793 513.703 120.94 468.931 120.94 c 0
 420.458 120.94 377.149 198.446 377.149 324.869 c 0
 377.149 457.779 421.873 545.011 472.749 545.011 c 0
432.099 330.214 m 0
 432.099 233.196 451.406 187.925 469.848 187.925 c 0
 487.588 187.925 507.311 230.473 507.311 330.207 c 0
 507.311 429.509 488.882 480 469.78 480 c 0
 450.846 480 432.099 430.057 432.099 330.214 c 0
365.093 63 m 0
 579.005 63 l 0
 579.005 0 l 0
 365.093 0 l 0
 365.093 63 l 0
30.0049 0 m 0
 30.0049 722 l 0
 109.005 722 l 0
 259.505 247 l 0
 259.505 723 l 0
 345.505 723 l 0
 346.434 716.255 343.421 710.683 342.126 708.22 c 0
 339.349 702.938 337.505 700.058 337.505 692 c 0
 337.505 -1 l 0
 273.505 -1 l 0
 108.005 508 l 0
 108.005 0 l 0
 30.0049 0 l 0
EndSplineSet
Validated: 1
EndChar

StartChar: Hbar
Encoding: 294 294 462
Width: 600
Flags: W
LayerCount: 2
Fore
SplineSet
73 722 m 1
 163 722 l 1
 163.822 720.356 164.252 718.529 164.252 716.663 c 0
 164.252 707.549 157 706.38 157 694 c 2
 157 625.001 l 1
 440 625.001 l 1
 440 722 l 1
 528 722 l 1
 528.872 720.545 529.336 718.865 529.336 717.137 c 0
 529.336 708.364 521 708.006 521 696 c 2
 521 625.001 l 1
 570 625.001 l 1
 570 563.001 l 1
 521 563.001 l 1
 521 -1 l 1
 439 -1 l 1
 439 344 l 1
 157 344 l 1
 157 0 l 1
 73 0 l 1
 73 563.001 l 1
 30 563.001 l 1
 30 625.001 l 1
 73 625.001 l 1
 73 722 l 1
440 563.001 m 1
 157 563.001 l 1
 157 413 l 1
 440 413 l 1
 440 563.001 l 1
EndSplineSet
Validated: 1
EndChar

StartChar: Tbar
Encoding: 358 358 485
Width: 600
Flags: W
LayerCount: 2
Fore
SplineSet
46 723 m 1
 546 723 l 1
 546 650 l 1
 333 650 l 1
 333 420 l 1
 497 420 l 1
 497 355 l 1
 333 355 l 1
 333 -1 l 1
 251 -1 l 1
 251 355 l 1
 99 355 l 1
 99 420 l 1
 251 420 l 1
 251 650 l 1
 46 650 l 1
 46 723 l 1
EndSplineSet
Validated: 1
EndChar

StartChar: tbar
Encoding: 359 359 491
Width: 600
Flags: W
LayerCount: 2
Fore
SplineSet
228 671 m 1
 319 686 l 1
 320 684 320 682 320 680 c 0
 320 671 314 665 312 655 c 0
 307 625 299 530 299 530 c 1
 472 530 l 1
 472 461 l 1
 298 461 l 1
 293.232 414 290.32 367 288.947 320 c 1
 447.002 320 l 1
 447.002 255 l 1
 288 255 l 1
 288 254 l 2
 288 177 291 157 291 152 c 0
 300 89 341 67 380 67 c 0
 413 67 454 82 499 115 c 1
 525 49 l 1
 480 16 419 -10 356 -10 c 0
 302 -10 260 11 235 46 c 0
 204 90 204 143 204 190 c 0
 204 211.662 204.232 233.324 204.681 255 c 1
 97.001 255 l 1
 97.001 320 l 1
 206.666 320 l 1
 208.543 366.824 211.367 413.777 215 461 c 1
 91 461 l 1
 92 529 l 1
 218 529 l 1
 228 671 l 1
EndSplineSet
Validated: 1
EndChar

StartChar: Uogonek
Encoding: 370 370 499
Width: 600
Flags: W
LayerCount: 2
Fore
SplineSet
68 722 m 1
 159 722 l 1
 159.791 720.163 160.2 718.172 160.2 716.15 c 0
 160.2 709.235 155.631 704.498 152.571 700.195 c 0
 148.296 694.182 148 690.266 148 685 c 2
 148 248 l 2
 148 212.142 148.701 177.155 165.336 141.578 c 0
 191.299 86.0527 245.805 55.9209 303.067 55.9209 c 0
 359.414 55.9209 413.783 85.3438 440.467 140.549 c 0
 458.225 177.288 459 213.693 459 251 c 2
 459 722 l 1
 536 722 l 1
 536 253 l 2
 536 200.192 534.408 150.173 507.085 99.8135 c 0
 495.935 79.2644 482.798 61.9004 466.5 47 c 0
 427.542 12.0078 345.896 -66.5967 336.056 -77.7402 c 0
 327.912 -86.9648 316.548 -100.705 316.548 -117.842 c 0
 316.548 -135.64 329.349 -150.797 350.447 -150.797 c 0
 357.638 -150.797 366.177 -149.114 378.357 -144.679 c 0
 396.457 -138.087 408.134 -130.111 415.5 -124 c 1
 415.5 -177 l 1
 392.78 -196.689 364.2 -204.002 335.4 -204.002 c 0
 275.358 -204.002 244.551 -171.745 244.551 -133.094 c 0
 244.551 -98.8728 271.365 -57.173 322.078 -12.3105 c 1
 315.236 -12.8192 308.357 -13.0732 301.461 -13.0732 c 0
 216.265 -13.0732 136.155 24.9775 96.1416 99.2168 c 0
 69.4092 148.814 68 197.96 68 249 c 2
 68 722 l 1
EndSplineSet
Validated: 1
EndChar

StartChar: IJ
Encoding: 306 306 515
Width: 600
Flags: W
LayerCount: 2
Fore
SplineSet
30 -1 m 1
 30 67 l 1
 108 67 l 1
 108 654 l 1
 38 654 l 1
 38 722 l 1
 585 722 l 1
 585 654 l 1
 514 654 l 1
 514 61 l 2
 514 9 514 -46 486 -98 c 0
 452 -160 390 -194 321 -194 c 0
 258 -194 196 -165 153 -114 c 1
 207 -48 l 1
 214 -54 209 -62 214 -69 c 0
 217 -72 262 -122 323 -122 c 0
 357 -122 389 -105 408 -76 c 0
 433.138 -38.7588 434 8.01758 434 50.6104 c 2
 434 60 l 1
 434 654 l 1
 189 654 l 1
 189 66 l 1
 288 66 l 1
 288 -1 l 1
 30 -1 l 1
EndSplineSet
Validated: 1
EndChar

StartChar: ij
Encoding: 307 307 516
Width: 600
Flags: W
LayerCount: 2
Fore
SplineSet
30 0 m 1
 30 67 l 1
 156 67 l 1
 156 462 l 1
 37 462 l 1
 37 530 l 1
 521 530 l 1
 521 37 l 2
 521 -8.68457 519.772 -52.1055 497.163 -96.3809 c 0
 461.277 -166.657 387.238 -202.181 311.699 -202.181 c 0
 246.017 -202.181 187.902 -175.027 150 -128 c 1
 204 -56 l 1
 211.204 -61.9473 209.358 -69.4814 214.11 -77.248 c 0
 218.378 -84.2227 253.009 -130.016 317.016 -130.016 c 0
 361.791 -130.016 403.506 -106.298 423.459 -63.2402 c 0
 436.497 -35.1016 437 -7.27539 437 21 c 2
 437 461 l 1
 240 461 l 1
 240 67 l 1
 340 67 l 1
 340 0 l 1
 30 0 l 1
139.981 700.486 m 0
 139.981 733.264 166.81 760 199.99 760 c 0
 233.158 760 260.019 733.273 260.019 700.486 c 0
 260.019 667.72 233.182 640.992 199.99 640.992 c 0
 166.818 640.992 139.981 667.716 139.981 700.486 c 0
419.981 700.486 m 0
 419.981 733.264 446.81 760 479.99 760 c 0
 513.158 760 540.019 733.273 540.019 700.486 c 0
 540.019 667.72 513.182 640.992 479.99 640.992 c 0
 446.818 640.992 419.981 667.716 419.981 700.486 c 0
EndSplineSet
Validated: 1
EndChar

StartChar: napostrophe
Encoding: 329 329 519
Width: 600
Flags: W
LayerCount: 2
Fore
SplineSet
180 0 m 0
 180 529 l 0
 265 529 l 0
 265 436 l 0
 303.871 495.002 348.12 542.003 419.957 542.003 c 0
 480.281 542.003 534.544 508.129 560.899 448.568 c 0
 579.729 406.014 580 362.334 580 321 c 0
 580 0 l 0
 498 0 l 0
 498 319 l 0
 498 356.393 497.762 401.823 469.11 436.061 c 0
 450.097 458.781 423.908 469.58 397.341 469.58 c 0
 341.362 469.58 311.49 422.787 291.308 395.893 c 0
 269.287 366.55 265 340.651 265 305 c 0
 265 0 l 0
 180 0 l 0
EndSplineSet
Refer: 56 8217 N 1 0 0 1 -190 0 2
Validated: 1
EndChar

StartChar: longs
Encoding: 383 383 526
Width: 600
Flags: W
LayerCount: 2
Fore
SplineSet
198 0 m 1
 198 550 l 1
 198 597 200 641 227 685 c 0
 264 745 334 777 408 777 c 0
 475 777 532 751 570 705 c 1
 532 628 l 1
 528 628 523 630 523 638 c 0
 522 643 523 646 519 651 c 0
 497 685 455 712 404 712 c 0
 360 712 319 692 297 653 c 0
 278.818 621.182 277.992 584.405 277.992 549.431 c 0
 277.992 545.934 278 542.455 278 539 c 2
 278 -0 l 1
 198 0 l 1
EndSplineSet
Validated: 1
EndChar

StartChar: endash
Encoding: 8211 8211 541
Width: 600
Flags: W
LayerCount: 2
Fore
SplineSet
123 403 m 0
 477 403 l 0
 477 326 l 0
 123 326 l 0
 123 403 l 0
EndSplineSet
Validated: 1
EndChar

StartChar: emdash
Encoding: 8212 8212 542
Width: 600
Flags: W
LayerCount: 2
Fore
SplineSet
53.5205 403 m 0
 555.521 403 l 0
 555.521 326 l 0
 53.5205 326 l 0
 53.5205 403 l 0
EndSplineSet
Validated: 1
EndChar

StartChar: afii00208
Encoding: 8213 8213 543
Width: 600
Flags: W
LayerCount: 2
Fore
SplineSet
0 403 m 0
 600 403 l 0
 600 326 l 0
 0 326 l 0
 0 403 l 0
EndSplineSet
Validated: 1
EndChar

StartChar: quotereversed
Encoding: 8219 8219 545
Width: 600
Flags: W
LayerCount: 2
Fore
SplineSet
201 642.835 m 0
 201 702.133 240.266 738.93 281.48 738.93 c 0
 319.616 738.93 348.18 707.85 348.18 672.853 c 0
 348.18 641.694 326.105 628.371 315.868 621.562 c 0
 305.802 614.867 288.726 604.197 288.726 580.342 c 0
 288.726 561.166 300.225 541.362 305.883 532.066 c 0
 317.201 513.471 336.671 485.274 364.152 460 c 0
 324.152 425 l 0
 243.446 506.943 201 582.506 201 642.835 c 0
EndSplineSet
Validated: 1
EndChar

StartChar: uni201F
Encoding: 8223 8223 546
Width: 600
Flags: W
LayerCount: 2
Fore
SplineSet
81 642.835 m 0
 81 702.133 120.266 738.93 161.48 738.93 c 0
 199.616 738.93 228.18 707.85 228.18 672.853 c 0
 228.18 641.694 206.105 628.371 195.868 621.562 c 0
 185.802 614.867 168.726 604.197 168.726 580.342 c 0
 168.726 561.166 180.225 541.362 185.883 532.066 c 0
 197.201 513.471 216.671 485.274 244.152 460 c 0
 204.152 425 l 0
 123.446 506.943 81 582.506 81 642.835 c 0
321 642.835 m 0
 321 702.133 360.266 738.93 401.48 738.93 c 0
 439.616 738.93 468.18 707.85 468.18 672.853 c 0
 468.18 641.694 446.105 628.371 435.868 621.562 c 0
 425.802 614.867 408.726 604.197 408.726 580.342 c 0
 408.726 561.166 420.225 541.362 425.883 532.066 c 0
 437.201 513.471 456.671 485.274 484.152 460 c 0
 444.152 425 l 0
 363.446 506.943 321 582.506 321 642.835 c 0
EndSplineSet
Validated: 1
EndChar

StartChar: perthousand
Encoding: 8240 8240 547
Width: 600
Flags: W
LayerCount: 2
Fore
SplineSet
288.973 291.512 m 0
 338.75 291.512 380.852 226.955 380.852 138.593 c 0
 380.852 52.5283 339.494 -11.6123 289.712 -11.6123 c 0
 239.551 -11.6123 197.942 53.3164 197.942 139.854 c 0
 197.942 228.932 240.399 291.512 288.973 291.512 c 0
287.862 230.41 m 0
 277.497 230.41 261.847 212.529 261.847 143.835 c 0
 261.847 65.3584 279.212 50.3164 288.688 50.3164 c 0
 299.145 50.3164 314.517 68.5459 314.517 135.554 c 0
 314.517 218.072 296.375 230.41 287.862 230.41 c 0
493.056 291.512 m 0
 542.833 291.512 584.935 226.955 584.935 138.593 c 0
 584.935 52.5283 543.577 -11.6123 493.795 -11.6123 c 0
 443.634 -11.6123 402.025 53.3164 402.025 139.854 c 0
 402.025 228.932 444.482 291.512 493.056 291.512 c 0
491.945 230.41 m 0
 481.58 230.41 465.93 212.529 465.93 143.835 c 0
 465.93 65.3584 483.295 50.3164 492.771 50.3164 c 0
 503.228 50.3164 518.6 68.5459 518.6 135.554 c 0
 518.6 218.072 500.458 230.41 491.945 230.41 c 0
262.935 722 m 0
 340.935 722 l 0
 137 0 l 0
 63 0 l 0
 262.935 722 l 0
113.965 735.106 m 0
 163.742 735.106 205.844 670.55 205.844 582.188 c 0
 205.844 496.123 164.486 431.982 114.704 431.982 c 0
 64.543 431.982 22.9346 496.911 22.9346 583.448 c 0
 22.9346 672.526 65.3916 735.106 113.965 735.106 c 0
112.854 674.005 m 0
 102.489 674.005 86.8389 656.124 86.8389 587.43 c 0
 86.8389 508.953 104.204 493.911 113.68 493.911 c 0
 124.137 493.911 139.509 512.141 139.509 579.148 c 0
 139.509 661.667 121.367 674.005 112.854 674.005 c 0
EndSplineSet
Validated: 1
EndChar

StartChar: minute
Encoding: 8242 8242 548
Width: 600
Flags: W
LayerCount: 2
Fore
SplineSet
304 740 m 0
 408 740 l 0
 304 541 l 0
 232 541 l 0
 304 740 l 0
EndSplineSet
Validated: 1
EndChar

StartChar: uni207F
Encoding: 8319 8319 552
Width: 600
Flags: W
LayerCount: 2
Fore
SplineSet
234.7 292 m 1
 163.7 292 l 1
 163.7 609.4 l 1
 234.7 609.4 l 1
 234.7 572.254 l 1
 260.29 599.043 293.064 617.202 330.274 617.202 c 0
 370.351 617.202 406.611 594.449 423.983 555.188 c 0
 436.306 534.252 436.3 513.199 436.3 494.6 c 0
 436.3 292 l 1
 367.1 292 l 1
 367.1 493.4 l 0
 367.1 508.995 366.42 525.467 352.097 537.219 c 0
 342.656 548.5 329.919 553.748 316.704 553.748 c 0
 288.466 553.748 259.671 541.027 248.482 533.534 c 0
 236.795 517.959 234.7 505.617 234.7 485 c 0
 234.7 292 l 1
EndSplineSet
Validated: 33
EndChar

StartChar: franc
Encoding: 8355 8355 553
Width: 600
Flags: W
LayerCount: 2
Fore
SplineSet
203 0 m 1
 121 0 l 1
 121 238 l 1
 31.5 238 l 5
 31.5 308 l 5
 121 308 l 1
 121 389.7 l 1
 31.5 389.7 l 5
 31.5 459.7 l 5
 121 459.7 l 1
 121 723 l 1
 537 723 l 1
 537 652 l 1
 203 652 l 1
 203 459.7 l 1
 473 459.7 l 1
 473 389.7 l 1
 203 389.7 l 1
 203 308 l 1
 473 308 l 1
 473 238 l 1
 203 238 l 1
 203 0 l 1
EndSplineSet
Validated: 1
EndChar

StartChar: lira
Encoding: 8356 8356 554
Width: 600
Flags: W
LayerCount: 2
Fore
SplineSet
494 663 m 1
 443 599 l 1
 433.543 605.934 434.27 615.246 427.512 622.673 c 0
 422.593 628.078 390.006 656.128 341.348 656.128 c 0
 279.173 656.128 217.781 609.4 217.781 512.955 c 0
 217.781 488.175 221.729 463.315 227.168 438 c 1
 342 438 l 1
 342 372 l 1
 242.811 372 l 1
 247.695 351.21 252.202 329.938 255.127 308 c 1
 342 308 l 1
 342 242 l 1
 258.082 242 l 1
 255.383 191.273 240.743 144.015 216 104 c 1
 226.25 105.791 236.644 106.675 247.063 106.675 c 0
 324.103 106.675 372.006 58.916 438.359 58.916 c 0
 470.325 58.916 500.468 70.8545 524 91 c 1
 555 31 l 1
 528.906 10.2529 484.714 -17.1631 434.141 -17.1631 c 0
 360.259 -17.1631 311.803 34.666 227.673 34.666 c 0
 203.994 34.666 159.283 30.2656 85 -9 c 1
 55 57 l 1
 108.912 81.9053 122.949 87.4531 141.287 115.98 c 0
 164.591 152.231 178.401 195.481 180.828 242 c 1
 88 242 l 1
 88 308 l 1
 177.098 308 l 1
 173.828 329.627 168.962 350.876 163.82 372 c 1
 88 372 l 1
 88 438 l 1
 148.325 438 l 1
 143.399 462.328 139.93 486.842 139.93 511.928 c 0
 139.93 641.884 235.856 722.006 343.371 722.006 c 0
 398.585 722.006 452.418 701.138 494 663 c 1
EndSplineSet
Validated: 1
EndChar

StartChar: peseta
Encoding: 8359 8359 555
Width: 600
VWidth: 0
LayerCount: 2
Fore
SplineSet
388.5 -11.5 m 0
 357.27 -11.5 328.739 11 314.281 46 c 0
 296.353 90 296.353 143 296.353 190 c 0
 296.353 280 298.666 370 302.714 461 c 1
 281.746 461 l 1
 274.142 410.722 256.422 366.791 229.234 342 c 0
 204.748 320 180.817 319 155.773 319 c 2
 94 319 l 1
 94 0 l 1
 30 0 l 1
 30 722 l 1
 152.435 722 l 2
 178.591 722 203.078 721 228.679 697 c 0
 264.79 663.602 284.179 598.333 285.878 529 c 1
 304.449 529 l 1
 310.232 671 l 1
 373.822 686 l 1
 374.222 684 374.222 682 374.222 680 c 0
 374.222 671 371.829 665 371.032 655 c 0
 369.039 625 365.85 530 365.85 530 c 1
 445.984 530 l 1
 457.305 537.697 470.109 542.004 484.123 542.004 c 0
 519.772 542.004 551.77 512.905 574.04 459 c 1
 551.731 386 l 1
 550.8 386.487 548.964 388.387 548.985 395.318 c 0
 548.997 399.389 549.344 402.17 547.857 406.383 c 0
 538.685 432.386 502.868 479.074 479.687 479.074 c 0
 461.3 479.074 445.423 449.386 445.423 406.786 c 0
 445.423 389 448.25 363.327 461.533 342.429 c 0
 476.732 318.517 515.391 306.562 542.625 272.983 c 0
 571.142 237.822 578 189.926 578 153.285 c 0
 578 73.3789 543.6 -12 477.734 -12 c 0
 441.125 -12 424.936 -11.5 388.5 -11.5 c 0
94 646 m 1
 93.4434 390 l 1
 146.658 390 l 2
 159.592 390 172.525 391 185.459 405 c 0
 204.859 426 215.021 469 215.021 515 c 0
 215.021 562 204.397 608 183.61 630 c 0
 169.754 645 156.358 646 142.501 646 c 2
 94 646 l 1
400.904 461 m 1
 365.451 461 l 1
 362.661 392 361.465 323 361.465 254 c 0
 361.465 177 362.661 157 362.661 152 c 0
 366.248 89 383.944 58.5 406.5 58.5 c 0
 425.585 58.5 449.177 58 477.052 58 c 0
 500.283 58 518.861 92.168 518.861 141.757 c 0
 518.861 160.887 516.051 188.765 502.635 209.208 c 0
 490.639 227.486 470.577 241.548 450.193 257.732 c 0
 437.112 268.119 391.478 301.799 391.478 394.231 c 0
 391.478 417.944 394.776 440.725 400.904 461 c 1
EndSplineSet
Validated: 1
EndChar

StartChar: afii61248
Encoding: 8453 8453 556
Width: 600
Flags: W
LayerCount: 2
Fore
SplineSet
283.761 679.636 m 0
 288.072 673.316 l 1
 247.486 625.851 l 1
 239.977 631.518 l 0
 230.531 638.645 233.237 648.645 233.237 648.645 c 1
 229.746 653.912 210.607 677.537 173.89 677.537 c 0
 131.154 677.537 96.4844 645.232 96.4844 589.563 c 0
 96.4844 531.947 132.233 494.489 177.378 494.489 c 0
 200.958 494.489 223.973 504.954 240.002 523.117 c 0
 247.61 531.738 l 1
 284.896 488.237 l 1
 278.831 481.699 l 0
 251.626 452.375 213.506 436.499 173.891 436.499 c 0
 93.1464 436.499 33.5 500.602 33.5 585.255 c 0
 33.5 669.673 93.0828 733.014 176.525 733.014 c 0
 222.014 733.014 260.919 713.116 283.761 679.636 c 0
456.72 280.503 m 0
 522.757 280.503 584.557 229.017 584.557 136.172 c 0
 584.557 46.8694 524.123 -7 455.484 -7 c 0
 382.728 -7 321.434 52.8338 321.434 135.338 c 0
 321.434 218.954 383.086 280.503 456.72 280.503 c 0
522.584 134.562 m 0
 522.584 199.631 485.511 225.052 453.879 225.052 c 0
 420.156 225.052 385.492 196.539 385.492 138.802 c 0
 385.492 80.4686 420.687 48.9961 455.807 48.9961 c 0
 487.818 48.9961 522.584 75.2277 522.584 134.562 c 0
EndSplineSet
Refer: 274 8260 N 1 0 0 1 0 0 2
Validated: 1
EndChar

StartChar: afii61289
Encoding: 8467 8467 557
Width: 600
Flags: W
LayerCount: 2
Fore
SplineSet
391.934 73 m 0
 416.934 73 437.104 77 466.426 79 c 1
 464.842 0 l 1
 458.501 0 452.955 0 446.614 0 c 0
 434.728 0 402.382 1.00684 391.287 1.00684 c 0
 330.257 1.00684 273.152 38.1045 228.369 108.823 c 1
 194.273 90.7275 156.603 80.2998 115.819 80.2998 c 1
 116.465 152.293 l 1
 143.896 152.293 169.919 160.893 193.977 175.715 c 1
 160.164 256.647 135.027 364.422 135.027 496.573 c 0
 135.027 586.3 163.241 777 298.151 777 c 0
 391.644 777 436.786 681.079 436.786 498.299 c 0
 436.786 384.276 384.318 241.971 293.623 156.265 c 1
 321.919 102.248 356.229 73 391.934 73 c 0
292.469 706.098 m 0
 258.496 706.098 219.325 634.171 223.145 503.801 c 0
 226.255 397.671 240.186 307.942 261.131 238.307 c 1
 317.708 311.261 352.84 416.271 352.84 494.839 c 0
 352.839 640.197 342.146 706.098 292.469 706.098 c 0
EndSplineSet
Validated: 33
EndChar

StartChar: estimated
Encoding: 8494 8494 559
Width: 600
Flags: W
LayerCount: 2
Fore
SplineSet
310 730 m 0
 396 730 521.318 668.39 545.318 478.202 c 0
 549.166 451.584 550.957 426.254 550.957 395.504 c 0
 550.957 378.288 550.396 360.649 549.318 342.652 c 1
 180.318 342.652 l 1
 180.318 144.407 l 1
 225.082 85.277 285.653 66.8535 327 66.8535 c 0
 380 66.8535 455.318 96.1055 490.318 150.43 c 1
 536.318 97.8271 l 1
 491.318 25.502 396 -12 320 -12 c 0
 177 -12 40.3184 113.898 40.3184 350.964 c 0
 40.3184 609.459 183 730 310 730 c 0
180.318 411.909 m 1
 410.318 411.909 l 1
 410.318 599.326 l 1
 379.99 634.474 341.466 656.061 304 656.061 c 0
 270.445 656.061 219.672 637.142 180.318 582.906 c 1
 180.318 411.909 l 1
EndSplineSet
Validated: 1
EndChar

StartChar: uni2070
Encoding: 8304 8304 560
Width: 600
Flags: W
LayerCount: 2
Fore
SplineSet
111.421 519.826 m 0
 111.421 663.292 206.906 752.429 301.052 752.429 c 0
 392.423 752.429 487.929 668.658 487.929 515.904 c 0
 487.929 361.776 388.031 289.378 302.057 289.378 c 0
 208.396 289.378 111.421 374.719 111.421 519.826 c 0
192.583 456.54 m 1
 382.195 646.639 l 1
 358.118 682.119 327.81 697.153 300.192 697.153 c 0
 248.342 697.153 183.097 638.896 183.097 528.414 c 0
 183.097 501.842 186.663 477.731 192.583 456.54 c 1
416.957 510.168 m 0
 416.957 539.643 413.405 565.971 407.944 587.205 c 1
 218.554 399.677 l 1
 242.831 364.308 274.271 346.425 304.262 346.425 c 0
 350.45 346.425 416.957 389.56 416.957 510.168 c 0
EndSplineSet
Validated: 1
EndChar

StartChar: uni2075
Encoding: 8309 8309 561
Width: 600
Flags: W
LayerCount: 2
Fore
SplineSet
142.517 515.406 m 1
 163.102 743.381 l 1
 462.73 743.381 l 1
 462.73 686.887 l 1
 227.735 686.887 l 1
 220.087 577.594 l 1
 249.341 587.313 276.833 591.524 306.062 591.524 c 0
 403.266 591.524 484.022 538.476 484.022 442.446 c 0
 484.022 342.646 398.531 289.381 298.484 289.381 c 0
 229.57 289.381 164.637 314.378 125.507 359.096 c 0
 120.71 364.578 l 1
 186.631 402.856 l 1
 189.606 401.213 l 0
 201.111 394.859 198.402 382.774 198.402 382.774 c 1
 201.518 378.75 239.695 344.658 297.699 344.658 c 0
 356.417 344.658 406.67 379.687 406.67 443.385 c 0
 406.67 509.384 354.064 542.404 296.339 542.404 c 0
 258.98 542.404 220.187 528.086 194.042 502.596 c 0
 191.479 500.097 l 1
 142.517 515.406 l 1
EndSplineSet
Validated: 1
EndChar

StartChar: uni2076
Encoding: 8310 8310 562
Width: 600
Flags: W
LayerCount: 2
Fore
SplineSet
152.124 641.661 m 1
 187.893 720.961 264.443 754.258 333.92 754.258 c 0
 380.823 754.258 427.7 739.313 461.979 712.774 c 0
 467.801 708.266 l 1
 414.936 662.951 l 1
 411.276 665.012 l 0
 400.227 671.233 399.175 679.785 397.162 681.343 c 0
 394.361 683.512 370.034 698.373 333.92 698.373 c 0
 295.952 698.373 212.727 682.014 202.906 550.9 c 1
 230.849 577.962 272.166 593.347 316.601 593.347 c 0
 399.306 593.347 478.476 538.926 478.476 443.502 c 0
 478.476 348.736 399.367 290.001 310.303 290.001 c 0
 258.444 290.001 205.526 310.029 171.109 350.631 c 0
 133.404 395.053 127.172 451.682 127.172 503.844 c 0
 127.172 546.3 131.859 598.355 152.124 641.661 c 1
404.283 440.455 m 0
 404.283 512.826 353.644 538.071 310.303 538.071 c 0
 270.925 538.071 229.65 515.704 205.05 482.648 c 1
 204.467 477.338 204.514 473.555 204.514 468.492 c 0
 204.514 397.402 251.925 345.886 312.664 345.886 c 0
 358.784 345.886 404.283 375.762 404.283 440.455 c 0
EndSplineSet
Validated: 1
EndChar

StartChar: uni2077
Encoding: 8311 8311 563
Width: 600
Flags: W
LayerCount: 2
Fore
SplineSet
137.406 684.449 m 1
 137.406 743.381 l 1
 471.391 743.381 l 1
 471.391 709.241 l 1
 470.614 707.901 l 0
 432.213 641.63 396.305 574.538 362.947 506.734 c 0
 330.374 438.848 300.235 370.263 272.575 301.088 c 0
 271.067 297.315 l 1
 186.288 297.315 l 1
 189.844 305.666 l 0
 223.579 383.647 259.859 460.985 298.635 537.588 c 0
 323.564 586.833 349.628 635.94 376.538 684.449 c 1
 137.406 684.449 l 1
EndSplineSet
Validated: 1
EndChar

StartChar: uni2078
Encoding: 8312 8312 564
Width: 600
Flags: W
LayerCount: 2
Fore
SplineSet
147.604 640.414 m 0
 147.604 704.679 218.761 754.904 307.328 754.904 c 0
 392.259 754.904 461.314 707.684 461.314 644.689 c 0
 461.314 602.146 427.99 562.384 380.154 538.953 c 1
 439.447 513.425 480.337 468.45 480.337 416.915 c 0
 480.337 344.817 400.652 289.962 299.377 289.962 c 0
 200.105 289.962 120.752 343.287 120.752 413.976 c 0
 120.752 465.262 164.608 511.921 224.663 537.659 c 1
 178.336 560.37 147.604 597.821 147.604 640.414 c 0
403.696 417.43 m 0
 403.696 455.602 359.449 493.107 288.488 511.017 c 1
 235.652 493.432 198.21 457.481 198.21 420.526 c 0
 198.21 381.106 242.148 346.492 302.293 346.492 c 0
 361.424 346.492 403.696 379.907 403.696 417.43 c 0
386.964 635.425 m 0
 386.964 667.323 351.552 695.43 302.433 695.43 c 0
 254.469 695.43 220.982 668.43 220.982 638.63 c 0
 220.982 591.356 299.724 561.627 314.74 556.653 c 1
 358.416 575.698 386.964 606.135 386.964 635.425 c 0
EndSplineSet
Validated: 1
EndChar

StartChar: uni2079
Encoding: 8313 8313 565
Width: 600
Flags: W
LayerCount: 2
Fore
SplineSet
451.903 395.794 m 1
 415.981 323.107 341.166 290.001 270.153 290.001 c 0
 221.696 290.001 175.575 304.974 140.574 331.443 c 0
 134.633 335.936 l 1
 187.441 381.203 l 1
 191.031 379.35 l 0
 203.685 372.819 202.674 364.359 206.301 362.112 c 1
 206.301 362.112 231.837 347.104 271.728 347.104 c 0
 311.299 347.104 356.088 362.48 378.991 404.236 c 1
 383.563 413.34 396.661 440.974 400.362 495.472 c 1
 371.909 470.742 332.475 457.007 289.834 457.007 c 0
 204.78 457.007 127.959 513.189 127.959 601.975 c 0
 127.959 691.254 205.407 753.647 296.92 753.647 c 0
 357.71 753.647 425.637 724.653 456.695 654.409 c 0
 470.581 623.422 476.901 584.714 476.901 528.834 c 0
 476.901 456.063 461.676 416.604 451.903 395.794 c 1
202.151 603.804 m 0
 202.151 542.396 248.229 512.282 296.132 512.282 c 0
 334.854 512.282 374.721 532.521 398.202 562.253 c 1
 399 569.732 399.56 575.354 399.56 581.252 c 0
 399.56 654.495 350.944 697.763 295.345 697.763 c 0
 246.22 697.763 202.151 664.283 202.151 603.804 c 0
EndSplineSet
Validated: 1
EndChar

StartChar: arrowleft
Encoding: 8592 8592 570
Width: 600
Flags: W
LayerCount: 2
Fore
SplineSet
204 130 m 1
 30 347 l 1
 30 372 l 1
 206 573 l 1
 245 515 l 1
 128.181 392 l 1
 570 392 l 1
 570 315 l 1
 127.6 315 l 1
 245 180 l 1
 204 130 l 1
EndSplineSet
Validated: 1
EndChar

StartChar: arrowright
Encoding: 8594 8594 571
Width: 600
Flags: W
LayerCount: 2
Fore
SplineSet
396 130 m 1
 355 180 l 1
 472.4 315 l 1
 30 315 l 1
 30 392 l 1
 471.819 392 l 1
 355 515 l 1
 394 573 l 1
 570 372 l 1
 570 347 l 1
 396 130 l 1
EndSplineSet
Validated: 1
EndChar

StartChar: arrowboth
Encoding: 8596 8596 572
Width: 600
Flags: W
LayerCount: 2
Fore
SplineSet
396 130 m 1
 355 180 l 1
 472.4 315 l 1
 127.6 315 l 1
 245 180 l 1
 204 130 l 1
 30 347 l 1
 30 372 l 1
 206 573 l 1
 245 515 l 1
 128.181 392 l 1
 471.819 392 l 1
 355 515 l 1
 394 573 l 1
 570 372 l 1
 570 347 l 1
 396 130 l 1
EndSplineSet
Validated: 1
EndChar

StartChar: arrowupdn
Encoding: 8597 8597 573
Width: 600
Flags: W
LayerCount: 2
Fore
SplineSet
521 235 m 1
 304 -39 l 1
 279 -39 l 1
 78 237 l 1
 136 276 l 1
 259 109.181 l 1
 259 594.4 l 1
 124 427 l 1
 74 468 l 1
 291 742 l 1
 316 742 l 1
 517 466 l 1
 459 427 l 1
 336 593.819 l 1
 336 108.6 l 1
 471 276 l 1
 521 235 l 1
EndSplineSet
Validated: 1
EndChar

StartChar: partialdiff
Encoding: 8706 8706 574
Width: 600
Flags: W
LayerCount: 2
Fore
SplineSet
305.228 470.011 m 0
 226.957 470.011 144.996 405.543 144.996 269.224 c 0
 144.996 134.476 222.952 57.9971 306.097 57.9971 c 0
 371.358 57.9971 459.002 107.826 459.002 268.758 c 0
 459.002 429.627 365.393 470.011 305.228 470.011 c 0
171 760 m 1
 265 779 l 1
 443 678 543.317 511 543.317 293.321 c 0
 543.317 230.904 536.102 156.905 498.489 94.5254 c 0
 455.932 23.9473 383.677 -14.0059 306.684 -14.0059 c 0
 172.735 -14.0059 56.7783 98.7598 56.7783 258.02 c 0
 56.7783 417.046 169.434 541.31 298.018 541.31 c 0
 351.944 541.31 401.981 518.882 437 481 c 1
 387 610 289 706 171 760 c 1
EndSplineSet
Validated: 1
EndChar

StartChar: radical
Encoding: 8730 8730 580
Width: 600
Flags: W
LayerCount: 2
Fore
SplineSet
282.404 115.374 m 1
 523 770 l 1
 592 735 l 1
 324 0 l 1
 240 0 l 1
 124.113 367.642 l 1
 30 191 l 1
 30 341.354 l 1
 95 460 l 1
 174 460 l 1
 282.404 115.374 l 1
EndSplineSet
Validated: 1
EndChar

StartChar: infinity
Encoding: 8734 8734 581
Width: 600
Flags: W
LayerCount: 2
Fore
SplineSet
293.419 323.776 m 1
 270.708 283.209 223.257 246.299 180.664 246.299 c 0
 116.399 246.299 56.1738 328.607 56.1738 406.161 c 0
 56.1738 480.531 113.399 561 176.389 561 c 0
 236.389 561 283.15 521.819 306.581 479.933 c 1
 329.292 520.5 376.743 561 419.336 561 c 0
 483.601 561 543.826 478.691 543.826 401.138 c 0
 543.826 326.768 486.601 246.299 423.611 246.299 c 0
 363.611 246.299 316.85 281.89 293.419 323.776 c 1
414.347 311.404 m 0
 446.247 311.404 484.352 362.413 484.352 405.424 c 0
 484.352 447.424 447.352 496.747 417.552 496.747 c 0
 370.278 496.747 330.549 407.796 325.575 394.647 c 1
 344.62 356.402 374.347 311.404 414.347 311.404 c 0
185.653 495.895 m 0
 153.753 495.895 115.648 444.886 115.648 401.875 c 0
 115.648 359.875 152.648 310.552 182.448 310.552 c 0
 229.722 310.552 269.451 399.503 274.425 412.651 c 1
 255.38 450.896 225.653 495.895 185.653 495.895 c 0
EndSplineSet
Validated: 1
EndChar

StartChar: orthogonal
Encoding: 8735 8735 582
Width: 600
Flags: W
LayerCount: 2
Fore
SplineSet
183 268 m 1
 488 268 l 1
 488 197 l 1
 112 197 l 1
 112 573 l 1
 183 573 l 1
 183 268 l 1
EndSplineSet
Validated: 1
EndChar

StartChar: intersection
Encoding: 8745 8745 583
Width: 600
Flags: W
LayerCount: 2
Fore
SplineSet
68 100 m 1
 68 274.927 l 0
 68 327.734 69.5918 377.754 96.915 428.113 c 0
 137.982 503.802 219.09 541 302.539 541 c 0
 387.735 541 467.845 502.949 507.858 428.71 c 0
 534.591 379.112 536 329.967 536 278.927 c 0
 536 100 l 1
 456 100 l 1
 456 279.927 l 0
 456 315.785 455.299 350.771 438.664 386.349 c 0
 412.701 441.874 358.195 472.006 300.933 472.006 c 0
 244.586 472.006 190.217 442.583 163.533 387.378 c 0
 145.775 350.639 145 314.233 145 276.927 c 0
 145 100 l 1
 68 100 l 1
EndSplineSet
Validated: 1
EndChar

StartChar: integral
Encoding: 8747 8747 584
Width: 600
Flags: W
LayerCount: 2
Fore
SplineSet
345 37 m 1
 345 -8.68457 347.773 -52.1055 325.164 -96.3809 c 0
 289.277 -166.657 235.239 -202.181 159.7 -202.181 c 0
 94.0166 -202.181 55.9033 -175.027 18.001 -128 c 1
 72.001 -56 l 1
 79.2041 -61.9473 77.3584 -69.4814 82.1104 -77.248 c 0
 86.3779 -84.2227 101.009 -130.016 165.017 -130.016 c 0
 209.792 -130.016 231.507 -106.298 251.46 -63.2402 c 0
 264.496 -35.1016 265 -7.27539 265 21 c 2
 265 550 l 2
 265 597 267 641 294 685 c 0
 331 745 381 777 455 777 c 0
 522 777 559 751 597 705 c 1
 559 628 l 1
 555 628 550 630 550 638 c 1
 549 643 550 646 546 651 c 0
 524 685 502 712 451 712 c 0
 407 712 386 692 364 653 c 0
 345.818 621.182 345 584.405 345 549.431 c 0
 345 539 l 1
 345 37 l 1
EndSplineSet
Validated: 33
EndChar

StartChar: equivalence
Encoding: 8801 8801 587
Width: 600
Flags: W
LayerCount: 2
Fore
SplineSet
62 217 m 25
 538 217 l 25
 538 146 l 25
 62 146 l 25
 62 217 l 25
62 541 m 25
 538 541 l 25
 538 470 l 25
 62 470 l 25
 62 541 l 25
62 379 m 25
 538 379 l 25
 538 308 l 25
 62 308 l 25
 62 379 l 25
EndSplineSet
Validated: 1
EndChar

StartChar: SF100000
Encoding: 9472 9472 590
Width: 600
Flags: W
LayerCount: 2
Fore
SplineSet
0 359.5 m 0
 600 359.5 l 0
 600 282.5 l 0
 0 282.5 l 0
 0 359.5 l 0
EndSplineSet
Validated: 1
EndChar

StartChar: SF110000
Encoding: 9474 9474 591
Width: 600
Flags: W
LayerCount: 2
Fore
SplineSet
338.5 820 m 0
 338.5 -180 l 0
 261.5 -180 l 0
 261.5 820 l 0
 338.5 820 l 0
EndSplineSet
Validated: 1
EndChar

StartChar: SF010000
Encoding: 9484 9484 592
Width: 600
Flags: W
LayerCount: 2
Fore
SplineSet
261.5 359.5 m 5
 600 359.5 l 5
 600 282.5 l 5
 338.5 282.5 l 5
 338.5 -180 l 1
 261.5 -180 l 1
 261.5 359.5 l 5
EndSplineSet
Validated: 1
EndChar

StartChar: SF030000
Encoding: 9488 9488 593
Width: 600
Flags: W
LayerCount: 2
Fore
SplineSet
338.5 359.5 m 5
 338.5 -180 l 1
 261.5 -180 l 1
 261.5 282.5 l 5
 0 282.5 l 5
 0 359.5 l 5
 338.5 359.5 l 5
EndSplineSet
Validated: 1
EndChar

StartChar: SF020000
Encoding: 9492 9492 594
Width: 600
Flags: W
LayerCount: 2
Fore
SplineSet
261.5 282.5 m 5
 261.5 820 l 1
 338.5 820 l 1
 338.5 359.5 l 5
 600 359.5 l 5
 600 282.5 l 5
 261.5 282.5 l 5
EndSplineSet
Validated: 1
EndChar

StartChar: SF040000
Encoding: 9496 9496 595
Width: 600
Flags: W
LayerCount: 2
Fore
SplineSet
338.5 282.5 m 5
 0 282.5 l 5
 0 359.5 l 5
 261.5 359.5 l 5
 261.5 820 l 1
 338.5 820 l 1
 338.5 282.5 l 5
EndSplineSet
Validated: 1
EndChar

StartChar: SF080000
Encoding: 9500 9500 596
Width: 600
Flags: W
LayerCount: 2
Fore
SplineSet
261.5 820 m 1
 338.5 820 l 1
 338.5 359.5 l 5
 600 359.5 l 5
 600 282.5 l 5
 338.5 282.5 l 5
 338.5 -180 l 1
 261.5 -180 l 1
 261.5 820 l 1
EndSplineSet
Validated: 1
EndChar

StartChar: SF090000
Encoding: 9508 9508 597
Width: 600
Flags: W
LayerCount: 2
Fore
SplineSet
338.5 -180 m 1
 261.5 -180 l 1
 261.5 282.5 l 5
 0 282.5 l 5
 0 359.5 l 5
 261.5 359.5 l 5
 261.5 820 l 1
 338.5 820 l 1
 338.5 -180 l 1
EndSplineSet
Validated: 1
EndChar

StartChar: SF060000
Encoding: 9516 9516 598
Width: 600
Flags: W
LayerCount: 2
Fore
SplineSet
600 359.5 m 5
 600 282.5 l 5
 338.5 282.5 l 5
 338.5 -180 l 1
 261.5 -180 l 1
 261.5 282.5 l 5
 0 282.5 l 5
 0 359.5 l 5
 600 359.5 l 5
EndSplineSet
Validated: 1
EndChar

StartChar: SF070000
Encoding: 9524 9524 599
Width: 600
Flags: W
LayerCount: 2
Fore
SplineSet
0 282.5 m 5
 0 359.5 l 5
 261.5 359.5 l 5
 261.5 820 l 1
 338.5 820 l 1
 338.5 359.5 l 5
 600 359.5 l 5
 600 282.5 l 5
 0 282.5 l 5
EndSplineSet
Validated: 1
EndChar

StartChar: SF050000
Encoding: 9532 9532 600
Width: 600
Flags: W
LayerCount: 2
Fore
SplineSet
338.5 282.5 m 5
 338.5 -180 l 1
 261.5 -180 l 1
 261.5 282.5 l 5
 0 282.5 l 5
 0 359.5 l 5
 261.5 359.5 l 5
 261.5 820 l 1
 338.5 820 l 1
 338.5 359.5 l 5
 600 359.5 l 5
 600 282.5 l 5
 338.5 282.5 l 5
EndSplineSet
Validated: 1
EndChar

StartChar: SF510000
Encoding: 9554 9554 603
Width: 600
Flags: W
LayerCount: 2
Fore
SplineSet
261.5 460 m 5
 600 459.5 l 5
 600 382.5 l 5
 338.5 382.5 l 5
 338.5 259.5 l 5
 600 259.5 l 5
 600 182.5 l 5
 338.5 182.5 l 5
 338.5 -180 l 1
 261.5 -180 l 1
 261.5 460 l 5
 261.5 460 l 5
EndSplineSet
Validated: 5
EndChar

StartChar: SF520000
Encoding: 9555 9555 604
Width: 600
Flags: W
LayerCount: 2
Fore
SplineSet
161.5 359.5 m 5
 600 359.5 l 5
 600 282.5 l 5
 438.5 282.5 l 5
 438.5 -180 l 1
 361.5 -180 l 1
 361.5 282.5 l 5
 238.5 282.5 l 5
 238.5 -180 l 1
 161.5 -180 l 1
 161.5 359.5 l 5
EndSplineSet
Validated: 1
EndChar

StartChar: SF390000
Encoding: 9556 9556 605
Width: 600
Flags: W
LayerCount: 2
Fore
SplineSet
238.5 -180 m 1
 161.5 -180 l 1
 161.5 459.5 l 5
 600 459.5 l 5
 600 382.5 l 5
 238.5 382.5 l 5
 238.5 -180 l 1
361.5 259.5 m 5
 600 259.5 l 5
 600 182.5 l 5
 438.5 182.5 l 5
 438.5 -180 l 1
 361.5 -180 l 1
 361.5 259.5 l 5
EndSplineSet
Validated: 1
EndChar

StartChar: SF220000
Encoding: 9557 9557 606
Width: 600
Flags: W
LayerCount: 2
Fore
SplineSet
338.5 460 m 5
 338.5 460 l 5
 338.5 -180 l 1
 261.5 -180 l 1
 261.5 182.5 l 5
 0 182.5 l 5
 0 259.5 l 5
 261.5 259.5 l 5
 261.5 382.5 l 5
 0 382.5 l 5
 0 459.5 l 5
 338.5 460 l 5
EndSplineSet
Validated: 5
EndChar

StartChar: SF210000
Encoding: 9558 9558 607
Width: 600
Flags: W
LayerCount: 2
Fore
SplineSet
438.5 359.5 m 1
 438.5 -180 l 1
 361.5 -180 l 1
 361.5 282.5 l 1
 238.5 282.5 l 1
 238.5 -180 l 1
 161.5 -180 l 1
 161.5 282.5 l 1
 0 282.5 l 1
 0 359.5 l 1
 438.5 359.5 l 1
EndSplineSet
Validated: 1
EndChar

StartChar: SF250000
Encoding: 9559 9559 608
Width: 600
Flags: W
LayerCount: 2
Fore
SplineSet
361.5 -180 m 1
 361.5 382.5 l 1
 0 382.5 l 1
 0 459.5 l 1
 438.5 459.5 l 1
 438.5 -180 l 1
 361.5 -180 l 1
238.5 259.5 m 1
 238.5 -180 l 1
 161.5 -180 l 1
 161.5 182.5 l 1
 0 182.5 l 1
 0 259.5 l 1
 238.5 259.5 l 1
EndSplineSet
Validated: 1
EndChar

StartChar: SF500000
Encoding: 9560 9560 609
Width: 600
Flags: W
LayerCount: 2
Fore
SplineSet
261.5 180 m 5
 261.5 180 l 5
 261.5 820 l 1
 338.5 820 l 1
 338.5 457.5 l 5
 600 457.5 l 5
 600 380.5 l 5
 338.5 380.5 l 5
 338.5 257.5 l 5
 600 257.5 l 5
 600 180.5 l 5
 261.5 180 l 5
EndSplineSet
Validated: 5
EndChar

StartChar: SF490000
Encoding: 9561 9561 610
Width: 600
Flags: W
LayerCount: 2
Fore
SplineSet
161.5 280.5 m 5
 161.5 820 l 1
 238.5 820 l 1
 238.5 357.5 l 5
 361.5 357.5 l 5
 361.5 820 l 1
 438.5 820 l 1
 438.5 357.5 l 5
 600 357.5 l 5
 600 280.5 l 5
 161.5 280.5 l 5
EndSplineSet
Validated: 1
EndChar

StartChar: SF380000
Encoding: 9562 9562 611
Width: 600
Flags: W
LayerCount: 2
Fore
SplineSet
238.5 820 m 1
 238.5 257.5 l 5
 600 257.5 l 5
 600 180.5 l 5
 161.5 180.5 l 5
 161.5 820 l 1
 238.5 820 l 1
361.5 380.5 m 5
 361.5 820 l 1
 438.5 820 l 1
 438.5 457.5 l 5
 600 457.5 l 5
 600 380.5 l 5
 361.5 380.5 l 5
EndSplineSet
Validated: 1
EndChar

StartChar: SF280000
Encoding: 9563 9563 612
Width: 600
Flags: W
LayerCount: 2
Fore
SplineSet
338.5 180 m 5
 0 180.5 l 5
 0 257.5 l 5
 261.5 257.5 l 5
 261.5 380.5 l 5
 0 380.5 l 5
 0 457.5 l 5
 261.5 457.5 l 5
 261.5 820 l 1
 338.5 820 l 1
 338.5 180 l 5
 338.5 180 l 5
EndSplineSet
Validated: 5
EndChar

StartChar: SF270000
Encoding: 9564 9564 613
Width: 600
Flags: W
LayerCount: 2
Fore
SplineSet
438.5 280.5 m 1
 0 280.5 l 1
 0 357.5 l 1
 161.5 357.5 l 1
 161.5 820 l 1
 238.5 820 l 1
 238.5 357.5 l 1
 361.5 357.5 l 1
 361.5 820 l 1
 438.5 820 l 1
 438.5 280.5 l 1
EndSplineSet
Validated: 1
EndChar

StartChar: SF260000
Encoding: 9565 9565 614
Width: 600
Flags: W
LayerCount: 2
Fore
SplineSet
361.5 820 m 1
 438.5 820 l 1
 438.5 180.5 l 1
 0 180.5 l 1
 0 257.5 l 1
 361.5 257.5 l 1
 361.5 820 l 1
238.5 380.5 m 1
 0 380.5 l 1
 0 457.5 l 1
 161.5 457.5 l 1
 161.5 820 l 1
 238.5 820 l 1
 238.5 380.5 l 1
EndSplineSet
Validated: 1
EndChar

StartChar: SF360000
Encoding: 9566 9566 615
Width: 600
Flags: W
LayerCount: 2
Fore
SplineSet
261.5 820 m 1
 338.5 820 l 1
 338.5 459.5 l 1
 600 459.5 l 1
 600 382.5 l 1
 338.5 382.5 l 1
 338.5 259.5 l 1
 600 259.5 l 1
 600 182.5 l 1
 338.5 182.5 l 1
 338.5 -180 l 1
 261.5 -180 l 1
 261.5 820 l 1
EndSplineSet
Validated: 1
EndChar

StartChar: SF370000
Encoding: 9567 9567 616
Width: 600
Flags: W
LayerCount: 2
Fore
SplineSet
238.5 -180 m 1
 161.5 -180 l 1
 161.5 820 l 1
 238.5 820 l 1
 238.5 -180 l 1
361.5 820 m 1
 438.5 820 l 1
 438.5 359.5 l 1
 600 359.5 l 1
 600 282.5 l 1
 438.5 282.5 l 1
 438.5 -180 l 1
 361.5 -180 l 1
 361.5 820 l 1
EndSplineSet
Validated: 1
EndChar

StartChar: SF420000
Encoding: 9568 9568 617
Width: 600
Flags: W
LayerCount: 2
Fore
SplineSet
238.5 -180 m 1
 161.5 -180 l 1
 161.5 820 l 1
 238.5 820 l 1
 238.5 -180 l 1
361.5 820 m 1
 438.5 820 l 1
 438.5 459.5 l 1
 600 459.5 l 1
 600 382.5 l 1
 361.5 382.5 l 1
 361.5 820 l 1
361.5 259.5 m 1
 600 259.5 l 1
 600 182.5 l 1
 438.5 182.5 l 1
 438.5 -180 l 1
 361.5 -180 l 1
 361.5 259.5 l 1
EndSplineSet
Validated: 1
EndChar

StartChar: SF190000
Encoding: 9569 9569 618
Width: 600
Flags: W
LayerCount: 2
Fore
SplineSet
338.5 820 m 1
 338.5 -180 l 1
 261.5 -180 l 1
 261.5 182.5 l 1
 0 182.5 l 1
 0 259.5 l 1
 261.5 259.5 l 1
 261.5 382.5 l 1
 0 382.5 l 1
 0 459.5 l 1
 261.5 459.5 l 1
 261.5 820 l 1
 338.5 820 l 1
EndSplineSet
Validated: 1
EndChar

StartChar: SF200000
Encoding: 9570 9570 619
Width: 600
Flags: W
LayerCount: 2
Fore
SplineSet
361.5 -180 m 1
 361.5 820 l 1
 438.5 820 l 1
 438.5 -180 l 1
 361.5 -180 l 1
238.5 820 m 1
 238.5 -180 l 1
 161.5 -180 l 1
 161.5 282.5 l 1
 0 282.5 l 1
 0 359.5 l 1
 161.5 359.5 l 1
 161.5 820 l 1
 238.5 820 l 1
EndSplineSet
Validated: 1
EndChar

StartChar: SF230000
Encoding: 9571 9571 620
Width: 600
Flags: W
LayerCount: 2
Fore
SplineSet
361.5 -180 m 1
 361.5 820 l 1
 438.5 820 l 1
 438.5 -180 l 1
 361.5 -180 l 1
238.5 820 m 1
 238.5 382.5 l 1
 0 382.5 l 1
 0 459.5 l 1
 161.5 459.5 l 1
 161.5 820 l 1
 238.5 820 l 1
238.5 259.5 m 1
 238.5 -180 l 1
 161.5 -180 l 1
 161.5 182.5 l 1
 0 182.5 l 1
 0 259.5 l 1
 238.5 259.5 l 1
EndSplineSet
Validated: 1
EndChar

StartChar: SF470000
Encoding: 9572 9572 621
Width: 600
Flags: W
LayerCount: 2
Fore
SplineSet
0 459.5 m 1
 600 459.5 l 1
 600 382.5 l 1
 0 382.5 l 1
 0 459.5 l 1
0 259.5 m 1
 600 259.5 l 1
 600 182.5 l 1
 338.5 182.5 l 1
 338.5 -180 l 1
 261.5 -180 l 1
 261.5 182.5 l 1
 0 182.5 l 1
 0 259.5 l 1
EndSplineSet
Validated: 1
EndChar

StartChar: SF480000
Encoding: 9573 9573 622
Width: 600
Flags: W
LayerCount: 2
Fore
SplineSet
0 359.5 m 1
 600 359.5 l 1
 600 282.5 l 1
 438.5 282.5 l 1
 438.5 -180 l 1
 361.5 -180 l 1
 361.5 282.5 l 1
 238.5 282.5 l 1
 238.5 -180 l 1
 161.5 -180 l 1
 161.5 282.5 l 1
 0 282.5 l 1
 0 359.5 l 1
EndSplineSet
Validated: 1
EndChar

StartChar: SF410000
Encoding: 9574 9574 623
Width: 600
Flags: W
LayerCount: 2
Fore
SplineSet
0 459.5 m 1
 600 459.5 l 1
 600 382.5 l 1
 0 382.5 l 1
 0 459.5 l 1
161.5 182.5 m 1
 0 182.5 l 1
 0 259.5 l 1
 238.5 259.5 l 1
 238.5 -180 l 1
 161.5 -180 l 1
 161.5 182.5 l 1
438.5 182.5 m 1
 438.5 -180 l 1
 361.5 -180 l 1
 361.5 259.5 l 1
 600 259.5 l 1
 600 182.5 l 1
 438.5 182.5 l 1
EndSplineSet
Validated: 1
EndChar

StartChar: SF450000
Encoding: 9575 9575 624
Width: 600
Flags: W
LayerCount: 2
Fore
SplineSet
0 180.5 m 1
 0 257.5 l 1
 600 257.5 l 1
 600 180.5 l 1
 0 180.5 l 1
0 380.5 m 1
 0 457.5 l 1
 261.5 457.5 l 1
 261.5 820 l 1
 338.5 820 l 1
 338.5 457.5 l 1
 600 457.5 l 1
 600 380.5 l 1
 0 380.5 l 1
EndSplineSet
Validated: 1
EndChar

StartChar: SF460000
Encoding: 9576 9576 625
Width: 600
Flags: W
LayerCount: 2
Fore
SplineSet
0 280.5 m 1
 0 357.5 l 1
 161.5 357.5 l 1
 161.5 820 l 1
 238.5 820 l 1
 238.5 357.5 l 1
 361.5 357.5 l 1
 361.5 820 l 1
 438.5 820 l 1
 438.5 357.5 l 1
 600 357.5 l 1
 600 280.5 l 1
 0 280.5 l 1
EndSplineSet
Validated: 1
EndChar

StartChar: SF400000
Encoding: 9577 9577 626
Width: 600
Flags: W
LayerCount: 2
Fore
SplineSet
0 180.5 m 1
 0 257.5 l 1
 600 257.5 l 1
 600 180.5 l 1
 0 180.5 l 1
161.5 457.5 m 1
 161.5 820 l 1
 238.5 820 l 1
 238.5 380.5 l 1
 0 380.5 l 1
 0 457.5 l 1
 161.5 457.5 l 1
438.5 457.5 m 1
 600 457.5 l 1
 600 380.5 l 1
 361.5 380.5 l 1
 361.5 820 l 1
 438.5 820 l 1
 438.5 457.5 l 1
EndSplineSet
Validated: 1
EndChar

StartChar: SF540000
Encoding: 9578 9578 627
Width: 600
Flags: W
LayerCount: 2
Fore
SplineSet
261.5 259.5 m 1
 261.5 382.5 l 1
 0 382.5 l 1
 0 459.5 l 1
 261.5 459.5 l 1
 261.5 820 l 1
 338.5 820 l 1
 338.5 459.5 l 1
 600 459.5 l 1
 600 382.5 l 1
 338.5 382.5 l 1
 338.5 259.5 l 1
 600 259.5 l 1
 600 182.5 l 1
 338.5 182.5 l 1
 338.5 -180 l 1
 261.5 -180 l 1
 261.5 182.5 l 1
 0 182.5 l 1
 0 259.5 l 1
 261.5 259.5 l 1
EndSplineSet
Validated: 1
EndChar

StartChar: SF530000
Encoding: 9579 9579 628
Width: 600
Flags: W
LayerCount: 2
Fore
SplineSet
161.5 359.5 m 1
 161.5 820 l 1
 238.5 820 l 1
 238.5 359.5 l 1
 361.5 359.5 l 1
 361.5 820 l 1
 438.5 820 l 1
 438.5 359.5 l 1
 600 359.5 l 1
 600 282.5 l 1
 438.5 282.5 l 1
 438.5 -180 l 1
 361.5 -180 l 1
 361.5 282.5 l 1
 238.5 282.5 l 1
 238.5 -180 l 1
 161.5 -180 l 1
 161.5 282.5 l 1
 0 282.5 l 1
 0 359.5 l 1
 161.5 359.5 l 1
EndSplineSet
Validated: 1
EndChar

StartChar: SF440000
Encoding: 9580 9580 629
Width: 600
Flags: W
LayerCount: 2
Fore
SplineSet
361.5 382.5 m 1
 361.5 820 l 1
 438.5 820 l 1
 438.5 459.5 l 1
 600 459.5 l 1
 600 382.5 l 1
 361.5 382.5 l 1
361.5 259.5 m 1
 600 259.5 l 1
 600 182.5 l 1
 438.5 182.5 l 1
 438.5 -180 l 1
 361.5 -180 l 1
 361.5 259.5 l 1
238.5 259.5 m 1
 238.5 -180 l 1
 161.5 -180 l 1
 161.5 182.5 l 1
 0 182.5 l 1
 0 259.5 l 1
 238.5 259.5 l 1
238.5 382.5 m 1
 0 382.5 l 1
 0 459.5 l 1
 161.5 459.5 l 1
 161.5 820 l 1
 238.5 820 l 1
 238.5 382.5 l 1
EndSplineSet
Validated: 1
EndChar

StartChar: dnblock
Encoding: 9604 9604 630
Width: 600
Flags: W
LayerCount: 2
Fore
SplineSet
0 320 m 29
 600 320 l 29
 600 -180 l 29
 0 -180 l 29
 0 320 l 29
EndSplineSet
Validated: 1
EndChar

StartChar: block
Encoding: 9608 9608 631
Width: 600
Flags: W
LayerCount: 2
Fore
SplineSet
0 820 m 25
 600 820 l 25
 600 -180 l 25
 0 -180 l 25
 0 820 l 25
EndSplineSet
Validated: 1
EndChar

StartChar: lfblock
Encoding: 9612 9612 632
Width: 600
Flags: W
LayerCount: 2
Fore
SplineSet
0 820 m 25
 300 820 l 25
 300 -180 l 29
 0 -180 l 25
 0 820 l 25
EndSplineSet
Validated: 1
EndChar

StartChar: shade
Encoding: 9618 9618 633
Width: 600
Flags: W
LayerCount: 2
Fore
SplineSet
0 820 m 1
 60 820 l 1
 60 770 l 1
 0 770 l 1
 0 820 l 1
120 820 m 1
 180 820 l 1
 180 770 l 1
 120 770 l 1
 120 720 l 1
 60 720 l 1
 60 770 l 1
 120 770 l 1
 120 820 l 1
240 820 m 1
 300 820 l 1
 300 770 l 1
 240 770 l 1
 240 720 l 1
 180 720 l 1
 180 770 l 1
 240 770 l 1
 240 820 l 1
360 820 m 1
 420 820 l 1
 420 770 l 1
 360 770 l 1
 360 720 l 1
 300 720 l 1
 300 770 l 1
 360 770 l 1
 360 820 l 1
480 820 m 1
 540 820 l 1
 540 770 l 1
 480 770 l 1
 480 720 l 1
 420 720 l 1
 420 770 l 1
 480 770 l 1
 480 820 l 1
540 770 m 1
 600 770 l 1
 600 720 l 1
 540 720 l 1
 540 770 l 1
60 720 m 1
 60 670 l 1
 0 670 l 1
 0 720 l 1
 60 720 l 1
60 670 m 1
 120 670 l 1
 120 620 l 1
 60 620 l 1
 60 670 l 1
120 670 m 1
 120 720 l 1
 180 720 l 1
 180 670 l 1
 120 670 l 1
180 670 m 1
 240 670 l 1
 240 620 l 1
 180 620 l 1
 180 670 l 1
240 670 m 1
 240 720 l 1
 300 720 l 1
 300 670 l 1
 240 670 l 1
300 670 m 1
 360 670 l 1
 360 620 l 1
 300 620 l 1
 300 670 l 1
360 670 m 1
 360 720 l 1
 420 720 l 1
 420 670 l 1
 360 670 l 1
420 670 m 1
 480 670 l 1
 480 620 l 1
 420 620 l 1
 420 670 l 1
480 670 m 1
 480 720 l 1
 540 720 l 1
 540 670 l 1
 480 670 l 1
540 670 m 1
 600 670 l 1
 600 620 l 1
 540 620 l 1
 540 670 l 1
60 620 m 1
 60 570 l 1
 0 570 l 1
 0 620 l 1
 60 620 l 1
60 570 m 1
 120 570 l 1
 120 520 l 1
 60 520 l 1
 60 570 l 1
120 570 m 1
 120 620 l 1
 180 620 l 1
 180 570 l 1
 120 570 l 1
180 570 m 1
 240 570 l 1
 240 520 l 1
 180 520 l 1
 180 570 l 1
240 570 m 1
 240 620 l 1
 300 620 l 1
 300 570 l 1
 240 570 l 1
300 570 m 1
 360 570 l 1
 360 520 l 1
 300 520 l 1
 300 570 l 1
360 570 m 1
 360 620 l 1
 420 620 l 1
 420 570 l 1
 360 570 l 1
420 570 m 1
 480 570 l 1
 480 520 l 1
 420 520 l 1
 420 570 l 1
480 570 m 1
 480 620 l 1
 540 620 l 1
 540 570 l 1
 480 570 l 1
540 570 m 1
 600 570 l 1
 600 520 l 1
 540 520 l 1
 540 570 l 1
60 520 m 1
 60 470 l 1
 0 470 l 1
 0 520 l 1
 60 520 l 1
60 470 m 1
 120 470 l 1
 120 420 l 1
 60 420 l 1
 60 470 l 1
120 470 m 1
 120 520 l 1
 180 520 l 1
 180 470 l 1
 120 470 l 1
180 470 m 1
 240 470 l 1
 240 420 l 1
 180 420 l 1
 180 470 l 1
240 470 m 1
 240 520 l 1
 300 520 l 1
 300 470 l 1
 240 470 l 1
300 470 m 1
 360 470 l 1
 360 420 l 1
 300 420 l 1
 300 470 l 1
360 470 m 1
 360 520 l 1
 420 520 l 1
 420 470 l 1
 360 470 l 1
420 470 m 1
 480 470 l 1
 480 420 l 1
 420 420 l 1
 420 470 l 1
480 470 m 1
 480 520 l 1
 540 520 l 1
 540 470 l 1
 480 470 l 1
540 470 m 1
 600 470 l 1
 600 420 l 1
 540 420 l 1
 540 470 l 1
60 420 m 1
 60 370 l 1
 0 370 l 1
 0 420 l 1
 60 420 l 1
60 370 m 1
 120 370 l 1
 120 320 l 1
 60 320 l 1
 60 370 l 1
120 370 m 1
 120 420 l 1
 180 420 l 1
 180 370 l 1
 120 370 l 1
180 370 m 1
 240 370 l 1
 240 320 l 1
 180 320 l 1
 180 370 l 1
240 370 m 1
 240 420 l 1
 300 420 l 1
 300 370 l 1
 240 370 l 1
300 370 m 1
 360 370 l 1
 360 320 l 1
 300 320 l 1
 300 370 l 1
360 370 m 1
 360 420 l 1
 420 420 l 1
 420 370 l 1
 360 370 l 1
420 370 m 1
 480 370 l 1
 480 320 l 1
 420 320 l 1
 420 370 l 1
480 370 m 1
 480 420 l 1
 540 420 l 1
 540 370 l 1
 480 370 l 1
540 370 m 1
 600 370 l 1
 600 320 l 1
 540 320 l 1
 540 370 l 1
60 320 m 1
 60 270 l 1
 0 270 l 1
 0 320 l 1
 60 320 l 1
60 270 m 1
 120 270 l 1
 120 220 l 1
 60 220 l 1
 60 270 l 1
120 270 m 1
 120 320 l 1
 180 320 l 1
 180 270 l 1
 120 270 l 1
180 270 m 1
 240 270 l 1
 240 220 l 1
 180 220 l 1
 180 270 l 1
240 270 m 1
 240 320 l 1
 300 320 l 1
 300 270 l 1
 240 270 l 1
300 270 m 1
 360 270 l 1
 360 220 l 1
 300 220 l 1
 300 270 l 1
360 270 m 1
 360 320 l 1
 420 320 l 1
 420 270 l 1
 360 270 l 1
420 270 m 1
 480 270 l 1
 480 220 l 1
 420 220 l 1
 420 270 l 1
480 270 m 1
 480 320 l 1
 540 320 l 1
 540 270 l 1
 480 270 l 1
540 270 m 1
 600 270 l 1
 600 220 l 1
 540 220 l 1
 540 270 l 1
60 220 m 1
 60 170 l 1
 0 170 l 1
 0 220 l 1
 60 220 l 1
60 170 m 1
 120 170 l 1
 120 120 l 1
 60 120 l 1
 60 170 l 1
120 170 m 1
 120 220 l 1
 180 220 l 1
 180 170 l 1
 120 170 l 1
180 170 m 1
 240 170 l 1
 240 120 l 1
 180 120 l 1
 180 170 l 1
240 170 m 1
 240 220 l 1
 300 220 l 1
 300 170 l 1
 240 170 l 1
300 170 m 1
 360 170 l 1
 360 120 l 1
 300 120 l 1
 300 170 l 1
360 170 m 1
 360 220 l 1
 420 220 l 1
 420 170 l 1
 360 170 l 1
420 170 m 1
 480 170 l 1
 480 120 l 1
 420 120 l 1
 420 170 l 1
480 170 m 1
 480 220 l 1
 540 220 l 1
 540 170 l 1
 480 170 l 1
540 170 m 1
 600 170 l 1
 600 120 l 1
 540 120 l 1
 540 170 l 1
60 120 m 1
 60 70 l 1
 0 70 l 1
 0 120 l 1
 60 120 l 1
60 70 m 1
 120 70 l 1
 120 20 l 1
 60 20 l 1
 60 70 l 1
120 70 m 1
 120 120 l 1
 180 120 l 1
 180 70 l 1
 120 70 l 1
180 70 m 1
 240 70 l 1
 240 20 l 1
 180 20 l 1
 180 70 l 1
240 70 m 1
 240 120 l 1
 300 120 l 1
 300 70 l 1
 240 70 l 1
300 70 m 1
 360 70 l 1
 360 20 l 1
 300 20 l 1
 300 70 l 1
360 70 m 1
 360 120 l 1
 420 120 l 1
 420 70 l 1
 360 70 l 1
420 70 m 1
 480 70 l 1
 480 20 l 1
 420 20 l 1
 420 70 l 1
480 70 m 1
 480 120 l 1
 540 120 l 1
 540 70 l 1
 480 70 l 1
540 70 m 1
 600 70 l 1
 600 20 l 1
 540 20 l 1
 540 70 l 1
60 20 m 1
 60 -30 l 1
 0 -30 l 1
 0 20 l 1
 60 20 l 1
60 -30 m 1
 120 -30 l 1
 120 -80 l 1
 60 -80 l 1
 60 -30 l 1
120 -30 m 1
 120 20 l 1
 180 20 l 1
 180 -30 l 1
 120 -30 l 1
180 -30 m 1
 240 -30 l 1
 240 -80 l 1
 180 -80 l 1
 180 -30 l 1
240 -30 m 1
 240 20 l 1
 300 20 l 1
 300 -30 l 1
 240 -30 l 1
300 -30 m 1
 360 -30 l 1
 360 -80 l 1
 300 -80 l 1
 300 -30 l 1
360 -30 m 1
 360 20 l 1
 420 20 l 1
 420 -30 l 1
 360 -30 l 1
420 -30 m 1
 480 -30 l 1
 480 -80 l 1
 420 -80 l 1
 420 -30 l 1
480 -30 m 1
 480 20 l 1
 540 20 l 1
 540 -30 l 1
 480 -30 l 1
540 -30 m 1
 600 -30 l 1
 600 -80 l 1
 540 -80 l 1
 540 -30 l 1
60 -80 m 1
 60 -130 l 1
 0 -130 l 1
 0 -80 l 1
 60 -80 l 1
60 -130 m 1
 120 -130 l 1
 120 -180 l 1
 60 -180 l 1
 60 -130 l 1
120 -130 m 1
 120 -80 l 1
 180 -80 l 1
 180 -130 l 1
 120 -130 l 1
180 -130 m 1
 240 -130 l 1
 240 -180 l 1
 180 -180 l 1
 180 -130 l 1
240 -130 m 1
 240 -80 l 1
 300 -80 l 1
 300 -130 l 1
 240 -130 l 1
300 -130 m 1
 360 -130 l 1
 360 -180 l 1
 300 -180 l 1
 300 -130 l 1
360 -130 m 1
 360 -80 l 1
 420 -80 l 1
 420 -130 l 1
 360 -130 l 1
420 -130 m 1
 480 -130 l 1
 480 -180 l 1
 420 -180 l 1
 420 -130 l 1
480 -130 m 1
 480 -80 l 1
 540 -80 l 1
 540 -130 l 1
 480 -130 l 1
540 -130 m 1
 600 -130 l 1
 600 -180 l 1
 540 -180 l 1
 540 -130 l 1
EndSplineSet
Validated: 5
EndChar

StartChar: dkshade
Encoding: 9619 9619 634
Width: 600
Flags: W
LayerCount: 2
Fore
SplineSet
0 820 m 1
 60 820 l 1
 60 770 l 1
 120 770 l 1
 120 820 l 1
 180 820 l 1
 180 770 l 1
 240 770 l 1
 240 820 l 1
 300 820 l 1
 300 770 l 1
 360 770 l 1
 360 820 l 1
 420 820 l 1
 420 770 l 1
 480 770 l 1
 480 820 l 1
 540 820 l 1
 540 770 l 1
 600 770 l 1
 600 620 l 1
 540 620 l 1
 540 570 l 1
 600 570 l 1
 600 420 l 1
 540 420 l 1
 540 370 l 1
 600 370 l 1
 600 220 l 1
 540 220 l 1
 540 170 l 1
 600 170 l 1
 600 20 l 1
 540 20 l 1
 540 -30 l 1
 600 -30 l 1
 600 -180 l 1
 400 -180 200 -180 0 -180 c 1
 0 -130 l 1
 60 -130 l 1
 60 -80 l 1
 0 -80 l 1
 0 70 l 1
 60 70 l 1
 60 120 l 1
 0 120 l 1
 0 270 l 1
 60 270 l 1
 60 320 l 1
 0 320 l 1
 0 470 l 1
 60 470 l 1
 60 520 l 1
 0 520 l 1
 0 670 l 1
 60 670 l 1
 60 720 l 1
 0 720 l 1
 -0 753.333 0 786.667 0 820 c 1
120 720 m 1
 120 670 l 1
 180 670 l 1
 180 720 l 1
 120 720 l 1
240 720 m 1
 240 670 l 1
 300 670 l 1
 300 720 l 1
 240 720 l 1
360 720 m 1
 360 670 l 1
 420 670 l 1
 420 720 l 1
 360 720 l 1
480 720 m 1
 480 670 l 1
 540 670 l 1
 540 720 l 1
 480 720 l 1
60 620 m 1
 60 570 l 1
 120 570 l 1
 120 620 l 1
 60 620 l 1
180 620 m 1
 180 570 l 1
 240 570 l 1
 240 620 l 1
 180 620 l 1
300 620 m 1
 300 570 l 1
 360 570 l 1
 360 620 l 1
 300 620 l 1
420 620 m 1
 420 570 l 1
 480 570 l 1
 480 620 l 1
 420 620 l 1
120 520 m 1
 120 470 l 1
 180 470 l 1
 180 520 l 1
 120 520 l 1
240 520 m 1
 240 470 l 1
 300 470 l 1
 300 520 l 1
 240 520 l 1
360 520 m 1
 360 470 l 1
 420 470 l 1
 420 520 l 1
 360 520 l 1
480 520 m 1
 480 470 l 1
 540 470 l 1
 540 520 l 1
 480 520 l 1
60 420 m 1
 60 370 l 1
 120 370 l 1
 120 420 l 1
 60 420 l 1
180 420 m 1
 180 370 l 1
 240 370 l 1
 240 420 l 1
 180 420 l 1
300 420 m 1
 300 370 l 1
 360 370 l 1
 360 420 l 1
 300 420 l 1
420 420 m 1
 420 370 l 1
 480 370 l 1
 480 420 l 1
 420 420 l 1
120 320 m 1
 120 270 l 1
 180 270 l 1
 180 320 l 1
 120 320 l 1
240 320 m 1
 240 270 l 1
 300 270 l 1
 300 320 l 1
 240 320 l 1
360 320 m 1
 360 270 l 1
 420 270 l 1
 420 320 l 1
 360 320 l 1
480 320 m 1
 480 270 l 1
 540 270 l 1
 540 320 l 1
 480 320 l 1
60 220 m 1
 60 170 l 1
 120 170 l 1
 120 220 l 1
 60 220 l 1
180 220 m 1
 180 170 l 1
 240 170 l 1
 240 220 l 1
 180 220 l 1
300 220 m 1
 300 170 l 1
 360 170 l 1
 360 220 l 1
 300 220 l 1
420 220 m 1
 420 170 l 1
 480 170 l 1
 480 220 l 1
 420 220 l 1
120 120 m 1
 120 70 l 1
 180 70 l 1
 180 120 l 1
 120 120 l 1
240 120 m 1
 240 70 l 1
 300 70 l 1
 300 120 l 1
 240 120 l 1
360 120 m 1
 360 70 l 1
 420 70 l 1
 420 120 l 1
 360 120 l 1
480 120 m 1
 480 70 l 1
 540 70 l 1
 540 120 l 1
 480 120 l 1
60 20 m 1
 60 -30 l 1
 120 -30 l 1
 120 20 l 1
 60 20 l 1
180 20 m 1
 180 -30 l 1
 240 -30 l 1
 240 20 l 1
 180 20 l 1
300 20 m 1
 300 -30 l 1
 360 -30 l 1
 360 20 l 1
 300 20 l 1
420 20 m 1
 420 -30 l 1
 480 -30 l 1
 480 20 l 1
 420 20 l 1
120 -80 m 1
 120 -130 l 1
 180 -130 l 1
 180 -80 l 1
 120 -80 l 1
240 -80 m 1
 240 -130 l 1
 300 -130 l 1
 300 -80 l 1
 240 -80 l 1
360 -80 m 1
 360 -130 l 1
 420 -130 l 1
 420 -80 l 1
 360 -80 l 1
480 -80 m 1
 480 -130 l 1
 540 -130 l 1
 540 -80 l 1
 480 -80 l 1
EndSplineSet
Validated: 1
EndChar

StartChar: filledbox
Encoding: 9632 9632 635
Width: 600
Flags: W
LayerCount: 2
Fore
SplineSet
80 540 m 25
 520 540 l 29
 520 100 l 29
 80 100 l 25
 80 540 l 25
EndSplineSet
Validated: 1
EndChar

StartChar: H22073
Encoding: 9633 9633 636
Width: 600
Flags: W
LayerCount: 2
Fore
SplineSet
80 540 m 25
 520 540 l 25
 520 100 l 25
 80 100 l 25
 80 540 l 25
150 470 m 25
 150 170 l 25
 450 170 l 25
 450 470 l 25
 150 470 l 25
EndSplineSet
Validated: 1
EndChar

StartChar: H18543
Encoding: 9642 9642 637
Width: 600
Flags: W
LayerCount: 2
Fore
SplineSet
140 480 m 25
 460 480 l 25
 460 160 l 25
 140 160 l 25
 140 480 l 25
EndSplineSet
Validated: 1
EndChar

StartChar: H18551
Encoding: 9643 9643 638
Width: 600
Flags: W
LayerCount: 2
Fore
SplineSet
140 480 m 25
 460 480 l 25
 460 160 l 25
 140 160 l 25
 140 480 l 25
210 410 m 25
 210 230 l 29
 390 230 l 29
 390 410 l 25
 210 410 l 25
EndSplineSet
Validated: 1
EndChar

StartChar: triagup
Encoding: 9650 9650 639
Width: 600
Flags: W
LayerCount: 2
Fore
SplineSet
300 540 m 1
 520 100 l 1
 80 100 l 1
 300 540 l 1
EndSplineSet
Validated: 1
EndChar

StartChar: triagdn
Encoding: 9660 9660 640
Width: 600
Flags: W
LayerCount: 2
Fore
SplineSet
80 540 m 1
 520 540 l 1
 300 100 l 1
 80 540 l 1
EndSplineSet
Validated: 1
EndChar

StartChar: lozenge
Encoding: 9674 9674 641
Width: 600
Flags: W
LayerCount: 2
Fore
SplineSet
300 640 m 25
 520 320 l 25
 300 0 l 25
 80 320 l 25
 300 640 l 25
300 550 m 25
 150 320 l 25
 300 90 l 25
 450 320 l 25
 300 550 l 25
EndSplineSet
Validated: 1
EndChar

StartChar: circle
Encoding: 9675 9675 642
Width: 600
Flags: W
LayerCount: 2
Fore
SplineSet
120 320 m 0
 120 220.64 200.64 140 300 140 c 0
 399.36 140 480 220.64 480 320 c 0
 480 419.36 399.36 500 300 500 c 0
 200.64 500 120 419.36 120 320 c 0
40 320 m 0
 40 463.52 156.48 580 300 580 c 0
 443.52 580 560 463.52 560 320 c 0
 560 176.48 443.52 60 300 60 c 0
 156.48 60 40 176.48 40 320 c 0
EndSplineSet
Validated: 1
EndChar

StartChar: H18533
Encoding: 9679 9679 643
Width: 600
Flags: W
LayerCount: 2
Fore
SplineSet
40 320 m 0
 40 463.52 156.48 580 300 580 c 0
 443.52 580 560 463.52 560 320 c 0
 560 176.48 443.52 60 300 60 c 0
 156.48 60 40 176.48 40 320 c 0
EndSplineSet
Validated: 1
EndChar

StartChar: openbullet
Encoding: 9702 9702 644
Width: 600
Flags: W
LayerCount: 2
Fore
SplineSet
306.474 420.001 m 0
 262.597 420.001 227.967 385.165 227.967 343.507 c 0
 227.967 301.783 262.632 266.968 306.461 266.968 c 0
 350.36 266.968 385.001 301.817 385.001 343.496 c 0
 385.001 385.174 350.348 420.001 306.474 420.001 c 0
306.474 490.001 m 0
 387.938 490.001 455.001 424.91 455.001 343.496 c 0
 455.001 262.105 387.972 196.968 306.461 196.968 c 0
 225.014 196.968 157.967 262.075 157.967 343.507 c 0
 157.967 424.879 224.985 490.001 306.474 490.001 c 0
EndSplineSet
Validated: 1
EndChar

StartChar: female
Encoding: 9792 9792 645
Width: 600
Flags: W
LayerCount: 2
Fore
SplineSet
92 522 m 0
 92 636.816 185.184 730 300 730 c 0
 414.816 730 508 636.816 508 522 c 0
 508 420.864 435.7 336.513 340 317.848 c 1
 340 220 l 1
 538 220 l 1
 538 149 l 1
 340 149 l 1
 340 0 l 1
 267 0 l 1
 267 149 l 1
 62 149 l 1
 62 220 l 1
 267 220 l 1
 267 316.607 l 1
 167.848 332.434 92 418.413 92 522 c 0
156 522 m 0
 156 442.512 220.512 378 300 378 c 0
 379.488 378 444 442.512 444 522 c 0
 444 601.488 379.488 666 300 666 c 0
 220.512 666 156 601.488 156 522 c 0
EndSplineSet
Validated: 1
EndChar

StartChar: male
Encoding: 9794 9794 646
Width: 600
Flags: W
LayerCount: 2
Fore
SplineSet
78 468 m 1
 295 742 l 1
 320 742 l 1
 521 466 l 1
 463 427 l 1
 340 593.819 l 1
 340 399.152 l 1
 435.699 380.486 508 296.135 508 195 c 0
 508 80.1846 414.815 -13 300 -13 c 0
 185.185 -13 92 80.1846 92 195 c 0
 92 297.189 165.816 382.243 263 399.714 c 1
 263 594.4 l 1
 128 427 l 1
 78 468 l 1
156 195 m 0
 156 115.512 220.512 51 300 51 c 0
 379.488 51 444 115.512 444 195 c 0
 444 274.488 379.488 339 300 339 c 0
 220.512 339 156 274.488 156 195 c 0
EndSplineSet
Validated: 1
EndChar

StartChar: spade
Encoding: 9824 9824 647
Width: 600
Flags: W
LayerCount: 2
Fore
SplineSet
25 382.3 m 0
 25 552.496 282 735 282 735 c 1
 291 735 l 1
 291 735 547 552.268 547 382.3 c 0
 547 315.573 545.5 304.987 518.5 256.405 c 0
 498.5 221.146 459 202.339 418 202.339 c 0
 417 202.339 417 202.339 416 202.339 c 0
 398.763 202.339 358.904 223.705 327 253.676 c 1
 327 66 l 1
 477 66 l 1
 477 -1 l 1
 104 -1 l 1
 104 67 l 1
 246 67 l 1
 246 255.581 l 1
 213.911 224.962 173.458 202.339 156 202.339 c 0
 155 202.339 155 202.339 154 202.339 c 0
 113 202.339 72 221.146 52 256.405 c 0
 25 304.987 25 315.573 25 382.3 c 0
EndSplineSet
Validated: 1
EndChar

StartChar: club
Encoding: 9827 9827 648
Width: 600
Flags: W
LayerCount: 2
Fore
SplineSet
548 349.964 m 0
 548 256.788 487.429 203.271 420.107 203.271 c 0
 384.468 203.271 351.319 218.183 327 243.694 c 1
 327 66 l 1
 477 66 l 1
 477 -1 l 1
 104 -1 l 1
 104 67 l 1
 246 67 l 1
 246 240.317 l 1
 222.573 216.166 191.153 203.271 158.107 203.271 c 0
 86.4551 203.271 24.8682 263.546 24.8682 349.047 c 0
 24.8682 435.885 86.9824 497.931 159.435 497.931 c 0
 166.729 497.931 173.99 497.281 181.132 495.99 c 1
 165.924 519.382 156.868 548.46 156.868 581.247 c 0
 156.868 668.085 218.982 730.131 291.435 730.131 c 0
 356.046 730.131 418 679.204 418 582.164 c 0
 418 547.446 409.591 518.234 395.556 495.245 c 1
 403.967 497.013 412.625 497.931 421.435 497.931 c 0
 486.046 497.931 548 447.004 548 349.964 c 0
EndSplineSet
Validated: 1
EndChar

StartChar: heart
Encoding: 9829 9829 649
Width: 600
Flags: W
LayerCount: 2
Fore
SplineSet
547 461.4 m 8
 547 255.423 290 0 290 0 c 0
 281 0 l 0
 281 0 25 255.612 25 461.4 c 16
 25 528.127 25.5 579.4 46 629.454 c 0
 63.5292 672.255 92 735 154 735 c 0
 155 735 155 735 156 735 c 0
 240 735 265.5 673 286 607 c 1
 307 671 332 735 416 735 c 0
 417 735 417 735 418 735 c 0
 488 735 516.219 673.604 530 629.454 c 0
 545 581.4 547 528.127 547 461.4 c 8
EndSplineSet
Validated: 1
EndChar

StartChar: diamond
Encoding: 9830 9830 650
Width: 600
Flags: W
LayerCount: 2
Fore
SplineSet
521.832 367 m 5
 291 -1 l 1
 282 -1 l 1
 63.3574 367 l 5
 282 735 l 1
 291 735 l 1
 521.832 367 l 5
EndSplineSet
Validated: 1
EndChar

StartChar: musicalnote
Encoding: 9834 9834 651
Width: 600
Flags: W
LayerCount: 2
Fore
SplineSet
318.889 101.481 m 0
 291.727 26.8555 213.119 -16.0088 143.091 -16.0088 c 0
 82.3369 -16.0088 40.2148 16.0674 40.2148 65.0156 c 0
 40.2148 76.1172 42.3818 88.0869 46.9893 100.747 c 0
 72.3037 170.297 155.003 219.991 230.368 219.991 c 0
 235.7 219.991 240.92 219.735 246 219.223 c 1
 246 654 l 1
 246 722 l 1
 282 723 l 1
 291 723 l 1
 291 723 539.107 549.133 539.107 385.891 c 0
 539.107 302.341 487.728 243.898 415.791 214.723 c 1
 415.791 287.403 l 1
 439.73 310.814 455.107 343.686 455.107 385.891 c 0
 455.107 461.098 374.495 539.774 327 579.601 c 1
 327 143 l 2
 327 130.606 324.449 116.758 318.889 101.481 c 0
EndSplineSet
Validated: 1
EndChar

StartChar: afii10146
Encoding: 1122 1122 656
Width: 600
Flags: W
LayerCount: 2
Fore
SplineSet
236 71 m 1
 298.438 71 l 2
 329.643 71 360.242 71.5469 391.424 85.5967 c 0
 441.315 108.078 468.785 156.379 468.785 208.01 c 0
 468.785 260.227 440.366 311.754 386.774 337.19 c 0
 350.735 354.296 314.911 355 278.438 355 c 2
 236 355 l 1
 236 71 l 1
236 541 m 1
 236 423 l 1
 259 423 l 2
 339 423 402.878 423 461.438 383 c 0
 520.125 342.914 553.562 283.98 553.562 199.903 c 0
 553.562 125.489 510.85 54.79 433.15 21.7725 c 0
 383.257 0.570312 333.549 0 284.438 0 c 2
 156 0 l 1
 156 541 l 1
 46.0049 541 l 1
 46.0049 603 l 1
 156 603 l 1
 156 722 l 1
 247 722 l 1
 247.379 720.886 247.572 719.712 247.572 718.526 c 0
 247.572 712.484 242.866 708.916 240.206 706.11 c 0
 236.27 701.956 236 698.931 236 695 c 2
 236 603 l 1
 437.784 603 l 1
 437.784 541 l 1
 236 541 l 1
EndSplineSet
Validated: 1
EndChar

StartChar: afii10194
Encoding: 1123 1123 657
Width: 600
Flags: W
LayerCount: 2
Fore
SplineSet
236 70.9004 m 1
 275 70.9004 l 2
 306.203 70.9004 344.312 71.2266 373 79.6143 c 0
 418.9 93.0352 441.787 121.87 441.787 152.694 c 0
 441.787 183.867 418.027 234.101 368.723 245.029 c 0
 335.566 252.378 291.473 252.68 255 252.68 c 2
 236 252.68 l 1
 236 70.9004 l 1
156 457.005 m 1
 46 457.005 l 1
 46 530 l 1
 156 530 l 1
 156 685.5 l 1
 249 685.5 l 1
 251 678.5 245 674.5 243 672.5 c 0
 237 668.5 236 665.5 236 659.5 c 2
 236 530 l 1
 397 530 l 1
 397 457.005 l 1
 236 457.005 l 1
 236 321.273 l 1
 250 321.273 l 2
 361.5 321.273 416.832 313.207 451.025 288 c 0
 499.857 252 530 208.462 530 146.743 c 0
 530 92.1182 476.105 35.0146 417.598 15.9824 c 0
 390.172 7.06152 304.5 0 261 0 c 2
 156 0 l 1
 156 457.005 l 1
EndSplineSet
Validated: 1
EndChar

StartChar: afii10195
Encoding: 1139 1139 659
Width: 600
Flags: W
LayerCount: 2
Fore
SplineSet
543.113 262.304 m 4
 543.113 86.8047 430.326 -14 304.969 -14 c 4
 171.548 -14 56.8682 99.5322 56.8682 260.578 c 4
 56.8682 424.14 172.53 541.005 307.44 541.005 c 4
 427.751 541.005 543.113 445.084 543.113 262.304 c 4
301.758 470.103 m 4
 220.795 470.103 144.985 397.575 144.985 267.806 c 4
 144.985 137.225 221.249 57.9932 305.614 57.9932 c 4
 382.884 57.9932 459.167 125.6 459.167 258.844 c 4
 459.167 404.202 378.128 470.103 301.758 470.103 c 4
408.99 253 m 1
 197.99 253 l 1
 197.99 317 l 1
 408.99 317 l 1
 408.99 253 l 1
EndSplineSet
Validated: 1
EndChar

StartChar: acute.cap.pl
Encoding: 65544 -1 662
Width: 600
Flags: W
HStem: 627 155.344
VStem: 265 113.325
LayerCount: 2
Fore
SplineSet
287.205 782.344 m 4
 378.325 763 l 4
 318.825 627 l 4
 265 638.657 l 4
 287.205 782.344 l 4
EndSplineSet
Validated: 1
EndChar

StartChar: acute.pl
Encoding: 65545 -1 663
Width: 600
Flags: W
HStem: 618.844 207.269
VStem: 265 120.655
LayerCount: 2
Fore
SplineSet
300.016 826.112 m 0
 385.655 806.215 l 0
 331.646 618.844 l 0
 265 630.977 l 0
 300.016 826.112 l 0
EndSplineSet
Validated: 1
EndChar

